<?xml version="1.0" encoding="UTF-8" standalone="no"?>
<svg
   xmlns:dc="http://purl.org/dc/elements/1.1/"
   xmlns:cc="http://creativecommons.org/ns#"
   xmlns:rdf="http://www.w3.org/1999/02/22-rdf-syntax-ns#"
   xmlns:svg="http://www.w3.org/2000/svg"
   xmlns="http://www.w3.org/2000/svg"
   xmlns:sodipodi="http://sodipodi.sourceforge.net/DTD/sodipodi-0.dtd"
   xmlns:inkscape="http://www.inkscape.org/namespaces/inkscape"
   inkscape:version="1.0 (4035a4fb49, 2020-05-01)"
   id="svg25"
   version="1.1"
   sodipodi:docname="daisy.svg"
   viewBox="-60 -60 120 120"
   height="120mm"
   width="120mm">
  <defs
     id="defs27" />
  <sodipodi:namedview
     inkscape:document-rotation="0"
     id="namedview15"
     inkscape:snap-grids="true"
     inkscape:snap-bbox-edge-midpoints="true"
     inkscape:bbox-nodes="true"
     inkscape:bbox-paths="true"
     inkscape:window-maximized="1"
     inkscape:window-y="-8"
     inkscape:window-x="-8"
     inkscape:window-height="837"
     inkscape:window-width="1600"
     inkscape:snap-bbox-midpoints="true"
     inkscape:snap-bbox="true"
     inkscape:snap-global="true"
     inkscape:guide-bbox="true"
     showguides="true"
     units="mm"
     showgrid="false"
     inkscape:current-layer="Template"
     inkscape:document-units="mm"
     inkscape:cy="226.77165"
     inkscape:cx="226.77165"
     inkscape:zoom="1"
     inkscape:pageshadow="2"
     inkscape:pageopacity="0.0"
     borderopacity="1.0"
     bordercolor="#666666"
     pagecolor="#ffffff">
    <sodipodi:guide
       id="guide2827"
       position="226.771653543,226.771653543"
       orientation="1,0" />
    <sodipodi:guide
       id="guide2829"
       position="226.771653543,226.771653543"
       orientation="0,1" />
    <inkscape:grid
       spacingy="0.1mm"
       spacingx="0.1mm"
       dotted="false"
       units="mm"
       snapvisiblegridlinesonly="true"
       enabled="true"
       visible="true"
       empspacing="10"
       id="grid3072"
       type="xygrid" />
  </sodipodi:namedview>
  <metadata
     id="metadata2822">
    <rdf:RDF>
      <cc:Work
         rdf:about="">
        <dc:format>image/svg+xml</dc:format>
        <dc:type
           rdf:resource="http://purl.org/dc/dcmitype/StillImage" />
        <dc:title></dc:title>
      </cc:Work>
    </rdf:RDF>
  </metadata>
  <g
     style="fill:none;stroke:black;stroke-width:0.05"
     transform="translate(60mm, 60mm)"
     
     id="Template"
     inkscape:groupmode="layer"
     inkscape:label="Layer 1">
    <path
       id="path93"
       d="m -2.262088,39.592975 -0.677825,-0.305206 -0.743426,-0.737359 -0.743424,-0.73736 -0.476615,-1.010192 -0.476615,-1.010193 -0.158205,-0.974345 -0.158204,-0.974345 -0.02809,-3.47811 -0.02809,-3.478109 0.608815,-3.51391 0.608815,-3.513911 0.306695,-1.277785 0.306695,-1.277786 -8.05e-4,-0.239585 -8.05e-4,-0.239584 -0.417587,0.718754 -0.417585,0.718754 -0.965376,2.156264 -0.965375,2.156263 -0.373313,0.982521 -0.373315,0.982521 -1.082796,2.132081 -1.082796,2.132082 -0.245715,0.479169 -0.245717,0.47917 -0.597121,0.878477 -0.597122,0.878478 -1.026487,1.042028 -1.026486,1.042026 -1.207779,0.599561 -1.207778,0.599559 -1.046741,0.1654 -1.046741,0.1654 -0.554736,-0.103036 -0.554736,-0.103036 -0.757525,-0.380737 -0.757527,-0.380735 -0.48518,-0.583806 -0.485183,-0.583808 -0.175261,-0.690344 -0.17526,-0.690344 V 30.337453 29.05705 l 0.553302,-1.535442 0.553303,-1.535443 1.032391,-1.785328 1.03239,-1.78533 1.078329,-1.756956 1.078328,-1.756955 0.758017,-0.943684 0.758016,-0.943685 0.549302,-0.733409 0.549302,-0.733409 0.45718,-0.589596 0.457179,-0.589596 v -0.108976 -0.108974 l -1.972704,1.822205 -1.972705,1.822206 -1.046741,0.800908 -1.046741,0.800908 -0.740578,0.502296 -0.740581,0.502294 -0.86979,0.496953 -0.869792,0.496953 -1.481889,0.701136 -1.481889,0.701133 -1.014186,0.308819 -1.014186,0.308818 -1.177829,0.195286 -1.177829,0.195284 -1.045917,-0.195739 -1.045916,-0.195741 -0.937971,-0.684861 -0.937972,-0.684861 -0.439013,-0.889991 -0.439013,-0.889989 0.172673,-0.972278 0.172672,-0.972277 0.358466,-0.587545 0.358465,-0.587543 0.691067,-0.902115 0.691066,-0.902115 1.492822,-1.388448 1.492821,-1.388447 1.12726,-0.788323 1.127259,-0.788322 1.288297,-0.824523 1.288297,-0.8245254 3.301261,-1.663867 3.301259,-1.663868 -0.402593,0.11589 -0.402592,0.11589 -0.522324,0.211868 -0.522322,0.211867 -1.973752,0.554579 -1.973752,0.554579 -1.771408,0.324813 -1.771408,0.324813 -1.690889,0.181816 -1.69089,0.181816 -1.690889,0.0074 -1.69089,0.0074 -1.308249,-0.26778 -1.308244,-0.267783 -0.849973,-0.308141 -0.849973,-0.308141 -0.637719,-0.438333 -0.637719,-0.438335 -0.396398,-0.515465 -0.396399,-0.515464 -0.310218,-0.8097658 -0.310231,-0.8097631 V 3.2743929 2.425012 l 0.489993,-0.733719 0.489993,-0.73371903 0.630011,-0.564532 0.63001,-0.564533 0.691664,-0.349986 0.691664,-0.349985 1.368815,-0.45988797 1.368816,-0.45989 1.771408,-0.31771 1.771408,-0.31771 1.610371,-0.232459 1.610371,-0.23246 2.411495,-0.173526 2.411497,-0.173529 0.07116,-0.07058 0.07116,-0.07058 h -0.403387 -0.403388 l -1.837712,-0.545102 -1.837712,-0.545102 -0.885704,-0.309211 -0.885704,-0.30921 -1.046741,-0.357252 -1.046741,-0.357253 -2.460575,-1.1785803 -2.460575,-1.17858 -0.921204,-0.707782 -0.921204,-0.707781 -0.434218,-0.4559157 -0.434218,-0.455913 -0.348575,-0.781849 -0.348574,-0.781848 -0.01042,-1.13483 -0.01042,-1.13483 0.359477,-0.740496 0.359477,-0.740498 0.554515,-0.642541 0.554516,-0.64254 v -0.15692 -0.156921 l 0.647408,-0.256929 0.647407,-0.256926 h 1.424981 1.42498 l 1.375639,0.237933 1.375638,0.237935 3.194754,0.972956 3.194754,0.972957 0.56363,0.292036 0.56363,0.292036 0.644148,0.241099 0.644149,0.241098 0.603889,0.254658 0.603889,0.254658 v -0.0769 -0.07691 l -0.362334,-0.204754 -0.362333,-0.204756 -2.415557,-2.476794 -2.415556,-2.476794 -0.56363,-0.635468 -0.56363,-0.635467 -1.167328,-1.73388 -1.167329,-1.733878 -0.343095,-1.12035 -0.343095,-1.120348 0.08664,-0.901609 0.08664,-0.901607 0.372658,-0.958339 0.372659,-0.958339 0.75089,-0.748021 0.750891,-0.748019 0.594981,-0.110709 0.594982,-0.110708 1.184961,0.07543 1.184961,0.07543 1.363235,0.648789 1.363236,0.648789 0.941431,0.596421 0.941429,0.596422 1.018816,0.886055 1.018816,0.886055 1.463513,1.596311 1.463513,1.596312 -0.09555,-0.308843 -0.09555,-0.308841 -0.804675,-2.315986 -0.804676,-2.315986 -0.240129,-0.95834 -0.240129,-0.958339 -0.17802,-1.379409 -0.178019,-1.379408 0.10081,-0.936579 0.100809,-0.936577 0.236571,-0.946495 0.236572,-0.946494 0.459972,-0.663093 0.459972,-0.663091 0.534764,-0.403211 0.534762,-0.40321 0.515373,-0.263259 0.515374,-0.263258 h 0.842858 0.842857 l 0.735252,0.349805 0.735251,0.349805 0.966222,0.967912 0.966223,0.967911 0.763366,1.296847 0.763364,1.296845 0.630377,1.578173 0.630375,1.57817 0.999657,3.274326 0.999658,3.274325 0.159095,0.159724 0.159095,0.159723 -0.11036,-1.756955 -0.11036,-1.756956 0.175604,-2.236124 0.175606,-2.236125 0.176418,-1.197924 0.176416,-1.197924 0.396739,-1.248547 0.396738,-1.248545 0.565019,-1.213246 0.565018,-1.213245 0.968948,-1.000825 0.968947,-1.000826 0.533183,-0.250947 0.533184,-0.250948 H 2.766363 3.5255 l 0.424304,0.422263 0.424305,0.422262 0.805186,0.497581 0.805185,0.497581 0.498747,0.738734 0.498746,0.738734 0.215729,1.016787 0.21573,1.016785 0.09408,4.232665 0.09408,4.232665 0.148782,-0.316072 0.148784,-0.316071 1.244193,-1.952685 1.244194,-1.952685 0.876151,-1.089135 0.876152,-1.089135 0.923458,-0.837101 0.923456,-0.837101 0.706944,-0.410917 0.706944,-0.410917 0.847699,-0.223821 0.847698,-0.223822 0.583759,-0.0019 0.58376,-0.0019 0.503495,0.09988 0.503494,0.09988 0.709635,0.619554 0.70964,0.619553 0.24669,0.83787 0.24668,0.837871 0.0835,0.958889 0.0836,0.95889 -0.1378,0.966953 -0.1378,0.966953 -0.99033,2.619007 -0.990337,2.619007 -0.515876,1.045462 -0.515878,1.045473 -0.06565,0.155407 -0.06565,0.155408 1.031871,-0.879812 1.03187,-0.879811 0.80054,-0.633243 0.80054,-0.633244 0.97087,-0.513048 0.97087,-0.513047 1.44933,-0.726 1.44933,-0.725999 1.3088,-0.188197 1.3088,-0.188196 0.94572,0.357255 0.94572,0.357254 0.61682,0.421772 0.61681,0.42177 0.37963,0.743048 0.37963,0.743048 0.0436,0.384341 0.0436,0.384338 -0.13487,0.95834 -0.13487,0.958339 -0.289,0.568659 -0.28899,0.568658 -0.94808,1.268159 -0.94807,1.268157 -1.68109,1.681188 -1.6811,1.681187 -1.61536,1.372125 -1.61537,1.372124 -1.76641,1.27155 -1.76642,1.27155 -1.610367,1.006299 -1.610371,1.006298 -0.146711,0.133136 -0.146709,0.1331347 2.079154,-0.8048177 2.079154,-0.804818 1.85193,-0.634152 1.85193,-0.634152 1.85192,-0.459757 1.85193,-0.459755 2.09348,-0.350205 2.09348,-0.350202 1.69089,0.0029 1.69089,0.0029 1.27878,0.268478 1.27878,0.268477 0.78023,0.392145 0.78022,0.392144 0.64879,0.581362 0.6488,0.581362 0.24406,0.468111 0.24406,0.46811 0.0273,0.90154 0.0273,0.9015397 -0.23067,0.798616 -0.23067,0.798616 -0.90191,0.878478 -0.90191,0.8784773 -1.20246,0.578347 -1.20246,0.578346 -2.01296,0.638964 -2.01297,0.638964 -1.16752,0.290919 -1.16751,0.290918 0.001,0.089 0.001,0.089 1.8105,0.351453 1.8105,0.351455 1.52986,0.500494 1.52985,0.50049497 0.96622,0.499995 0.96622,0.499996 1.05054,1.04597203 1.05054,1.045971 0.31828,0.6368243 0.31828,0.636826 v 1.0498339 1.0498654 l -0.45061,0.675356 -0.45061,0.675356 -1.14251,0.733056 -1.14251,0.733056 -0.74192,0.223787 -0.74192,0.223786 -2.09874,0.09622 -2.09874,0.09623 -1.84662,-0.277186 -1.84667,-0.277185 -1.93244,-0.310568 -1.93245,-0.310566 -1.52985,-0.408546 -1.52985,-0.408548 -2.174,-0.691161 -2.174005,-0.6911618 -1.284623,-0.491866 -1.284624,-0.491866 -0.16471,0.00722 -0.16471,0.00722 0.650514,0.3521609 0.650512,0.3521593 2.409193,1.6092116 2.409193,1.609209 1.69089,1.151121 1.69089,1.1511204 1.28829,0.989571 1.2883,0.98957 1.69089,1.680688 1.69089,1.680687 0.85989,1.197924 0.85989,1.197924 0.50645,0.958339 0.50644,0.958339 -0.003,1.357648 -0.003,1.357647 -0.44498,0.958339 -0.44499,0.958339 -0.59019,0.600938 -0.59019,0.600936 -0.56926,0.156858 -0.56927,0.156858 -0.74294,9.58e-4 -0.74295,9.58e-4 L 27.94829,26.485668 27.08087,26.323033 25.8416,25.58067 24.60233,24.838309 22.86241,23.478748 21.12257,22.119055 17.722613,18.793302 14.32266,15.467548 h -0.101148 -0.101147 l 1.759821,3.394118 1.759823,3.394118 0.81889,2.038396 0.81889,2.038395 0.417688,1.7151 0.417693,1.7151 -0.0818,1.51737 -0.0817,1.517371 -0.29925,0.798616 -0.299249,0.798616 -0.885704,0.884722 -0.885704,0.884723 -0.662832,0.193409 -0.662832,0.193409 H 15.536532 14.818977 L 14.103281,36.309138 13.387586,36.067266 12.45491,35.341214 11.522236,34.615161 10.598809,33.220334 9.675381,31.825505 8.732327,29.755939 7.789271,27.686372 7.073243,25.929417 6.357215,24.172462 5.811114,22.655091 l -0.546103,-1.51737 0.0732,1.038201 0.0732,1.038201 0.10565,2.395848 0.105652,2.395848 -0.181075,1.437508 -0.181075,1.437509 -0.05917,0.319447 -0.05917,0.319446 -0.198216,1.118062 -0.198214,1.118063 -0.323008,1.111014 -0.323007,1.111015 -0.368139,0.825635 -0.368139,0.825636 -0.621651,0.683794 -0.62165,0.683795 -0.966223,0.454101 -0.966223,0.454101 -0.885704,-0.0034 -0.885704,-0.0034 -0.677824,-0.305207 z M 1.030794,39.00082 1.874442,38.60566 2.418559,37.937712 2.962676,37.269764 3.461443,35.991979 3.960209,34.714193 4.201022,33.755854 4.441833,32.797515 4.67974,31.280144 4.917648,29.762774 5.023844,28.405127 5.13004,27.047479 4.945173,24.252323 4.760305,21.457167 4.444502,18.502288 4.1287,15.547409 3.960982,14.349485 3.793265,13.151561 3.245993,10.509294 2.698721,7.8670246 2.623901,7.6342756 2.549081,7.4015256 2.462151,7.0022176 2.375221,6.6029096 h -1.691725 -1.69172 l -0.580958,2.395848 -0.580957,2.3958484 -0.635145,3.114602 -0.635143,3.114603 -0.313182,1.357647 -0.31318,1.357647 -0.570715,3.51391 -0.570714,3.513911 0.0085,2.315986 0.0085,2.315987 0.135005,1.677093 0.135007,1.677094 0.366073,0.958339 0.366073,0.958339 0.994233,0.986933 0.994233,0.986934 0.549712,0.154173 0.549711,0.154173 0.644149,-0.078 0.644148,-0.078 0.84365,-0.39516 z m 16.114031,-3.232369 0.599585,-0.30339 0.456931,-0.453201 0.45693,-0.453204 0.291226,-0.566191 0.291226,-0.566192 0.175696,-0.942675 0.175697,-0.942677 V 30.702572 29.864224 L 19.10218,27.979568 18.612245,26.094913 18.038161,24.654518 17.464076,23.214123 15.934203,20.179382 14.404328,17.144641 13.668234,15.786994 12.93214,14.429347 11.914171,12.911976 10.896202,11.394606 10.16452,10.516128 9.432837,9.6376506 8.156554,7.8008336 6.88027,5.9640166 6.40176,5.4531004 5.923248,4.9421842 4.424012,5.6926856 l -1.499237,0.750501 -0.06683,0.03967 -0.06683,0.03967 0.276826,0.91867 0.276826,0.918672 0.05777,0.360516 0.05777,0.360514 0.414208,2.1151964 0.414207,2.115193 0.324514,2.336736 0.324514,2.336736 v 0.525705 0.525705 l 0.21644,0.252162 0.216442,0.252161 0.569619,1.756955 0.56962,1.756955 0.668164,1.677094 0.668164,1.677094 0.837736,1.916678 0.837737,1.916678 0.703964,1.277786 0.703966,1.277786 0.624225,0.809277 0.624227,0.809278 0.644732,0.513893 0.644731,0.513893 0.687008,0.30271 0.687007,0.30271 0.851861,0.01128 0.85186,0.01128 z m -32.294339,-1.809306 1.173014,-0.552516 0.999605,-0.917909 0.999606,-0.917907 0.594149,-0.802791 0.594152,-0.802789 0.535097,-0.979707 0.535097,-0.979707 0.811387,-1.564526 0.811388,-1.564525 0.877365,-2.153614 0.877366,-2.153613 1.090214,-2.305684 1.090217,-2.305683 0.241555,-0.0061 0.241556,-0.0061 0.53883,-2.515294 0.53883,-2.515292 0.467652,-1.9364414 0.467652,-1.936441 V 6.6605806 6.2785946 L -2.473224,5.9938036 -3.281666,5.7090136 -3.82304,5.2375588 -4.364413,4.7661054 h -0.151919 -0.151919 l -0.795221,0.9982702 -0.79522,0.99827 -0.494141,0.638893 -0.494139,0.638892 -0.791981,1.036743 -0.79198,1.0367424 -1.546168,1.598691 -1.546168,1.59869 0.0029,0.25483 0.0029,0.254831 -1.244875,1.762443 -1.244874,1.762442 -0.273966,0.298712 -0.273968,0.298715 -0.57954,0.718754 -0.579541,0.718755 -0.223236,0.429963 -0.223236,0.429964 -0.976529,1.566576 -0.976529,1.566577 -0.665206,1.118062 -0.665207,1.118062 -0.348554,0.798616 -0.348552,0.798616 -0.385007,1.106107 -0.385009,1.106108 v 1.019358 1.019358 l 0.186589,0.734965 0.186588,0.734965 0.582351,0.573618 0.58235,0.573619 0.720654,0.277597 0.720653,0.277598 1.004798,-0.05942 1.004797,-0.05942 1.173014,-0.552517 z m 45.842134,-7.94672 0.55044,-0.156578 0.46999,-0.442384 0.46999,-0.442385 0.41272,-0.798616 0.41273,-0.798616 0.0762,-1.151924 0.0762,-1.151925 -0.57886,-1.208958 -0.57886,-1.208958 -0.7628,-0.993304 L 30.47756,16.665471 29.6679,15.732352 28.85825,14.799234 27.53248,13.655951 26.20671,12.512668 25.30882,11.821322 24.41093,11.129975 22.3639,9.7624436 20.31686,8.3949106 18.384337,7.0868056 16.451892,5.7786996 15.193513,5.075058 13.935134,4.3714166 13.655992,4.113478 13.37685,3.8555394 12.257259,3.411905 11.137668,2.9682706 9.78659,2.349811 8.435515,1.731352 h -0.058 -0.058 V 1.97861 2.225866 L 7.777759,3.0567413 7.236003,3.887615 6.808788,4.2773955 6.381571,4.6671776 6.92451,5.2357347 l 0.54294,0.5685589 1.096188,1.597232 1.096186,1.597232 1.072707,1.3576474 1.072706,1.357647 0.452539,0.678824 0.45254,0.678823 h 0.12121 0.121209 l 1.029718,1.157994 1.029718,1.157993 3.381909,3.274325 3.38191,3.274326 1.36388,1.050087 1.36387,1.050086 0.96623,0.643852 0.96622,0.643854 0.548,0.279406 0.548,0.279405 0.7403,0.124201 0.74029,0.124201 0.5647,0.01879 0.56469,0.01879 z m -57.881782,-3.187757 1.288297,-0.307355 1.207778,-0.507679 1.207778,-0.507679 1.771409,-1.051037 1.771408,-1.051038 1.386478,-1.047759 1.386481,-1.047757 2.310743,-2.076401 2.310742,-2.076402 1.512546,-1.51737 1.512544,-1.517371 1.830528,-2.3958484 1.830528,-2.3958478 0.492827,-0.5153597 0.492827,-0.5153613 -0.64527,-0.5782059 -0.64527,-0.578206 -0.330769,-0.5308289 -0.330769,-0.530829 -1.323379,0.61324 -1.323377,0.6132395 -2.794689,1.0386688 -2.794691,1.0386687 -0.909163,0.5451956 -0.909163,0.545198 -0.56363,0.220666 -0.56363,0.220664 -2.657111,1.326081 -2.657112,1.326081 -1.246771,0.7555624 -1.246771,0.755561 -1.296528,0.894346 -1.296528,0.894348 -1.671889,1.542021 -1.671889,1.542019 -0.730147,1.035964 -0.730148,1.035963 -0.17899,0.331718 -0.17899,0.331717 -0.132142,0.827925 -0.132142,0.827925 0.319377,0.621374 0.319377,0.621373 0.50857,0.473849 0.50857,0.473851 0.644149,0.298847 0.644148,0.298847 1.207778,0.0024 1.207778,0.0024 1.288297,-0.307356 z m -1.207778,-14.7791244 2.174001,-0.231041 1.554261,-0.319429 1.55426,-0.319429 1.467251,-0.409167 1.46725,-0.40917 0.86946,-0.322652 0.869461,-0.322653 1.095686,-0.3013454 1.095687,-0.3013466 0.122941,0.075362 0.122942,0.075362 0.35906,-0.1905961 0.359059,-0.1905945 3.086397,-1.1620406 L -9.112827,2.554763 -8.126436,2.060896 -7.140044,1.56703 V 1.50955 1.45207 l -0.242584,-0.68194603 -0.242583,-0.681947 -0.102615,-1.09508897 -0.102616,-1.095091 -2.352172,-7.99e-4 -2.352173,-7.98e-4 -2.73763,-0.254866 -2.737631,-0.254867 -2.73763,0.02298 -2.737631,0.02298 -1.368815,0.07055 -1.368815,0.07055 -1.288297,0.162637 -1.288297,0.162638 -2.44638,0.39642 -2.44638,0.39642 -1.579548,0.50036997 -1.579547,0.500368 -0.599411,0.301615 -0.599412,0.301613 -0.577557,0.502964 -0.577558,0.50296503 -0.494261,0.712523 -0.494261,0.7125224 0.09143,0.8785926 0.09142,0.8785926 0.407017,0.819888 0.407017,0.819888 0.788254,0.529072 0.788254,0.529071 1.270154,0.400058 1.270153,0.400058 0.885789,0.129525 0.885789,0.129525 1.368816,0.01777 1.368815,0.01777 2.174001,-0.231039 z m 67.45493,-0.56807 1.34921,-0.714841 0.51472,-0.594974 0.51473,-0.5949734 0.17794,-0.5750467 0.17794,-0.575045 L 41.57564,3.7078066 41.35875,2.9930197 40.68053,2.121091 40.00231,1.249162 39.25814,0.71230797 l -0.74417,-0.536855 -0.55729,-0.281752 -0.5573,-0.281753 -1.37515,-0.462667 -1.37515,-0.46266897 -1.69089,-0.387276 -1.69089,-0.387277 -1.86951,-0.242598 -1.86952,-0.242597 -2.63952,-0.176955 -2.63952,-0.176956 -1.69089,0.08926 -1.690891,0.08926 -3.623335,0.0901 -3.623335,0.0901 -1.309966,0.176277 -1.309966,0.176277 -0.08436,1.37460297 -0.08436,1.374604 -0.112998,0.355395 -0.112997,0.35539503 1.26577,0.5778 1.265769,0.577802 3.140223,1.1640486 3.140224,1.1640483 1.932445,0.6571891 1.932447,0.6571896 2.01296,0.563268 2.01297,0.563269 2.41555,0.387848 2.41556,0.387848 0.96622,0.155813 0.96622,0.155813 2.81815,-0.03192 2.81815,-0.03192 z M 4.070276,5.3367469 5.594308,4.5863513 6.521903,3.6779511 7.449496,2.7695526 7.746835,2.137549 8.044172,1.505545 8.260453,0.70003997 8.476732,-0.10546503 8.477377,-1.223527 8.478021,-2.34159 8.314795,-3.379791 8.151569,-4.417991 7.588002,-5.565036 7.024437,-6.7120813 6.182334,-7.3784393 5.34023,-8.0447963 l -0.724666,-0.360706 -0.724667,-0.360704 -0.850788,-0.276269 -0.850788,-0.276267 -1.403732,-0.02534 -1.40363,-0.02533 -1.033472,0.22716 -1.033473,0.22716 -0.974006,0.651318 -0.974005,0.651318 -0.986528,1.289051 -0.986528,1.2890503 -0.365707,1.344272 -0.365707,1.344271 0.07278,1.279897 0.07278,1.27989497 0.511077,1.10467603 0.511077,1.104678 1.326521,1.2627908 1.32652,1.2627908 0.483111,0.2552424 0.483112,0.2552425 1.046741,0.3791161 1.046741,0.379117 1.501623,-0.06525 1.501624,-0.06525 z M -7.447578,-3.499583 -7.220562,-4.417991 v -0.09188 -0.09188 l -2.7033,-2.0242923 -2.7033,-2.02429 -1.403146,-0.931486 -1.403147,-0.9314867 -2.073914,-1.171204 -2.073914,-1.171204 -2.27472,-0.996404 -2.274721,-0.996403 -2.898034,-0.885451 -2.898034,-0.885451 -1.046742,-0.233974 -1.046741,-0.233973 -1.265937,-0.187658 -1.265938,-0.187657 -0.962617,0.110811 -0.962617,0.110813 -0.548813,0.477932 -0.548812,0.477933 0.09349,0.150043 0.0935,0.150044 -0.395665,0.30869 -0.395665,0.308691 -0.285179,0.596069 -0.28518,0.596068 0.01734,1.009271 0.01734,1.009274 0.302995,0.675059 0.302995,0.675059 0.744936,0.677846 0.744937,0.6778467 0.850111,0.538831 0.850111,0.538831 1.449334,0.720541 1.449334,0.720538 1.448916,0.594006 1.448916,0.5940073 2.360292,0.77024 2.360292,0.770241 1.593856,0.327584 1.593859,0.327585 2.729307,0.34271 2.729308,0.342708 3.059705,0.114835 3.059705,0.114834 0.980763,0.02628 0.980761,0.02628 z m 23.657915,0.291228 5.072663,-0.177743 1.44934,0.0035 1.44933,0.0035 2.40728,0.240351 2.40729,0.240352 2.42383,-0.647933 2.42383,-0.647933 1.52985,-0.491296 1.52985,-0.491296 1.2485,-0.636885 1.2485,-0.6368873 0.77464,-0.840658 0.77463,-0.840658 0.19705,-0.873327 0.19705,-0.873325 -0.11094,-0.6881267 -0.11094,-0.688126 -0.60325,-0.59833 -0.60325,-0.598328 -0.7339,-0.42658 -0.73389,-0.426581 -1.49676,-0.30634 -1.49677,-0.306341 -1.2883,7.99e-4 -1.28829,7.99e-4 -1.61038,0.227283 -1.61037,0.227282 -1.8871,0.404832 -1.88711,0.404831 -2.0583,0.662445 -2.0583,0.662446 -3.124184,1.186857 -3.124181,1.1868567 -0.499154,0.04526 -0.499154,0.04526 -3.140224,1.60742 -3.140223,1.6074213 0.06925,0.215433 0.06926,0.215433 0.333336,1.288538 0.333339,1.288536 1.046741,-0.195539 1.046742,-0.19554 5.072669,-0.177743 z m -22.508464,-2.858925 0.600359,-0.9166953 0.551315,-0.529995 0.551314,-0.529995 -1.063291,-1.381476 -1.063291,-1.3814777 -0.748521,-1.197924 -0.74852,-1.197924 -0.688759,-1.277786 -0.688759,-1.277785 -2.651429,-3.957158 -2.651429,-3.957159 -0.98479,-1.074122 -0.984789,-1.074123 -1.236337,-1.218649 -1.236335,-1.21865 -0.864182,-0.643205 -0.864181,-0.643206 -1.288297,-0.637315 -1.288297,-0.637316 -0.770554,-0.256054 -0.770553,-0.256055 h -1.016952 -1.016952 l -0.653399,0.469458 -0.653398,0.469457 -0.536184,1.080258 -0.536183,1.080255 0.0017,1.285373 0.0017,1.285372 0.498855,1.05487 0.498854,1.054868 0.852275,1.261118 0.852274,1.261117 1.570103,1.763014 1.570103,1.763013 1.422987,1.343022 1.422988,1.343019 0.644148,0.436487 0.644149,0.436485 1.127259,0.802708 1.127259,0.80271 1.368816,0.834149 1.368815,0.83415 1.610371,1.1190397 1.610371,1.119038 1.12726,0.905915 1.127259,0.905915 1.046742,0.7365843 1.046741,0.736584 0.08052,-0.0016 0.08052,-0.0016 0.600361,-0.916694 z m 16.713889,-1.2848503 2.332277,-1.177184 0.885704,-0.480754 0.885704,-0.480753 1.046741,-0.5663937 1.046741,-0.566396 2.012964,-1.300286 2.012967,-1.300288 1.28829,-0.908841 1.2883,-0.908839 0.41238,-0.358236 0.41238,-0.358237 1.8276,-1.597232 1.82761,-1.597232 1.4338,-1.597232 1.43381,-1.597232 0.72034,-1.045385 0.72033,-1.045387 0.23378,-0.871292 0.23378,-0.871293 0.002,-0.525464 0.002,-0.525464 -0.3064,-0.592598 -0.3064,-0.592599 -0.37801,-0.34862 -0.378,-0.348619 -0.80519,-0.35139 -0.80519,-0.351388 -0.96622,0.0033 -0.96622,0.0033 -1.12726,0.396722 -1.12726,0.396723 -0.72467,0.397445 -0.72466,0.397442 -1.09784,0.617027 -1.09784,0.617026 -1.31548,1.042442 -1.315489,1.042441 -1.671958,1.59579 -1.671957,1.59579 -2.195167,2.455942 -2.195167,2.455944 -1.331157,1.698301 -1.331156,1.698303 -1.0341,1.517371 -1.034101,1.51737 -0.562149,0.7820317 -0.562148,0.782032 0.845451,0.621261 0.84545,0.621262 0.391065,0.628519 0.391066,0.6285193 0.08328,-0.03527 0.08328,-0.03527 2.332276,-1.1771843 z m -14.039002,-1.684761 0.768468,-0.386234 0.596773,-0.111042 0.596774,-0.111042 0.06642,-0.106598 0.06642,-0.106598 -0.211359,-1.2728717 -0.211358,-1.272874 -0.191295,-1.517371 -0.191294,-1.51737 -0.303312,-1.99654 -0.303313,-1.99654 -0.181843,-1.756955 -0.181845,-1.756955 -0.239979,-0.798616 -0.239979,-0.798616 -0.295864,-0.638893 -0.295864,-0.638893 -0.585268,-1.916678 -0.585269,-1.916679 -0.647554,-1.99654 -0.647556,-1.99654 -0.776158,-1.597232 -0.776159,-1.597232 -0.738993,-0.994649 -0.738993,-0.99465 -0.915021,-0.602582 -0.915019,-0.602583 h -1.060705 -1.060705 l -0.741637,0.559032 -0.741635,0.559031 -0.374004,0.530509 -0.374005,0.530511 -0.288176,0.827136 -0.288178,0.827138 3.22e-4,1.836817 3.22e-4,1.836817 0.217707,1.197924 0.217706,1.197924 0.734852,2.207598 0.734853,2.2076 0.584308,1.495715 0.584311,1.495715 0.805267,1.159399 0.805269,1.1594 0.313383,0.567875 0.313383,0.567875 0.729539,1.021408 0.72954,1.021407 1.466801,2.572365 1.466804,2.572364 1.221671,1.715293 1.221671,1.7152927 0.04561,0.0017 0.04561,0.0017 0.768466,-0.386235 z m 10.330642,-2.2491977 1.179585,-1.756955 0.645968,-0.868126 0.64597,-0.868126 0.209376,-0.249936 0.209375,-0.249937 0.830446,-1.0382 0.830447,-1.038201 1.061805,-1.197924 1.061803,-1.197924 1.598377,-1.722696 1.598377,-1.722697 0.386697,-0.673151 0.386698,-0.673152 0.739067,-1.517371 0.739069,-1.51737 0.637277,-1.677094 0.637281,-1.677093 0.30717,-1.037693 0.30718,-1.037693 v -1.392095 -1.392093 l -0.33397,-0.885344 -0.33397,-0.885342 -0.579456,-0.438365 -0.579455,-0.438366 h -1.143182 -1.143179 l -1.099674,0.536951 -1.099673,0.53695 -1.138126,1.060282 -1.138127,1.060281 -0.929292,1.238302 -0.929294,1.238304 -1.062514,1.749086 -1.062515,1.749087 -0.171022,0.48659 -0.171021,0.486591 H 7.673355 7.541812 l -0.102724,1.237854 -0.102724,1.237855 -0.414144,1.99654 -0.414145,1.99654 -0.701227,2.555571 -0.701226,2.555572 -0.71384,2.236124 -0.713842,2.236125 -0.262481,1.263177 -0.262479,1.2631787 0.127452,0.123223 0.127455,0.123225 0.798848,0.30939 0.798848,0.309389 0.261118,-0.338144 0.261117,-0.338145 z m -4.024182,1.150922 v -0.325845 l 0.498126,-1.850048 0.498128,-1.850047 0.206157,-0.479169 0.206156,-0.479169 0.494012,-1.677094 0.494012,-1.677094 0.48914,-1.916678 0.489141,-1.916678 0.326905,-1.523447 0.326904,-1.523444 0.156006,-1.990466 0.156007,-1.990464 8.05e-4,-3.114603 8.05e-4,-3.114602 -0.159944,-1.51737 -0.159943,-1.517371 -0.241123,-0.723814 -0.241124,-0.723816 -0.467304,-0.562296 -0.467305,-0.562298 -1.021024,-0.62089 -1.021023,-0.620892 -0.05368,-0.129467 -0.05368,-0.129468 H 2.616772 2.094171 l -0.755893,0.496597 -0.755893,0.496598 -0.541253,0.661395 -0.541252,0.661396 -0.491088,0.972526 -0.491086,0.972526 -0.399766,1.263599 -0.399767,1.263599 -0.16543,0.798616 -0.16543,0.798616 -0.08902,0.718754 -0.08902,0.718754 -0.15791,2.11635 -0.157908,2.11635 0.163478,2.994793 0.163479,2.994792 0.407612,3.114603 0.407614,3.114602 0.310561,2.395848 0.310564,2.395848 0.161241,0.867881 0.16124,0.8678817 8.06e-4,0.01059 8.05e-4,0.01059 1.851063,0.01963 1.851064,0.01963 v -0.3258447 z"
       style="fill:#000000;stroke-width:0.00801894" />
       <animateTransform attributeType="xml" attributeName="transform" type="rotate" from="0" to="360" begin="0" dur="15s" repeatCount="indefinite" />
  </g>
</svg>
