<?xml version="1.0" encoding="UTF-8" standalone="no"?>
<svg
   xmlns:dc="http://purl.org/dc/elements/1.1/"
   xmlns:cc="http://creativecommons.org/ns#"
   xmlns:rdf="http://www.w3.org/1999/02/22-rdf-syntax-ns#"
   xmlns:svg="http://www.w3.org/2000/svg"
   xmlns="http://www.w3.org/2000/svg"
   xmlns:sodipodi="http://sodipodi.sourceforge.net/DTD/sodipodi-0.dtd"
   xmlns:inkscape="http://www.inkscape.org/namespaces/inkscape"
   sodipodi:docname="flower5.svg"
   inkscape:version="1.0 (4035a4fb49, 2020-05-01)"
   id="svg371"
   version="1.1"
   viewBox="0 0 210 297"
   height="297mm"
   width="210mm">
  <defs
     id="defs365" />
  <sodipodi:namedview
     inkscape:window-maximized="0"
     inkscape:window-y="0"
     inkscape:window-x="78"
     inkscape:window-height="860"
     inkscape:window-width="1274"
     showgrid="false"
     inkscape:document-rotation="0"
     inkscape:current-layer="layer1"
     inkscape:document-units="mm"
     inkscape:cy="560"
     inkscape:cx="400"
     inkscape:zoom="0.35"
     inkscape:pageshadow="2"
     inkscape:pageopacity="0.0"
     borderopacity="1.0"
     bordercolor="#666666"
     pagecolor="#ffffff"
     id="base" />
  <metadata
     id="metadata368">
    <rdf:RDF>
      <cc:Work
         rdf:about="">
        <dc:format>image/svg+xml</dc:format>
        <dc:type
           rdf:resource="http://purl.org/dc/dcmitype/StillImage" />
        <dc:title></dc:title>
      </cc:Work>
    </rdf:RDF>
  </metadata>
  <g
     id="layer1"
     inkscape:groupmode="layer"
     inkscape:label="Layer 1">
    <path
       id="path387"
       d="m 89.052463,223.57234 c -7.580451,-1.06272 -15.585009,-4.00702 -16.271552,-5.98512 -0.881096,-2.53865 -1.317025,-34.01821 -0.816977,-58.99623 0.62498,-31.21853 0.0254,-28.73212 7.394072,-30.66183 2.195109,-0.57486 4.102007,-1.22609 4.237547,-1.44717 0.13554,-0.22109 0.0442,-2.05265 -0.20301,-4.07015 l -0.44944,-3.66818 -1.734395,3.23405 c -0.953922,1.77874 -2.327179,3.49819 -3.051686,3.82103 -4.160346,1.85378 -6.681254,-0.83825 -4.861598,-5.19164 0.568939,-1.36114 1.291125,-2.9753 1.604867,-3.58701 0.541837,-1.05644 0.432178,-1.06411 -2.187331,-0.15284 -3.912442,1.36104 -8.233922,1.27387 -8.787104,-0.17723 -0.238302,-0.62513 -0.236927,-1.56262 0.003,-2.08331 0.428601,-0.92991 6.650973,-3.49218 8.544632,-3.51852 0.530925,-0.008 -0.389102,-0.52555 -2.044505,-1.15147 -3.437506,-1.29978 -6.192692,-4.15255 -6.396657,-6.62322 -0.135177,-1.63737 -0.02842,-1.68743 3.560384,-1.66887 2.666916,0.0139 4.36791,0.41526 6.093195,1.4381 l 2.393441,1.41896 -0.495663,-3.11096 c -0.578243,-3.629257 0.555385,-6.521777 2.742658,-6.997997 2.27788,-0.49595 4.106662,1.56818 5.094962,5.750617 l 0.89582,3.79104 1.43408,-2.37717 c 2.20226,-3.650297 5.62143,-6.351027 8.04062,-6.351027 1.14103,0 3.41993,-0.74126 5.06424,-1.64723 l 2.989637,-1.64723 -4.558927,-0.77426 c -5.36,-0.9103 -8.06051,-2.2146 -8.06051,-3.8931 0,-1.71623 2.59156,-3.65408 4.88674,-3.65408 1.79418,0 1.86022,-0.0852 0.82864,-1.06988 -2.21516,-2.114366 -2.87703,-3.747647 -2.0439,-5.043749 1.07434,-1.671331 4.04461,-1.554646 7.968627,0.313049 1.75763,0.83657 3.31892,1.521041 3.46953,1.521041 0.15069,0 0.0761,-0.82369 -0.16585,-1.830427 -0.60511,-2.519011 0.9792,-5.434259 3.2062,-5.899622 2.47494,-0.517182 4.57088,1.344687 5.70682,5.069513 l 0.90043,2.952571 1.58243,-2.582525 c 2.57044,-4.194958 6.93035,-5.744696 8.17579,-2.906096 0.48933,1.115304 -0.448,5.149847 -1.8099,7.790275 -0.51215,0.99296 -0.37139,1.00334 2.07343,0.15284 3.32759,-1.157592 7.84527,-1.171537 9.68909,-0.0299 1.32047,0.81758 1.34292,1.00779 0.30504,2.58454 -1.62608,2.47034 -5.31847,4.30243 -9.7185,4.82209 l -3.84708,0.45435 2.57003,0.87682 c 1.41352,0.48224 3.44772,1.56794 4.52044,2.41264 1.33893,1.05433 2.41284,1.41363 3.42548,1.14604 1.0235,-0.27047 1.80479,10e-4 2.55206,0.89037 1.17798,1.40026 0.71445,4.28714 -1.34839,8.397657 -0.6004,1.19636 -0.9694,2.27696 -0.82002,2.40133 0.14942,0.12432 1.72325,-0.46479 3.49752,-1.30923 3.78758,-1.80264 8.5327,-2.08504 9.24023,-0.54994 0.68384,1.48371 -0.56219,2.7541 -4.79231,4.88606 l -3.79437,1.91236 2.11782,0.73036 c 2.9335,1.01167 6.15426,3.95211 5.82623,5.31914 -0.42076,1.75353 -6.87459,1.54054 -10.03152,-0.33106 -1.32026,-0.78272 -2.53948,-1.30739 -2.70937,-1.16594 -0.16989,0.14144 0.006,1.86965 0.39159,3.84048 0.9949,5.08956 -0.12324,8.26297 -2.91142,8.26297 -2.54949,0 -3.89845,-2.2187 -4.2686,-7.02074 l -0.3532,-4.58229 -2.09703,2.75308 c -2.16142,2.8376 -5.0538,7.34744 -5.0538,7.87993 0,0.16578 1.46343,0.8404 3.25204,1.49913 2.68268,0.98801 3.38629,1.60255 4.01891,3.51012 0.86878,2.61973 1.06943,80.24377 0.21789,84.30271 -0.47561,2.26713 -0.86107,2.59069 -5.28595,4.43729 -7.85184,3.27677 -19.744757,4.55869 -29.545537,3.18468 z m 19.385777,-2.18419 c 6.04414,-1.14458 11.01182,-2.86056 12.44922,-4.30035 0.75737,-0.75862 1.07633,-3.77323 1.25707,-11.88105 0.23026,-10.32817 0.17011,-10.89663 -1.2185,-11.51538 -0.94705,-0.42199 -2.65091,-0.46575 -4.84523,-0.12446 -3.26384,0.50767 -4.65563,0.10063 -3.7638,-1.10085 0.22788,-0.307 1.71532,-0.74117 3.30541,-0.96484 1.59008,-0.22366 3.27643,-0.79327 3.74743,-1.26579 0.68829,-0.69048 0.46685,-0.98243 -1.12816,-1.48732 -1.66923,-0.52839 -14.17323,-2.43865 -16.01352,-2.44642 -0.32037,-0.001 -0.48559,0.94714 -0.36714,2.10776 0.28673,2.80977 -0.90552,3.01085 -1.987537,0.33523 -0.72403,-1.79036 -1.21434,-2.13977 -3.0027,-2.13977 -1.87465,0 -2.16565,0.24422 -2.36746,1.98694 -0.15132,1.30664 -0.6206,1.98693 -1.37066,1.98693 -0.74999,0 -1.01839,-0.38899 -0.78378,-1.1359 0.19621,-0.62474 0.053,-1.58764 -0.318,-2.13977 -1.30992,-1.94883 -5.00756,-0.79406 -5.00756,1.56385 0,0.60524 -0.53147,1.10045 -1.18105,1.10045 -0.90286,0 -1.06905,-0.37149 -0.7056,-1.57719 0.40696,-1.35 0.27459,-1.52411 -0.919,-1.20869 -0.76694,0.20265 -2.819942,0.71211 -4.562218,1.13209 -3.876763,0.93451 -4.401997,1.90851 -1.664699,3.08704 3.849197,1.65726 10.886237,2.39222 20.384177,2.12896 7.207367,-0.19978 9.208647,-0.0832 9.208647,0.53673 0,0.43558 -0.33044,0.79196 -0.7343,0.79196 -0.40386,0 -0.7343,0.49758 -0.7343,1.10572 0,1.27558 3.37108,9.14534 6.18517,14.4393 1.36224,2.56267 1.69722,3.81402 1.14422,4.27443 -1.06288,0.88494 -1.59941,0.0925 -5.14051,-7.59218 -1.6269,-3.53063 -3.53477,-7.64781 -4.23969,-9.1493 l -1.28168,-2.72997 -3.655217,0.18715 c -2.01037,0.10296 -3.89897,0.50607 -4.19688,0.89588 -0.2979,0.3898 -0.54671,5.04178 -0.55287,10.33772 -0.006,5.88069 -0.29165,9.62896 -0.73156,9.62896 -1.1617,0 -1.48243,-2.22064 -1.67144,-11.57268 l -0.17829,-8.82153 -1.98013,-0.44016 c -3.86283,-0.85863 -4.95611,1.25357 -6.11637,11.81676 -0.28624,2.60593 -0.81204,4.73806 -1.16846,4.73806 -0.35641,0 -0.678661,-0.34389 -0.716117,-0.76419 -0.134673,-1.51137 0.09266,-6.35979 0.530347,-11.31116 l 0.44594,-5.0447 -2.633394,-0.9161 c -1.448366,-0.50385 -3.304878,-0.91609 -4.12557,-0.91609 -1.446744,0 -1.489943,0.33041 -1.418981,10.85169 0.04024,5.96842 0.299768,11.52815 0.576693,12.35493 0.587686,1.75461 5.066151,3.84029 11.098832,5.16889 5.42968,1.19579 15.801897,1.19035 22.149217,-0.0117 z m -26.200407,-35.3918 3.6589,-0.70185 3.47077,-9.96271 3.47077,-9.96273 -3.64177,-12.24366 c -2.00297,-6.73401 -3.64177,-12.74445 -3.64177,-13.35654 0,-1.4158 -1.65217,-2.14337 -6.139121,-2.70353 -2.690135,-0.33584 -3.727157,-0.23779 -4.210955,0.39819 -0.746837,0.98174 -0.908213,49.04028 -0.166744,49.65762 0.273679,0.22787 1.18237,0.22591 2.019312,-0.004 0.836934,-0.23023 3.168211,-0.73445 5.180608,-1.12047 z m 38.869677,-0.46129 c 0.18405,-0.75657 0.52716,-12.34481 0.7625,-25.75164 l 0.42788,-24.37608 -1.66636,0.41382 c -0.91652,0.22758 -3.53265,0.73134 -5.81366,1.11946 l -4.14728,0.70566 -5.93594,9.83147 c -6.634817,10.98902 -8.923997,15.95613 -8.849017,19.20077 0.0279,1.20829 1.10183,5.63581 2.38647,9.83893 l 2.335677,7.64204 5.87436,0.69614 c 3.23089,0.38287 7.36131,0.97242 9.17869,1.31009 4.84622,0.90044 5.08085,0.87328 5.44668,-0.63066 z m -28.668767,-2.36904 c 0.71135,-2.96132 0.55866,-9.42555 -0.20689,-8.75776 -0.68874,0.60079 -3.73994,8.7347 -3.73994,9.96998 0,0.38406 0.78477,0.69829 1.74395,0.69829 1.36579,0 1.84347,-0.41427 2.20288,-1.91051 z m 5.58222,0.46953 c -0.009,-0.38432 -0.64025,-2.62458 -1.40229,-4.97833 l -1.38555,-4.27954 -0.151,3.66818 c -0.083,2.0175 -0.20071,4.08085 -0.26146,4.58522 -0.0607,0.50438 0.16674,1.24458 0.50553,1.64491 0.72131,0.85229 2.71918,0.37748 2.69474,-0.64044 z m -2.32247,-35.24079 c 0.80717,-5.54812 1.41588,-10.12329 1.35271,-10.16702 -0.0633,-0.0438 -2.21917,-0.20122 -4.79107,-0.34993 l -4.67619,-0.27039 0.40639,2.85686 c 0.65979,4.63819 5.08362,19.03504 5.68626,18.50526 0.30488,-0.26801 1.21473,-5.02667 2.0219,-10.57478 z m 7.005857,-1.34739 c 3.07053,-4.94419 5.34187,-9.10907 5.04744,-9.25527 -0.29445,-0.14621 -2.2745,-0.12355 -4.4001,0.0504 -4.433477,0.36275 -3.949897,-0.47185 -5.647087,9.74642 -1.14266,6.87963 -1.36907,9.17282 -0.85924,8.70263 0.15195,-0.1401 2.78846,-4.29998 5.858987,-9.24417 z M 97.157123,136.0086 c 0.4223,-0.42363 1.00109,-2.48698 1.28621,-4.58522 l 0.5184,-3.81496 -2.4813,0.005 c -1.36473,0.003 -4.21608,0.1788 -6.33636,0.39084 l -3.85505,0.38552 v 2.3205 c 0,1.27627 0.31549,3.01138 0.70109,3.85579 0.60516,1.3252 1.23319,1.56616 4.58935,1.7608 2.13853,0.12407 4.09561,0.27639 4.34907,0.33858 0.25344,0.0622 0.80632,-0.23351 1.22859,-0.65716 z m 13.734557,-3.26936 c 1.00155,-1.88553 1.66874,-3.63338 1.48263,-3.88409 -0.18609,-0.25071 -2.78713,-0.50979 -5.78006,-0.57575 l -5.44172,-0.11993 -0.49777,2.93414 c -0.27378,1.61376 -0.666437,3.41557 -0.872587,4.004 -0.33006,0.94217 0.20203,1.06989 4.456857,1.06989 h 4.83166 z m -26.391667,-0.38167 c -0.2803,-1.75921 -0.60888,-3.28121 -0.73019,-3.38221 -0.12131,-0.10102 -1.83181,0.31445 -3.80111,0.92323 -5.289921,1.63528 -5.371729,4.02585 -0.172803,5.04923 5.163453,1.0164 5.269443,0.95803 4.704103,-2.59025 z m 33.876037,1.64718 c 2.72941,-1.48898 1.99142,-3.25633 -1.75918,-4.21285 -1.66775,-0.42533 -2.92106,0.89514 -4.25128,4.47907 -0.51585,1.38976 -0.4177,1.44491 1.88789,1.061 1.3376,-0.22274 3.19277,-0.81999 4.12257,-1.32722 z m -19.134097,-8.41787 c 0.12307,-0.10244 0.915937,-3.19718 1.762017,-6.87722 0.8461,-3.68005 2.48424,-9.64847 3.64034,-13.26314 1.15609,-3.61468 1.93788,-6.572147 1.73733,-6.572147 -0.20055,0 -1.54238,0.7479 -2.98182,1.662017 -1.57915,1.00282 -3.926777,1.7909 -5.919007,1.98692 -2.61603,0.25743 -3.68298,0.73738 -5.13703,2.31078 l -1.83522,1.98585 3.34538,-0.38176 c 4.80984,-0.54889 7.120977,0.0642 7.120977,1.88929 0,1.95879 -2.318477,3.23118 -7.516377,4.12506 -4.17635,0.71819 -5.24491,1.42077 -3.16939,2.08389 0.58461,0.18677 1.85396,1.20981 2.82076,2.27342 5.32028,5.85299 0.82906,9.28152 -5.53587,4.22599 l -2.01931,-1.60388 v 3.56842 3.56842 l 6.73176,-0.39784 c 3.70249,-0.21881 6.83243,-0.48165 6.95546,-0.58407 z m 17.520317,-3.48072 c 2.70024,-4.46429 2.66306,-4.80472 -0.36716,-3.3625 -2.25447,1.07302 -6.73737,1.17669 -7.93037,0.1834 -0.48463,-0.40349 -0.88116,-1.2271 -0.88116,-1.83025 0,-1.3257 5.12526,-4.53832 8.11135,-5.08438 4.01975,-0.73508 3.50082,-2.25489 -1.70401,-4.99047 -1.5361,-0.80736 -3.12032,-2.21429 -3.52047,-3.12652 -0.40017,-0.91222 -0.9052,-2.07125 -1.1223,-2.57562 -0.35089,-0.81515 -0.46275,-0.81515 -1.00684,0 -1.06759,1.59949 -6.60701,23.49767 -6.05712,23.94475 0.5314,0.43206 4.09973,0.82941 9.14521,1.01836 2.69532,0.10088 2.79063,0.0263 5.33287,-4.17677 z m 12.4354,-0.3651 c -0.0516,-4.57519 -1.33852,-7.59014 -2.7413,-6.42221 -1.05762,0.88056 -0.88322,7.01748 0.26499,9.32545 1.46868,2.9521 2.52836,1.70974 2.47631,-2.90324 z m -50.851515,0.94317 c 1.615178,-2.75311 2.478004,-6.69171 1.46594,-6.69171 -1.466601,0 -4.001226,3.7984 -4.374497,6.55563 -0.456475,3.37183 0.971032,3.43862 2.908557,0.13608 z m 15.138598,-1.92869 c 0.31217,-1.3394 -4.48561,-5.37437 -6.3904,-5.37437 -1.41203,0 -1.49573,0.15495 -0.74305,1.37556 1.25346,2.03269 5.26882,5.39825 6.14935,5.15421 0.4203,-0.11643 0.86314,-0.63641 0.9841,-1.1554 z m 23.822247,-4.1522 c 1.17464,-0.59474 2.62524,-1.66326 3.22358,-2.37449 1.0136,-1.20483 0.97221,-1.29273 -0.60593,-1.28716 -1.96443,0.006 -8.98727,2.60633 -9.7244,3.59936 -1.59636,2.15054 2.90451,2.18999 7.10675,0.0623 z m 24.78845,0.1071 c 0,-1.63299 -5.79137,-4.3861 -9.2265,-4.3861 -2.11822,0 -2.27673,0.6649 -0.48107,2.01791 2.71567,2.0462 9.70757,3.75189 9.70757,2.36819 z m -68.445589,-1.79966 c 3.763373,-1.62605 4.063163,-2.87747 0.576487,-2.40639 -3.444959,0.46545 -7.952943,2.31149 -8.372571,3.42858 -0.432082,1.15029 4.162256,0.54788 7.796084,-1.02219 z m 10.803422,-3.19781 c 0,-1.12047 -0.44185,-1.58065 -1.65544,-1.72413 -1.804246,-0.21331 -2.828992,1.09777 -2.097875,2.68406 0.265374,0.57577 1.1049,0.88159 2.097875,0.76421 1.21359,-0.14349 1.65544,-0.60368 1.65544,-1.72414 z m 43.323407,-0.91704 c 0,-0.66329 -0.53667,-1.29203 -1.19262,-1.39721 -1.27264,-0.20405 -2.40761,1.42102 -1.67847,2.40328 0.74823,1.00797 2.87109,0.26409 2.87109,-1.00607 z m -32.439787,-0.66884 c 3.33333,-0.94562 4.14998,-1.64231 2.7622,-2.3564 -0.86242,-0.44378 -8.21774,0.83542 -9.41554,1.63751 -0.50037,0.33507 -0.7287,0.85317 -0.50738,1.15132 0.60742,0.81829 3.33198,0.65375 7.16072,-0.43243 z m -18.593714,-1.10192 c 0,-1.85452 -9.048755,-7.14105 -10.357695,-6.05125 -0.90081,0.75001 1.139972,2.98414 4.671483,5.11407 3.176097,1.91558 5.686212,2.32928 5.686212,0.93718 z m 45.526301,-1.40994 c 0,-1.11394 -2.78179,-4.46134 -3.7075,-4.46134 -0.36866,0 -0.88223,0.70301 -1.14125,1.56226 -0.34449,1.14276 -0.0316,1.9517 1.16563,3.01265 1.70773,1.51346 3.68312,1.45255 3.68312,-0.11358 z m 16.37787,-0.16833 c 3.9756,-2.09916 4.55494,-3.40744 1.26641,-2.85983 -2.57368,0.42856 -8.09845,3.20973 -8.09845,4.07676 0,1.18618 3.44185,0.57312 6.83204,-1.21693 z m -48.836917,-2.46205 c 3.86594,-3.87647 5.77569,-8.555957 3.49175,-8.555957 -1.32313,0 -4.54147,3.45771 -6.71795,7.217597 -2.60456,4.4994 -0.71007,5.28531 3.2262,1.33836 z m -8.280362,-2.23864 c -0.73343,-5.702117 -2.432309,-8.510097 -3.606887,-5.961627 -1.385439,3.00595 0.997217,10.037477 3.401217,10.037477 0.463143,0 0.538312,-1.48972 0.20567,-4.07585 z m 48.353399,0.62296 c 1.6197,-2.82793 2.43122,-7.551627 1.29735,-7.551627 -0.45875,0 -0.8341,0.54388 -0.8341,1.20863 0,0.66475 -0.82609,1.65928 -1.83574,2.21008 -1.54076,0.840527 -1.83575,1.478257 -1.83575,3.968767 0,3.51643 1.25152,3.58047 3.20824,0.16415 z m -14.10474,-2.23897 c -0.005,-2.982007 -0.95083,-5.335077 -2.60277,-6.476527 -1.65439,-1.14317 -2.17513,0.26952 -1.77919,4.82683 0.35446,4.080027 2.48378,7.041877 3.72982,5.188097 0.36113,-0.53726 0.6546,-2.12955 0.65214,-3.5384 z m 9.02639,1.04418 c 0.27293,-1.21124 0.39231,-2.259707 0.26531,-2.329937 -1.07192,-0.59277 -6.46089,-1.99865 -6.74725,-1.76022 -1.12983,0.94066 3.55063,6.276637 5.51673,6.289347 0.25796,0.001 0.6923,-0.98796 0.96521,-2.19919 z m -23.74509,-2.432087 c 6.39479,-3.68967 8.45577,-9.29036 2.43919,-6.62842 -2.98511,1.32071 -7.664377,5.33635 -7.664377,6.57739 0,2.078327 1.68304,2.094777 5.225187,0.051 z m 26.60742,-2.37979 c 0.88468,-1.91949 -5.81654,-6.43587 -9.54933,-6.43587 -1.87688,0 -1.96388,1.84648 -0.16374,3.47494 3.74439,3.38729 8.80547,4.93011 9.71307,2.96093 z m -14.23682,-7.00477 c 1.02473,-1.59416 -1.04879,-3.5202 -2.62053,-2.43415 -1.07385,0.742 -1.36865,2.51202 -0.53412,3.20684 0.92266,0.76819 2.39618,0.40728 3.15465,-0.77269 z m -8.04994,-1.45764 c 0,-1.18668 -4.93258,-2.93487 -9.352477,-3.31468 -4.20427,-0.36127 -5.16635,0.53955 -2.57983,2.41556 1.87057,1.35672 3.00846,1.60093 7.710107,1.65468 3.02859,0.0346 4.2222,-0.17898 4.2222,-0.75556 z m 21.79746,-1.68236 c 2.59886,-0.81983 5.37146,-2.94897 5.37146,-4.12486 0,-1.508793 -7.15423,-0.45698 -10.58448,1.55612 -4.13426,2.42629 -4.17664,3.22083 -0.1718,3.22083 1.82475,0 4.24792,-0.29344 5.38482,-0.65209 z m -20.32888,-1.80702 c 0,-2.11894 -10.763657,-8.957997 -12.207107,-7.756198 -0.80784,0.672592 2.61003,4.517918 5.411677,6.088488 3.96884,2.22489 6.79543,2.91857 6.79543,1.66771 z m 11.42158,-2.37246 c 2.31543,-2.91311 4.26862,-8.0268 3.35605,-8.786596 -0.8883,-0.739591 -4.18777,2.951758 -5.58453,6.247817 -2.18852,5.164439 -0.96573,6.557479 2.22848,2.538779 z m -6.81453,-1.95892 c -0.21997,-4.372583 -2.1864,-8.79377 -3.50575,-7.882124 -2.2532,1.556934 -1.82263,6.819093 0.84102,10.278194 1.75413,2.27797 2.85029,1.29233 2.66473,-2.39607 z"
       style="fill:#000000;stroke-width:0.670015" />
  </g>
</svg>
