<?xml version="1.0" encoding="UTF-8" standalone="no"?>
<svg
   xmlns:dc="http://purl.org/dc/elements/1.1/"
   xmlns:cc="http://creativecommons.org/ns#"
   xmlns:rdf="http://www.w3.org/1999/02/22-rdf-syntax-ns#"
   xmlns:svg="http://www.w3.org/2000/svg"
   xmlns="http://www.w3.org/2000/svg"
   xmlns:sodipodi="http://sodipodi.sourceforge.net/DTD/sodipodi-0.dtd"
   xmlns:inkscape="http://www.inkscape.org/namespaces/inkscape"
   sodipodi:docname="flower3.svg"
   inkscape:version="1.0 (4035a4fb49, 2020-05-01)"
   id="svg311"
   version="1.1"
   viewBox="0 0 210 297"
   height="297mm"
   width="210mm">
  <defs
     id="defs305" />
  <sodipodi:namedview
     inkscape:window-maximized="0"
     inkscape:window-y="0"
     inkscape:window-x="156"
     inkscape:window-height="860"
     inkscape:window-width="1274"
     showgrid="false"
     inkscape:document-rotation="0"
     inkscape:current-layer="layer1"
     inkscape:document-units="mm"
     inkscape:cy="560"
     inkscape:cx="400"
     inkscape:zoom="0.35"
     inkscape:pageshadow="2"
     inkscape:pageopacity="0.0"
     borderopacity="1.0"
     bordercolor="#666666"
     pagecolor="#ffffff"
     id="base" />
  <metadata
     id="metadata308">
    <rdf:RDF>
      <cc:Work
         rdf:about="">
        <dc:format>image/svg+xml</dc:format>
        <dc:type
           rdf:resource="http://purl.org/dc/dcmitype/StillImage" />
        <dc:title></dc:title>
      </cc:Work>
    </rdf:RDF>
  </metadata>
  <g
     id="layer1"
     inkscape:groupmode="layer"
     inkscape:label="Layer 1">
    <path
       id="path327"
       d="m 119.80041,257.36941 c -3.38708,-5.42401 -4.26195,-7.13788 -4.26568,-8.35651 -0.002,-0.59474 -0.23159,-1.30685 -0.51058,-1.58246 -1.04111,-1.02847 -2.91208,-14.2672 -2.53089,-17.90817 l 0.27612,-2.63744 -0.70983,2.37369 c -0.92787,3.10284 -0.77242,22.15967 0.20093,24.63205 0.46087,1.17066 0.49774,1.97723 0.12055,2.63744 -0.48657,0.85166 -0.60996,0.78566 -1.18056,-0.6314 -0.59662,-1.48171 -0.94621,-23.2868 -0.43975,-27.42932 0.1582,-1.29397 -0.003,-1.58246 -0.88352,-1.58246 -1.00233,0 -1.11881,0.54858 -1.68008,7.9123 -0.75213,9.86782 -1.83277,18.30748 -2.42697,18.95436 -0.88793,0.96667 -1.05085,-0.15253 -0.50397,-3.46219 0.71644,-4.3358 2.18779,-18.27276 2.18779,-20.72328 0,-1.03948 -0.24233,-1.88996 -0.5385,-1.88996 -0.29617,0 -0.5385,0.60343 -0.5385,1.34096 0,4.11328 -3.31349,16.4004 -5.25719,19.49477 -3.099872,4.93499 -5.203405,7.64856 -5.929099,7.64856 -0.535454,0 -0.649335,-0.28603 -0.36754,-0.9231 0.568238,-1.28467 0.876564,-7.92652 0.381697,-8.22226 -0.223045,-0.13329 -1.253662,0.19134 -2.290267,0.72142 -4.068344,2.08035 -5.684285,2.66226 -6.978841,2.51313 -1.245816,-0.14353 -1.037784,-0.45501 2.745932,-4.11144 2.25163,-2.17588 5.486679,-5.61773 7.188989,-7.64856 1.702316,-2.03082 3.369279,-3.93248 3.704369,-4.22591 0.95029,-0.83214 3.03248,-3.85255 3.03248,-4.39889 0,-0.27031 -1.51452,0.30811 -3.365599,1.28538 -6.308806,3.3307 -11.712292,1.87441 -11.712292,-3.15657 0,-0.66843 0.605808,-2.33141 1.34624,-3.6955 1.624923,-2.99358 1.673296,-4.24054 0.281074,-7.24599 -2.183737,-4.71413 -0.882025,-9.01486 2.941196,-9.71744 3.628123,-0.66673 10.345081,2.57798 12.140831,5.86477 0.38749,0.70923 0.9059,1.2895 1.15203,1.2895 0.77197,0 0.49115,-1.54009 -0.70115,-3.84529 -2.84242,-5.49553 -6.264219,-8.16193 -17.698717,-13.79149 -9.835412,-4.84228 -14.102726,-7.52691 -18.379618,-11.5629 -5.814199,-5.48671 -12.105239,-12.68177 -10.362617,-11.85172 4.731186,2.25356 8.306429,3.67899 15.010582,5.9846 9.370572,3.22263 12.712995,4.59331 14.870502,6.09818 2.165961,1.51077 1.94137,0.52865 -0.37824,-1.654 -1.062523,-0.9998 -3.173891,-3.36071 -4.691922,-5.24648 -1.518031,-1.88576 -4.095179,-4.93941 -5.726995,-6.78588 l -2.966938,-3.35721 -1.360948,1.57525 c -1.854432,2.14645 -3.194536,2.43703 -7.645586,1.65784 -2.961556,-0.51843 -4.305625,-1.07023 -6.03265,-2.47668 -2.886046,-2.35032 -3.147694,-2.8598 -2.936989,-5.71896 l 0.176384,-2.39343 -2.423233,-0.79412 c -3.490473,-1.14386 -6.461955,-4.10172 -6.461955,-6.43233 0,-1.00622 0.371312,-2.2314 0.825138,-2.72262 0.758189,-0.82066 0.580123,-1.01455 -2.194677,-2.38977 -8.559406,-4.24213 -5.544128,-10.22917 3.829332,-7.6034 1.905016,0.53364 3.463666,0.78228 3.463666,0.55254 0,-0.32304 -2.571143,-3.77313 -3.489786,-4.68278 -0.091,-0.0901 -0.814175,0.47161 -1.607049,1.24827 -1.261492,1.23571 -1.719863,1.36853 -3.669087,1.06321 -3.323127,-0.52053 -6.332902,-2.02259 -8.652136,-4.31794 -3.867623,-3.8278 -4.508795,-6.95742 -1.683702,-8.2183 1.439387,-0.64242 1.674814,-1.20968 0.737544,-1.7771 -1.35536,-0.82053 -3.165164,-5.79842 -3.170372,-8.72014 -0.0084,-4.69821 2.524241,-6.06738 6.011506,-3.24992 2.388313,1.92959 2.924743,2.59028 4.517204,5.56359 l 1.353587,2.52731 1.543672,-1.07672 c 0.849019,-0.59219 1.92089,-1.07671 2.381935,-1.07671 1.687943,0 5.86657,5.55828 6.839541,9.09775 0.491092,1.78648 0.660779,1.93368 1.638335,1.4212 2.479501,-1.29986 6.192587,3.70414 6.771011,9.12506 0.230906,2.16402 0.500164,2.92621 0.896568,2.53791 1.044483,-1.02313 4.385884,-0.64554 5.591749,0.63188 1.232713,1.30586 2.836846,6.06351 2.836846,8.4137 0,1.33432 0.146541,1.46075 1.350164,1.16484 3.295595,-0.81024 6.226231,3.54029 6.608892,9.81088 0.264896,4.34079 -0.762404,7.90802 -2.277368,7.90802 -0.459372,0 -0.835222,0.13526 -0.835222,0.30057 0,0.58256 3.178457,4.75282 6.404505,8.40296 1.79487,2.03083 3.571934,4.05928 3.949032,4.50767 0.377098,0.4484 1.813591,2.12137 3.192195,3.71773 3.219512,3.72801 9.463117,13.7366 13.686197,21.93917 l 3.30928,6.42767 -0.2037,-6.10791 c -0.22548,-6.76068 -1.63706,-16.23752 -3.70081,-24.84582 -1.40459,-5.85883 -2.2397,-8.05734 -4.245661,-11.17712 -3.52176,-5.47723 -5.596989,-8.44216 -7.568607,-10.81348 -4.783166,-5.75284 -8.522443,-11.16968 -10.845726,-15.71148 -0.773851,-1.51281 -1.708898,-3.10661 -2.077882,-3.54179 -0.368985,-0.43517 -1.390451,-2.09676 -2.269926,-3.6924 -0.879474,-1.59565 -2.223835,-3.87055 -2.987468,-5.05534 -0.763632,-1.18479 -2.289659,-4.03322 -3.391171,-6.32984 -1.101511,-2.29663 -2.302963,-4.53174 -2.669892,-4.96691 -1.117915,-1.32585 -1.495481,-3.69241 -0.589093,-3.69241 0.429944,0 0.933353,0.468 1.118688,1.04 0.185335,0.572 2.292111,2.76766 4.681725,4.87925 5.704086,5.04043 12.587132,13.24252 18.42302,21.95354 2.59294,3.87038 4.816649,6.93694 4.941575,6.81457 0.381034,-0.37324 -3.502358,-13.77419 -4.500725,-15.53129 -0.36006,-0.63369 -0.654655,-1.54032 -0.654655,-2.01474 0,-0.97488 -3.137613,-8.69683 -3.846424,-9.4664 -0.288031,-0.31272 -0.704472,-0.26315 -1.107741,0.13187 -0.968749,0.94895 -3.966169,0.76382 -6.589935,-0.407 -2.309345,-1.03052 -6.695263,-5.04138 -7.400043,-6.76723 -0.769126,-1.88343 -0.454349,-4.84009 0.628187,-5.9005 1.067545,-1.04572 1.064845,-1.053 -1.222819,-3.29679 -4.355931,-4.2724 -5.329807,-8.30777 -2.556597,-10.59357 l 1.59846,-1.317515 -1.917801,-2.026166 c -3.310403,-3.497459 -3.927763,-7.20472 -1.558031,-9.356012 l 1.336577,-1.213372 -2.06129,-1.794489 c -1.13371,-0.986969 -2.739091,-2.994206 -3.567515,-4.460527 -1.297823,-2.297167 -1.453546,-3.010131 -1.125496,-5.152996 0.495321,-3.235509 2.180514,-4.511596 4.640087,-3.513637 2.043548,0.829159 2.243629,0.62449 1.585835,-1.622209 -0.991313,-3.38584 -0.336644,-9.395309 1.24642,-11.441384 0.927667,-1.198989 2.93859,-0.740291 4.167805,0.950689 1.398645,1.924058 2.969933,5.981357 3.494673,9.023762 0.299616,1.737159 0.486263,2.016982 0.882612,1.323224 0.286641,-0.501727 1.164803,-0.879811 2.043505,-0.879811 3.241562,0 5.965054,5.557645 4.911981,10.023549 -0.514307,2.181094 -0.462751,2.43619 0.6394,3.163621 3.756468,2.479305 4.31189,4.333456 3.345036,11.166684 -0.323803,2.288464 -0.26046,2.475511 0.893117,2.637434 1.623986,0.227948 3.673454,3.768708 3.685124,6.366595 0.0048,1.08483 -0.475665,3.22115 -1.067865,4.74738 -0.592195,1.52623 -1.076842,2.83431 -1.076993,2.90683 -1.45e-4,0.0725 0.810308,0.13188 1.801006,0.13188 2.92712,0 3.797588,1.4232 3.701219,6.05144 -0.121318,5.82618 -2.67778,10.45004 -6.04099,10.92629 -1.568349,0.22209 -1.614724,-0.17029 0.736469,6.23169 3.576955,9.73956 6.802478,20.8586 6.802478,23.44952 0,0.48421 0.334977,1.99315 0.74439,3.35319 0.409413,1.36004 1.167987,4.37175 1.685717,6.6927 1.27327,5.70798 2.38054,9.67417 3.28157,11.75447 0.41265,0.95273 0.75027,2.45189 0.75027,3.33147 0,0.87959 0.226,2.01288 0.50221,2.51844 0.27622,0.50556 0.62035,1.85483 0.76475,2.99837 0.14439,1.14355 0.6273,3.50339 1.07313,5.2441 0.44584,1.7407 0.96777,5.19697 1.15985,7.68059 0.62272,8.05175 1.32437,6.60198 1.4196,-2.93321 0.0493,-4.932 0.16459,-10.98491 0.25631,-13.45091 0.0917,-2.466 -0.0439,-4.95838 -0.30132,-5.53861 -0.25744,-0.58024 -1.36169,-3.90341 -2.45389,-7.38482 -1.0922,-3.48141 -2.30667,-7.04195 -2.69883,-7.9123 -0.92474,-2.05234 -4.42057,-12.72009 -4.840021,-14.76963 -1.538365,-7.51671 -1.84534,-10.40422 -1.850601,-17.40706 -0.0054,-7.20752 0.432514,-11.44397 1.267523,-12.2619 0.549201,-0.53798 0.803878,0.0872 1.660509,4.07624 0.45911,2.1379 1.0418,4.14216 1.29486,4.45391 0.25308,0.31175 0.6435,1.16025 0.86761,1.88554 0.22411,0.7253 1.47019,3.53865 2.76906,6.25191 1.29887,2.71325 2.86717,6.46615 3.48511,8.33978 0.61794,1.87364 1.19797,3.33292 1.28897,3.24287 0.15219,-0.15064 0.43056,-24.49095 0.31104,-27.19745 -0.0369,-0.83691 -0.38514,-1.18684 -1.1809,-1.18684 -3.49477,0 -10.718421,-8.23742 -10.718421,-12.22263 0,-3.21713 2.325071,-4.9238 4.881861,-3.58342 1.49066,0.78146 1.29559,0.20249 -0.77608,-2.303474 -4.600406,-5.56479 -4.740286,-10.2185 -0.33564,-11.16614 2.00777,-0.431965 2.01244,-0.748045 0.0384,-2.600621 -3.740374,-3.51024 -4.8084,-10.472562 -1.71724,-11.194462 2.30344,-0.537938 2.31463,-0.679741 0.24854,-3.149585 -1.367199,-1.634377 -2.100362,-3.135984 -2.365141,-4.844099 -0.550989,-3.55451 0.02752,-4.630337 2.716311,-5.051504 1.23014,-0.192687 2.14904,-0.5227 2.04198,-0.733363 -3.89653,-7.667675 -4.414988,-9.900319 -2.81773,-12.134107 1.01068,-1.413445 2.9713,-1.516545 4.93022,-0.259256 1.41954,0.911103 1.42178,0.910244 1.03287,-0.395615 -0.21436,-0.719786 -0.53136,-2.653299 -0.70445,-4.296697 -0.53063,-5.038172 2.24081,-10.614146 4.79784,-9.652982 0.76203,0.28644 3.80176,5.152253 3.60854,5.776332 -0.2305,0.744585 0.70825,7.128389 1.04827,7.128389 0.21337,0 0.65549,-0.262079 0.98249,-0.582398 0.9874,-0.96721 4.78007,-0.067 5.378,1.27649 0.84782,1.904955 0.41204,5.278886 -1.09957,8.513169 -1.67078,3.574863 -1.68665,3.66304 -0.58475,3.248847 1.30042,-0.488817 3.83847,1.065798 4.22911,2.590434 0.49793,1.943338 -0.13615,4.885861 -1.63124,7.569956 -1.56276,2.805579 -1.57776,3.068473 -0.1996,3.496942 0.59737,0.185724 1.41585,1.110655 1.81883,2.055403 1.00062,2.345862 0.1388,7.343762 -1.67487,9.712978 -0.73638,0.961936 -1.25381,1.792728 -1.14986,1.846204 0.10395,0.05348 0.67365,0.350953 1.266,0.661063 0.59234,0.310109 1.52829,1.452524 2.07987,2.538699 0.88416,1.74107 0.92297,2.254462 0.32783,4.336616 -0.37128,1.298963 -1.36768,3.215491 -2.21423,4.258955 l -1.53917,1.897206 1.35688,1.32913 c 1.80649,1.76955 2.11503,3.25394 1.33685,6.43146 -1.15753,4.72648 -7.18244,10.00743 -10.48961,9.19436 l -1.22054,-0.30007 -0.0635,9.66678 c -0.0349,5.31674 -0.22212,11.30413 -0.41595,13.30533 -0.43687,4.51047 0.2352,4.32557 2.21188,-0.60856 0.78385,-1.95661 2.7365,-6.04984 4.33924,-9.09608 4.74903,-9.02627 6.32494,-12.99426 6.86916,-17.29588 0.30654,-2.423 1.25466,-3.9902 2.10319,-3.4765 0.47381,0.28684 0.4105,0.82285 -0.49097,4.15655 -0.1569,0.58023 -0.4731,5.09024 -0.70266,10.02224 -0.42983,9.23478 -1.22291,16.64435 -2.10309,19.64889 -0.27622,0.94288 -0.41241,1.71433 -0.30264,1.71433 0.19094,0 -2.05498,6.79364 -2.79012,8.43979 -0.19435,0.43517 -0.39157,0.90991 -0.43828,1.05497 -0.0467,0.14506 -0.39635,0.97585 -0.77697,1.8462 -0.38061,0.87036 -1.30955,3.00668 -2.0643,4.74739 -0.75475,1.7407 -1.92037,4.35176 -2.59026,5.80235 -0.66989,1.45059 -1.82492,4.4177 -2.56673,6.59358 -1.30832,3.83754 -1.3558,4.48595 -1.58393,21.62696 -0.12936,9.71895 -0.42035,18.09559 -0.64667,18.61477 -0.35614,0.81702 -0.15274,0.9269 1.51248,0.81705 1.77548,-0.11713 1.9835,-0.3121 2.69559,-2.52643 0.4244,-1.31973 1.16843,-4.17977 1.65339,-6.35565 0.48496,-2.17588 1.23169,-5.49905 1.6594,-7.38482 0.42772,-1.88576 1.15954,-5.20893 1.62628,-7.38481 0.9215,-4.29597 1.57238,-6.71099 3.76738,-13.9784 0.78863,-2.61106 1.62236,-5.57817 1.85273,-6.59359 0.23037,-1.01541 0.67305,-2.43962 0.98374,-3.16492 0.31068,-0.72529 0.97226,-2.74293 1.47017,-4.48363 0.94357,-3.2987 3.6587,-12.18067 4.83743,-15.82461 1.89163,-5.84781 2.39117,-7.52536 2.70957,-9.09914 0.29872,-1.47655 0.19724,-1.71434 -0.73163,-1.71434 -3.25917,0 -6.48777,-6.05409 -5.81037,-10.89527 0.45602,-3.25897 2.20891,-6.39602 3.69816,-6.61837 0.74827,-0.11173 1.14848,-0.48345 1.03454,-0.96092 -0.4485,-1.87955 -0.0296,-7.38928 0.72018,-9.47073 0.9446,-2.62258 2.10746,-3.66341 4.11936,-3.68714 l 1.42275,-0.0168 0.21078,-5.934227 c 0.2164,-6.092578 0.88992,-8.454021 2.7307,-9.574128 0.69003,-0.41988 1.22589,-0.39772 2.01206,0.08321 1.57563,0.963887 1.62465,0.901153 1.62465,-2.079189 0,-3.329612 1.42279,-8.53695 2.62158,-9.594877 0.48326,-0.426468 1.509,-0.929448 2.27943,-1.117733 1.13732,-0.277949 1.66905,-0.03004 2.82711,1.318091 0.78447,0.913236 1.42632,1.99827 1.42632,2.411187 0,1.527274 0.95851,0.679359 1.86743,-1.651963 0.51522,-1.321497 2.27051,-3.813872 3.90064,-5.538611 3.2326,-3.420212 4.88421,-3.926962 7.44403,-2.283993 1.86495,1.196981 1.76173,3.925286 -0.29777,7.869971 -0.89378,1.711925 -1.86308,3.34574 -2.15398,3.630701 -0.94483,0.925512 -0.5613,1.751319 0.95194,2.049697 0.88844,0.175181 1.86884,0.938146 2.45068,1.907167 0.9371,1.560696 0.93547,1.690943 -0.0484,3.861962 -0.96989,2.140262 -3.85254,5.122082 -6.74884,6.981014 l -1.3389,0.859344 1.30753,1.382 c 3.28615,3.473327 1.86938,7.264877 -4.31977,11.560567 l -1.56258,1.08453 1.15871,1.13502 c 0.82561,0.80874 1.15871,1.78517 1.15871,3.39667 0,2.00613 -0.28899,2.53559 -2.55786,4.6864 -1.40682,1.33362 -3.10377,2.69828 -3.77099,3.03258 -1.2094,0.60594 -1.20995,0.61221 -0.18007,2.03905 0.56819,0.78718 1.1689,1.90597 1.33491,2.48621 0.53773,1.87941 -1.86207,5.11539 -5.60141,7.55318 -3.22021,2.09936 -3.71759,2.26163 -6.33165,2.06576 -1.99787,-0.1497 -3.05989,-0.51127 -3.59082,-1.22252 -0.41465,-0.55548 -0.8602,-0.89164 -0.99011,-0.74704 -0.12992,0.14461 -1.86003,5.36635 -3.84469,11.60388 -1.98467,6.23753 -3.83044,11.93439 -4.1017,12.65969 -0.27128,0.72529 -0.59892,1.94035 -0.7281,2.70013 -0.22508,1.32384 -2.43363,8.4938 -3.63651,11.80575 -1.09788,3.02287 -2.35135,7.86633 -4.77792,18.46204 -1.42694,6.2308 -1.55168,7.12107 -0.99775,7.12107 0.25544,0 0.46497,-0.29671 0.4656,-0.65936 0.003,-1.57921 6.65781,-12.79896 11.04246,-18.6165 2.60918,-3.46184 4.03428,-5.65433 4.03428,-6.20664 0,-0.12786 -0.73097,-0.37569 -1.62437,-0.55071 -2.83828,-0.55605 -3.44306,-4.18671 -1.64176,-9.85595 1.69684,-5.3405 5.35021,-7.88536 7.83124,-5.45506 1.18394,1.15973 0.99833,7.01908 -0.30145,9.51641 -0.52137,1.00172 -0.74571,1.74841 -0.49855,1.65931 0.56464,-0.20353 5.38933,-6.27956 5.38933,-6.78711 0,-0.20604 -0.62605,-0.77644 -1.39122,-1.26754 -2.90707,-1.86584 -3.31216,-6.35937 -1.05125,-11.66109 1.66984,-3.91572 4.88362,-6.06456 6.58196,-4.40094 0.6932,0.67903 0.75367,0.58101 2.07533,-3.36374 1.35166,-4.03431 3.59768,-6.70447 5.63952,-6.70447 0.84948,0 1.69426,0.23737 1.87731,0.52749 0.63338,1.00389 1.13748,0.51661 2.0571,-1.98848 1.13365,-3.08812 4.63234,-6.97879 6.27569,-6.97879 1.25921,0 3.19694,1.87149 3.22696,3.11666 0.01,0.40863 1.53353,-0.68265 3.38594,-2.42505 5.19121,-4.88295 8.16498,-6.01821 9.7946,-3.73916 2.05408,2.87265 0.28877,7.20166 -4.73176,11.60346 -1.38847,1.21737 -1.91895,1.96832 -1.39733,1.97808 1.33761,0.0251 3.1979,2.0461 3.1979,3.47427 0,1.87924 -3.23852,4.72659 -6.59911,5.80203 -1.55352,0.49716 -2.90931,0.9747 -3.01287,1.06121 -0.10356,0.0865 0.0855,0.96979 0.42003,1.96285 0.71372,2.11835 0.0455,4.43027 -1.43527,4.96561 -0.52275,0.189 -1.12191,0.59602 -1.33147,0.9045 -0.20956,0.30848 -1.54234,0.80347 -2.96173,1.09999 l -2.58071,0.53912 0.17612,2.41793 c 0.15673,2.15175 -0.005,2.56751 -1.47246,3.77676 -1.51113,1.24552 -6.83807,3.55073 -8.20516,3.55073 -0.34526,0 -0.41214,0.36969 -0.16699,0.9231 1.6426,3.70802 0.71443,5.67374 -3.71878,7.87586 -3.59438,1.78544 -10.28239,1.9571 -11.65299,0.29908 -0.87898,-1.0633 -0.94536,-1.01779 -3.53838,2.42585 -3.97795,5.2829 -11.30131,16.9604 -10.63645,16.9604 0.1903,0 1.70068,-1.24756 3.35641,-2.77236 4.71107,-4.33852 8.02328,-6.89318 10.45976,-8.06743 3.52756,-1.7001 7.52762,-4.01745 8.71386,-5.04819 0.71378,-0.62021 1.34572,-0.7854 1.84599,-0.48253 0.64869,0.39272 0.62449,0.87449 -0.16436,3.27251 -1.34376,4.08487 -5.27526,9.50071 -9.21314,12.69159 -3.59572,2.91364 -4.72185,3.70804 -10.64179,7.507 -7.22766,4.63817 -11.18306,7.86937 -11.18306,9.13555 0,0.46758 0.78052,0.12653 2.16035,-0.94397 1.18819,-0.92183 3.71173,-2.22725 5.60785,-2.90094 4.51553,-1.60437 7.40678,-1.06589 8.70888,1.62196 1.00933,2.08352 0.75928,3.02975 -1.74176,6.59129 -2.43352,3.46539 -2.82213,5.67501 -1.40317,7.97836 2.01784,3.27547 2.43485,5.38458 1.49863,7.57946 l -0.83865,1.96613 -3.32055,-0.33997 c -1.82629,-0.18698 -3.70232,-0.65079 -4.16896,-1.0307 -0.46663,-0.37989 -1.86401,-1.12106 -3.10531,-1.64703 -1.24128,-0.52596 -2.39061,-1.29765 -2.55405,-1.71486 -0.16344,-0.41721 -0.53229,-0.61622 -0.81966,-0.44224 -0.30702,0.18587 -0.0873,1.01544 0.53268,2.01151 0.58035,0.93235 1.05609,2.01293 1.05719,2.4013 0.003,0.98338 4.74612,10.57318 6.13251,12.39839 0.62656,0.82488 2.44999,2.90362 4.05207,4.61941 1.60208,1.71579 2.75014,3.27902 2.55124,3.47386 -0.1989,0.19483 -2.10701,-0.50756 -4.24025,-1.56088 -2.13324,-1.05331 -3.99018,-1.80585 -4.12652,-1.67229 -0.31899,0.31247 -0.34027,3.02445 -0.0471,5.99649 0.29768,3.01732 -0.58983,3.30758 -2.20497,0.72113 z m 1.4088,-9.12136 c 0.43128,0 0.78415,0.21415 0.78415,0.47588 0,0.38053 2.75629,1.63406 3.593,1.63406 0.29607,0 -1.46817,-2.66723 -2.93347,-4.43494 -1.58325,-1.90998 -5.05526,-8.66857 -6.25755,-12.18089 -0.49655,-1.45059 -1.2349,-3.22534 -1.64079,-3.94389 -0.65829,-1.16539 -0.71946,-0.75255 -0.56651,3.82356 0.27262,8.15646 1.71993,14.4711 4.50088,19.63734 l 1.41971,2.63744 0.15821,-3.82428 c 0.12104,-2.92562 0.34249,-3.82428 0.94237,-3.82428 z m -22.079289,0.9127 c 0.900969,-1.5174 2.178259,-4.53917 2.838419,-6.71506 0.66016,-2.17588 1.43752,-4.68511 1.72747,-5.57606 0.28995,-0.89095 0.51912,-2.67122 0.50926,-3.95615 l -0.0179,-2.33624 -1.10549,1.31872 c -0.60803,0.72529 -1.751,2.02805 -2.53994,2.89501 -0.788948,0.86695 -2.078168,2.43649 -2.864932,3.48784 -0.78677,1.05135 -3.381379,3.84321 -5.765797,6.20414 -2.384424,2.36092 -4.196932,4.29258 -4.027796,4.29258 0.169131,0 1.309801,-0.49872 2.53482,-1.10829 4.384668,-2.18177 5.283224,-2.58411 5.771166,-2.58411 0.272173,0 0.494857,1.5429 0.494857,3.42866 0,1.88577 0.181742,3.42399 0.403872,3.41826 0.22213,-0.006 1.14103,-1.2519 2.042005,-2.7693 z m 30.397489,-16.99527 c 0.91116,-1.07544 0.25416,-4.18606 -1.38245,-6.54532 -2.0331,-2.9308 -1.76149,-5.1932 1.1181,-9.31328 2.68877,-3.84706 2.8957,-4.82198 1.40598,-6.62409 -0.9799,-1.18538 -1.14653,-1.20889 -4.5373,-0.63994 -2.66237,0.44671 -4.153,1.06404 -6.11782,2.5336 -3.43658,2.57035 -4.52545,4.38292 -4.87019,8.10713 -0.52357,5.65594 1.6308,9.22599 7.09573,11.75851 3.58754,1.66252 6.26695,1.92847 7.28795,0.72339 z m -32.475352,-1.33003 c 4.075212,-1.81001 7.384662,-5.00134 8.337062,-8.03949 0.47828,-1.52571 0.46307,-2.66736 -0.0664,-4.98498 -1.15655,-5.06231 -6.906071,-9.65193 -12.091218,-9.65193 -1.798055,0 -4.086395,2.1579 -4.086395,3.85346 0,1.64063 1.078969,4.6587 1.983104,5.54711 1.100772,1.08162 0.838681,4.13167 -0.541582,6.30264 -1.811932,2.84994 -2.000782,3.59802 -1.361684,5.39387 0.496445,1.39498 2.552116,3.08096 3.836085,3.14619 0.228629,0.0116 2.0246,-0.69347 3.991038,-1.56687 z m 11.478902,-5.28789 c 0,0.30131 1.17002,0.54604 2.61054,0.54604 h 2.61053 v -5.27487 -5.27486 h -3.10499 c -4.31492,0 -4.88269,0.27401 -4.19166,2.02295 0.32486,0.82218 0.40875,2.89936 0.20211,5.00388 -0.3456,3.51974 -0.32903,3.58545 0.76008,3.01449 0.74274,-0.38937 1.11339,-0.4019 1.11339,-0.0376 z m 0.91935,-13.82182 c -0.1288,-0.65615 -0.23908,-0.24352 -0.24506,0.91695 -0.006,1.16047 0.0994,1.69732 0.23419,1.193 0.13478,-0.50433 0.13967,-1.45381 0.0109,-2.10995 z m -0.0242,-3.17107 c -0.14939,-0.36265 -0.27161,-0.0659 -0.27161,0.65936 0,0.72529 0.12222,1.022 0.27161,0.65935 0.14938,-0.36264 0.14938,-0.95607 0,-1.31871 z m 9.88959,-1.28815 c 0.73229,-0.49089 1.4526,-1.03563 1.60069,-1.21055 0.14809,-0.17491 3.29829,-2.30278 7.00045,-4.72859 8.05262,-5.27643 11.84598,-8.48612 14.37244,-12.161 2.12531,-3.09138 3.61615,-6.28877 3.14668,-6.74864 -0.39002,-0.38204 -6.56778,2.61286 -10.45072,5.06639 -5.53327,3.49631 -12.81093,11.18885 -16.06662,16.98251 -2.12505,3.78165 -2.03323,4.42905 0.39708,2.79988 z m -19.989091,-6.59378 c -0.684428,-0.95959 -1.393245,-1.86339 -1.575149,-2.00845 -0.181904,-0.14506 -1.141354,-1.45059 -2.132111,-2.90118 -3.132094,-4.58576 -6.590709,-8.26213 -9.470248,-10.06649 -1.532947,-0.96057 -6.271842,-2.93246 -10.53088,-4.38198 -9.46626,-3.22176 -11.312655,-3.89648 -12.222124,-4.46627 -1.65688,-1.03806 -0.964384,0.23837 1.98404,3.65703 1.732794,2.00915 4.446326,4.71731 6.030073,6.01812 2.650107,2.17667 8.823741,6.33842 9.402558,6.33842 0.604305,0 13.737407,6.5815 16.372802,8.20504 1.608601,0.99098 3.02839,1.70023 3.1551,1.57612 0.1267,-0.12412 -0.32962,-1.01078 -1.01405,-1.97036 z m 45.014351,-24.21611 c 6.68714,-1.78455 9.3682,-4.74851 6.67849,-7.38322 -0.82741,-0.8105 -1.51184,-1.01712 -2.55785,-0.77219 -0.78549,0.18393 -2.09827,0.44032 -2.91729,0.56976 -2.27609,0.3597 -4.37185,1.59089 -6.22237,3.65542 -3.14892,3.51311 -0.67558,5.44991 5.01902,3.93023 z m -34.5657,-27.3761 c -0.50637,-2.17588 -1.23432,-4.54957 -1.61767,-5.27486 -0.38334,-0.7253 -0.69848,-1.60138 -0.70031,-1.94685 -0.002,-0.34548 -0.96488,-2.65757 -2.14013,-5.13799 -1.17525,-2.48041 -2.64995,-5.75829 -3.27711,-7.28417 -0.62717,-1.52587 -1.36186,-3.18649 -1.63266,-3.69026 -0.2708,-0.50377 -0.492359,-1.27522 -0.492359,-1.71433 0,-0.43911 -0.221295,-0.79839 -0.491771,-0.79839 -1.31651,0 0.04938,18.85801 1.77659,24.52814 0.44187,1.45058 2.57504,7.85955 4.74038,14.24214 l 3.93698,11.60471 0.40936,-10.28599 c 0.35045,-8.80548 0.27686,-10.85543 -0.5113,-14.24215 z m 27.16381,21.50937 c 2.38194,-4.67186 2.91228,-10.93649 0.9871,-11.66014 -2.24295,-0.8431 -5.70138,5.24486 -5.70138,10.03628 0,5.33438 2.40084,6.16136 4.71428,1.62386 z m -24.35796,-0.54782 c 0.19995,-0.93955 0.66914,-2.18304 1.04266,-2.76331 0.72466,-1.12575 2.95248,-6.21502 4.61811,-10.54968 0.5574,-1.45059 1.53176,-3.94296 2.16525,-5.53861 1.74868,-4.40465 2.52647,-7.91314 3.9977,-18.03294 0.93914,-6.45988 1.07564,-12.56129 0.28101,-12.56129 -0.29617,0 -0.53849,0.262 -0.53849,0.58223 0,0.32022 -1.92291,4.41483 -4.27313,9.09914 -6.1174,12.19283 -6.30126,12.71003 -7.528,21.1766 -0.84451,5.82856 -1.35292,21.03732 -0.68982,20.63588 0.30865,-0.18685 0.72476,-1.10846 0.92471,-2.04802 z m -40.81742,0.006 c 0.286461,-0.36264 0.668952,-1.06694 0.849979,-1.5651 0.941889,-2.59193 -7.78925,-6.71764 -12.692203,-5.99743 -2.362177,0.34699 -2.547644,0.48523 -2.547644,1.89898 0,1.95973 3.093081,4.9847 5.825219,5.69694 2.932654,0.76451 7.949825,0.74495 8.564649,-0.0334 z m 28.47381,-0.71368 c -0.18218,-0.46504 -0.705377,-2.54202 -1.162662,-4.61551 -0.457286,-2.07347 -0.931857,-4.2149 -1.054607,-4.75872 -0.122745,-0.54382 -0.594764,-1.54429 -1.048932,-2.22326 -0.454162,-0.67897 -0.825751,-1.49041 -0.825751,-1.80321 0,-1.29696 -8.851451,-14.08051 -14.192297,-20.49696 -4.280564,-5.14265 -10.999532,-11.96654 -11.398108,-11.57611 -0.252324,0.24716 3.978038,8.55646 5.490377,10.78422 1.406558,2.07195 2.031472,3.13345 3.925075,6.66729 2.896996,5.40638 9.994971,16.05992 11.853069,17.79059 1.00661,0.93758 6.500214,8.43621 7.052614,9.62664 0.70627,1.52203 1.934272,2.06785 1.361222,0.60503 z m -22.286559,-1.66001 c 0.891497,-1.00398 0.976886,-1.52238 0.999044,-6.06531 0.03165,-6.48969 -5.077788,-12.4966 -6.152453,-7.23313 -0.736347,3.60646 -0.379276,8.39616 0.796342,10.68202 1.973839,3.83792 2.820802,4.34652 4.357067,2.61642 z m 67.852209,-0.56195 c 0.58801,-0.57598 -0.0404,-2.20938 -0.84669,-2.20082 -0.33852,0.004 -1.14982,0.81474 -1.80287,1.80257 l -1.18737,1.79604 1.68954,-0.47465 c 0.92925,-0.26106 1.89557,-0.67647 2.14739,-0.92314 z m 6.61525,-0.66073 c 3.56791,-0.92335 7.70808,-3.0152 8.37172,-4.22987 0.45512,-0.83301 0.46648,-1.48184 0.0419,-2.3946 -0.46989,-1.01021 -1.02655,-1.26736 -2.8825,-1.33154 -3.63506,-0.12571 -5.39229,0.11913 -7.13798,0.99453 -1.71779,0.86142 -4.29405,3.56143 -4.34965,4.55859 -0.0485,0.8696 0.91778,1.96777 2.16833,2.4643 1.44844,0.57511 1.32062,0.57718 3.78817,-0.0614 z M 71.26765,160.3085 c -0.265389,-1.65776 -0.531608,-3.04838 -0.591598,-3.09025 -0.05999,-0.0419 -1.033557,-0.21601 -2.16348,-0.38696 l -2.054407,-0.31081 1.151089,1.68674 c 0.6331,0.92771 1.642099,2.45819 2.242222,3.40107 0.600122,0.94289 1.272834,1.71434 1.494916,1.71434 0.222081,0 0.186648,-1.35636 -0.07874,-3.01413 z m -3.209052,0.90418 c -1.352658,-1.79216 -1.812383,-1.94297 -2.280472,-0.74809 -0.473272,1.20812 -0.446322,1.26254 0.884755,1.78663 2.261767,0.89053 2.639543,0.60943 1.395717,-1.03854 z m 77.833932,-1.88131 c 1.5705,-2.75249 2.46445,-6.81083 2.12253,-9.63586 -0.33944,-2.80447 -0.56701,-3.25246 -1.65215,-3.25246 -2.26119,0 -5.58316,8.09595 -4.72529,11.51598 0.42901,1.7103 1.74369,3.78114 2.40046,3.78114 0.26403,0 1.09852,-1.08396 1.85445,-2.4088 z m -81.742602,0.78983 c 1.02784,-0.83559 0.942859,-2.61408 -0.191502,-4.00774 -1.160129,-1.42531 -5.618846,-3.86806 -7.060326,-3.86806 -0.591913,0 -1.242719,-0.26391 -1.446234,-0.58647 -0.474075,-0.75139 -5.702714,-0.12388 -6.271756,0.7527 -0.901846,1.38923 -0.340193,2.94854 1.718182,4.77013 1.177224,1.04181 2.812906,2.03584 3.634849,2.20896 0.821942,0.17311 1.967915,0.49498 2.546606,0.71525 1.751094,0.66654 6.257083,0.67624 7.070181,0.0152 z m 87.572102,-5.67863 c 0.93002,-1.47405 0.99315,-1.8564 0.37027,-2.24275 -1.29831,-0.80529 -2.63563,-0.54721 -2.63563,0.50865 0,0.54481 -0.36349,1.84271 -0.80775,2.88424 -0.44425,1.04152 -0.80774,2.18005 -0.80774,2.53006 0,0.87265 2.51017,-1.50773 3.88085,-3.6802 z m 2.01199,3.1074 c 0.64216,-0.39798 0.66167,-0.72987 0.11229,-1.91096 l -0.66483,-1.42932 -1.32391,1.75777 c -0.72815,0.96677 -1.32391,1.83034 -1.32391,1.91903 0,0.36903 2.48326,0.10791 3.20036,-0.33652 z m 10.85519,-1.58397 c 3.49793,-1.30194 4.79182,-2.45364 4.79182,-4.26525 0,-2.32083 -1.12275,-2.80904 -5.68305,-2.4712 -4.58327,0.33954 -7.12662,1.50027 -8.24172,3.76132 -0.59874,1.21404 -0.60666,1.71216 -0.0436,2.74269 0.59284,1.08507 1.08421,1.25922 3.55294,1.25922 1.57573,0 4.10637,-0.46205 5.62365,-1.02678 z m -94.471147,-1.21503 c 0.292436,-0.65277 0.59133,-2.42765 0.664208,-3.94419 0.236455,-4.92043 -2.091424,-9.30985 -4.774761,-9.00323 -1.314693,0.15023 -1.369709,0.30555 -1.52225,4.29749 -0.2288,5.98762 1.405118,9.76751 4.245169,9.82073 0.470763,0.009 1.095198,-0.51804 1.387634,-1.1708 z m -6.604236,-4.4356 c -0.415274,-1.35164 -0.755043,-3.00729 -0.755043,-3.67922 0,-1.09361 -0.183495,-1.18749 -1.750113,-0.89538 -0.962562,0.17948 -1.82819,0.38849 -1.923616,0.46447 -0.295318,0.23514 4.280114,6.56765 4.745323,6.56765 0.24117,0 0.09872,-1.10589 -0.316551,-2.45752 z m -2.967222,0.2157 c -0.664688,-0.94288 -1.266803,-1.79345 -1.338035,-1.89016 -0.154669,-0.20998 -2.373244,1.91272 -2.373244,2.2707 0,0.27177 3.070453,1.20984 4.210014,1.28622 0.472662,0.0317 0.306045,-0.52515 -0.498735,-1.66676 z M 154.4473,149.4761 c 1.92849,-2.59102 3.09748,-5.66643 3.15793,-8.30792 0.0965,-4.21813 0.0641,-4.3054 -1.53282,-4.12306 -2.23644,0.25538 -4.43758,4.14474 -5.17209,9.13898 -0.49846,3.38926 -0.46808,4.09318 0.19439,4.50366 1.32773,0.82268 2.02638,0.57018 3.35259,-1.21166 z m -98.270289,-0.16178 c 3.816573,-2.61858 -1.293568,-6.70348 -9.317318,-7.44799 -2.61877,-0.243 -3.386909,-0.13288 -3.983268,0.57099 -1.773816,2.09363 2.580058,5.64401 8.466359,6.90394 1.68812,0.36133 3.197133,0.68784 3.353362,0.72558 0.156229,0.0377 0.822618,-0.3009 1.480865,-0.75252 z m 106.474249,-1.37809 c 0.10195,-0.0999 0.0174,-0.98573 -0.18775,-1.9686 l -0.37312,-1.78704 -1.73964,1.94084 c -0.95681,1.06746 -1.73965,2.14495 -1.73965,2.39442 0,0.39987 3.5619,-0.11113 4.04016,-0.57962 z m -2.56842,-3.01978 c 0.48849,-0.55947 0.50664,-0.94621 0.0687,-1.46312 -0.92085,-1.08688 -1.42311,-0.84418 -1.80832,0.87377 -0.1944,0.86703 -0.57714,1.71183 -0.85053,1.87734 -0.27338,0.16551 -0.49706,0.56107 -0.49706,0.87903 0,0.57108 1.79924,-0.69186 3.08722,-2.16702 z m 13.49812,0.58023 c 3.24723,-1.52271 5.29456,-3.99095 4.43735,-5.34959 -0.79685,-1.26298 -5.87799,-0.91011 -9.35631,0.64976 -2.2957,1.02952 -3.25646,1.81375 -3.93856,3.21489 -0.76853,1.57867 -0.79297,1.98209 -0.16502,2.72326 1.01012,1.19224 5.01001,0.64326 9.02254,-1.23832 z M 61.77973,143.54201 c 0.8105,-1.74248 -0.395334,-8.20439 -1.947147,-10.43449 -3.612586,-5.19165 -5.912065,-1.28977 -3.817807,6.47825 1.211057,4.49206 4.474133,6.73137 5.764954,3.95624 z m 103.20043,-3.34886 c 0.54002,-0.76924 1.30532,-2.2294 1.70068,-3.24481 0.39535,-1.01542 0.92231,-2.07171 1.17101,-2.34732 0.70271,-0.77874 0.53244,-4.20086 -0.26197,-5.26507 -1.03437,-1.38568 -2.649,-0.6791 -4.47599,1.95874 -1.43472,2.07145 -3.37597,6.69593 -3.41063,8.12487 -0.008,0.34376 0.21763,1.2248 0.50216,1.95787 0.47307,1.21882 0.65744,1.285 2.1551,0.77358 0.90078,-0.30759 2.07962,-1.18863 2.61964,-1.95786 z M 54.80838,138.39893 c -0.13935,-1.52312 -0.406683,-2.91658 -0.594074,-3.09658 -0.18739,-0.17999 -0.988602,-0.0568 -1.78047,0.2737 l -1.439761,0.60096 1.848865,2.49561 c 1.016876,1.37259 1.932101,2.49561 2.033834,2.49561 0.101733,0 0.07096,-1.24619 -0.06839,-2.7693 z m 114.57265,0.65935 c 0,-0.29011 -0.10686,-0.52748 -0.23747,-0.52748 -0.1306,0 -0.38723,0.23737 -0.57028,0.52748 -0.18304,0.29012 -0.0762,0.52749 0.23747,0.52749 0.31365,0 0.57028,-0.23737 0.57028,-0.52749 z M 47.638142,137.26253 c 1.696051,-2.00183 -1.37179,-5.45821 -7.33789,-8.26723 -2.387056,-1.12389 -3.749677,-1.47322 -4.769036,-1.22261 -1.320407,0.32462 -1.401926,0.50518 -1.090213,2.41468 0.321251,1.96792 1.912938,3.82334 5.281778,6.15693 2.343529,1.62336 6.872779,2.14879 7.915361,0.91823 z m 125.758238,0.21329 c 0.38296,0 2.24976,-1.50681 4.14845,-3.34847 3.75458,-3.64181 5.06744,-6.34075 4.18735,-8.60825 -0.52212,-1.34521 -0.76864,-1.35289 -4.11199,-0.12818 -2.98137,1.09211 -8.23916,7.92732 -8.23916,10.71104 0,0.96269 1.61138,1.96809 2.6019,1.62342 0.39444,-0.13725 1.03049,-0.24956 1.41345,-0.24956 z m -26.11035,-2.52828 c 1.32362,-0.79906 3.12212,-2.4501 3.99666,-3.66899 1.3915,-1.93938 1.51182,-2.38442 0.9634,-3.56346 -0.87383,-1.87865 -2.61073,-2.38915 -4.92971,-1.44894 -2.76908,1.12272 -6.19968,4.03599 -7.21099,6.12359 -1.08683,2.24352 -1.09411,2.6912 -0.0601,3.70402 1.15528,1.13166 4.28933,0.63554 7.24079,-1.14622 z m -93.856773,-4.63448 c -0.358643,-3.7621 -1.153441,-5.57474 -3.543165,-8.08064 -1.957643,-2.05282 -3.871478,-2.07633 -4.372346,-0.0537 -0.500771,2.02223 1.31395,8.18342 2.98793,10.14435 1.766421,2.06922 2.875089,2.55771 4.232782,1.86502 0.888581,-0.45335 0.975027,-0.93547 0.694799,-3.87502 z m 82.963173,3.33848 c 1.05172,-1.30832 1.24866,-5.70326 0.36929,-8.24111 -0.98827,-2.85213 -3.18641,-5.86916 -4.27614,-5.86916 -2.87285,0 -2.97793,10.69531 -0.13863,14.11027 0.30151,0.36265 1.21584,0.65936 2.03183,0.65936 0.81598,0 1.72213,-0.29671 2.01365,-0.65936 z m -91.200267,-5.53861 c -0.417988,-1.70671 -0.624025,-2.00597 -1.076169,-1.56307 -0.489186,0.47919 0.261769,3.01366 0.892934,3.01366 0.314577,0 0.390771,-0.60318 0.183235,-1.45059 z m 98.341047,-1.14402 c 1.69093,-1.40439 1.79472,-1.63625 1.00932,-2.25468 -0.48149,-0.37913 -1.10721,-1.12272 -1.3905,-1.65243 -0.43423,-0.81192 -0.69012,-0.52212 -1.63013,1.84621 -0.61327,1.54512 -1.29649,3.25232 -1.51825,3.79377 -0.34796,0.84955 -0.26287,0.90553 0.6208,0.40849 0.56322,-0.31679 1.87216,-1.2804 2.90876,-2.14136 z M 42.803971,126.1906 c 0.785465,-1.43765 0.279267,-3.50371 -1.904649,-7.77389 -1.193085,-2.33282 -4.809959,-5.73276 -6.098536,-5.73276 -0.993422,0 -1.775005,2.73879 -1.453895,5.09468 0.860735,6.31499 7.416724,12.14646 9.45708,8.41197 z m 97.169749,-0.97884 c 0.30815,-1.28068 0.19455,-1.45059 -0.96988,-1.45059 -1.23141,0 -1.28568,0.1135 -0.818,1.71085 0.2755,0.94097 0.50091,1.81923 0.50091,1.9517 0,0.72457 0.98969,-0.97644 1.28697,-2.21196 z m -54.060004,-0.1314 c 1.00477,-1.18592 -0.136099,-3.40517 -3.528414,-6.86355 -5.788434,-5.90118 -11.271528,-6.00698 -9.04393,-0.1745 1.846354,4.83427 10.388168,9.61601 12.572344,7.03805 z m 7.034209,-1.97855 c 2.677866,-3.49669 3.549503,-10.04455 1.657836,-12.4539 -0.934399,-1.19011 -1.048727,-1.20864 -2.60204,-0.42182 -1.319569,0.66843 -1.801249,1.43935 -2.564761,4.10484 -0.934323,3.26183 -1.263721,8.84729 -0.585178,9.92275 0.720804,1.14243 2.780988,0.56281 4.094143,-1.15187 z m 57.278965,0.30897 c 4.41132,-1.41656 8.5907,-6.62891 7.51564,-9.3732 -0.55473,-1.41603 -4.02045,-1.22239 -6.75796,0.3776 -4.73814,2.76926 -6.88468,5.70005 -6.18236,8.44112 0.38977,1.52118 1.92544,1.67815 5.42468,0.55448 z m -8.32011,-2.79352 c 2.07562,-3.98538 0.93983,-11.63371 -2.1596,-14.54244 -1.24442,-1.16785 -1.6725,-1.30173 -2.60285,-0.814 -2.47825,1.2992 -3.25741,10.76167 -1.20987,14.69312 1.16364,2.23428 1.71833,2.64244 3.68371,2.71061 0.87686,0.0304 1.49408,-0.52172 2.28861,-2.04729 z m -56.790426,-2.52658 c -0.108582,-0.5077 -0.568566,-1.93192 -1.022184,-3.16492 -0.453616,-1.233 -0.66588,-2.24181 -0.471696,-2.24181 0.194182,0 0.08233,-0.2652 -0.248561,-0.58932 -0.443163,-0.43411 -0.970284,-0.25447 -2.001338,0.68203 l -1.399718,1.27136 2.297511,2.42387 c 2.522307,2.66102 3.144598,3.01498 2.845986,1.61879 z m 3.150553,-4.9909 c -0.144301,-0.22871 -0.949665,-0.41583 -1.789703,-0.41583 h -1.527337 l 0.869806,3.17993 0.869806,3.17993 0.919897,-2.7641 c 0.505939,-1.52025 0.801832,-2.95122 0.657531,-3.17993 z m 59.310753,2.05135 2.06991,-1.7527 -1.21732,-1.19244 c -0.66953,-0.65583 -1.27458,-1.1133 -1.34457,-1.01659 -0.6246,0.86296 -2.31989,5.71444 -1.99686,5.71444 0.23042,0 1.3504,-0.78872 2.48884,-1.75271 z m -32.3155,0.69774 c 0.18305,-0.29012 0.7843,-0.52749 1.33612,-0.52749 1.43717,0 5.23985,-4.57225 6.23758,-7.49991 0.71975,-2.11196 0.7398,-2.71098 0.13242,-3.95616 -1.00361,-2.05748 -2.85841,-2.18191 -4.83968,-0.32466 -3.95492,3.70735 -6.18165,9.16251 -4.78414,11.7204 0.65803,1.20441 1.38758,1.42803 1.9177,0.58782 z m -4.81035,-1.27186 c 0.4607,-1.79805 -1.65229,-7.13518 -3.65649,-9.23584 -0.91804,-0.96221 -2.50412,-2.09121 -3.52462,-2.50889 -1.65488,-0.67732 -1.96036,-0.6664 -2.82597,0.10094 -1.703033,1.50972 0.0145,5.34982 4.44594,9.94016 3.17729,3.29125 5.01046,3.85283 5.56114,1.70363 z m 35.14895,-2.70911 c 0.95318,-2.04923 0.76422,-2.60298 -0.92759,-2.71833 -1.54668,-0.10547 -1.54909,-0.10074 -1.01042,1.97807 0.62896,2.42724 1.07422,2.59732 1.93801,0.74026 z m -64.446332,-0.47858 c 0.503014,-1.08142 0.363742,-1.772 -0.845737,-4.19354 -1.143435,-2.28932 -2.134699,-3.34817 -4.713809,-5.03523 -3.748702,-2.452106 -5.633159,-2.726663 -6.333323,-0.92275 -0.583698,1.50386 -0.169526,3.82752 0.826556,4.6373 0.411462,0.3345 0.748112,0.89236 0.748112,1.2397 0,1.04115 4.746837,4.69593 6.731202,5.18262 2.230952,0.54717 3.000745,0.35229 3.586999,-0.9081 z m 75.446962,-1.42369 c 5.5668,-3.47981 7.48986,-6.8103 5.76024,-9.976046 -1.18007,-2.159911 -5.33492,-0.500337 -9.87061,3.942626 -2.92105,2.86133 -4.02635,5.39785 -3.23377,7.42106 0.54176,1.38294 3.93868,0.74111 7.34414,-1.38764 z m -67.984956,0.21275 c 3.584942,-4.46378 4.212995,-12.724832 1.091812,-14.36109 -1.615672,-0.847002 -3.749398,2.270909 -4.864435,7.10815 -1.584253,6.8728 0.641435,11.15173 3.772623,7.25294 z m 23.145506,-2.70712 v -3.63023 l -2.19766,-0.0297 c -2.17038,-0.0293 -2.18677,-0.0154 -1.32049,1.12467 0.48244,0.6349 1.39832,2.28188 2.03528,3.65994 0.63697,1.37806 1.23119,2.50556 1.32049,2.50556 0.0893,0 0.16238,-1.6336 0.16238,-3.63023 z m 2.89016,-1.63334 c 0.77979,-1.15425 1.41781,-2.19474 1.41781,-2.31219 0,-0.11746 -0.59367,-0.32473 -1.31927,-0.4606 -0.83388,-0.15615 -1.42824,0.0312 -1.61549,0.50914 -0.32949,0.84108 -0.40903,4.36229 -0.0985,4.36229 0.10873,0 0.8357,-0.94438 1.61548,-2.09864 z m 31.50153,1.57116 c 1.1318,0 2.22605,-3.29983 2.22605,-6.71288 0,-6.43929 -2.83649,-12.030201 -5.41705,-10.677367 -0.5747,0.30128 -1.06345,0.836141 -1.08611,1.188581 -0.0227,0.35244 -0.16059,1.11554 -0.30651,1.695775 -0.71724,2.85201 -0.80608,7.01328 -0.2068,9.687341 0.70733,3.1562 2.43787,5.56063 3.66906,5.09783 0.40866,-0.15361 0.91327,-0.27928 1.12136,-0.27928 z m -65.07091,-3.38985 c -0.304459,-0.78442 -0.553562,-1.99018 -0.553562,-2.67946 0,-1.547925 -0.867895,-2.14216 -1.901468,-1.30191 -0.427513,0.34756 -1.143868,0.49412 -1.591899,0.32571 -0.448031,-0.16841 -0.814602,-0.18486 -0.814602,-0.0365 0,0.36851 5.078092,5.44456 5.265404,5.26329 0.08233,-0.0797 -0.09941,-0.78667 -0.403873,-1.57108 z m 3.117512,-3.29591 c 0.639502,-1.988844 0.425983,-2.28152 -1.664451,-2.28152 -1.151216,0 -1.502762,0.205725 -1.288066,0.753774 0.162407,0.414573 0.449536,1.660756 0.638065,2.769306 0.55636,3.27138 0.900626,3.78076 1.362204,2.01553 0.227583,-0.87035 0.656097,-2.33604 0.952248,-3.25709 z m 71.718128,-1.885905 c 1.4e-4,-0.217588 -0.35118,-0.395615 -0.78072,-0.395615 -0.42955,0 -1.00653,-0.394776 -1.28218,-0.877279 -0.41117,-0.719692 -0.69692,-0.443891 -1.59071,1.535361 -2.1685,4.802048 -2.10081,4.987238 0.89814,2.457378 1.51536,-1.27832 2.75532,-2.502256 2.75547,-2.719845 z m -44.80262,3.191295 c 3.00759,-2.946098 -4.87721,-14.165061 -8.92729,-12.702272 -2.239703,0.808928 -2.287667,3.142967 -0.13997,6.810994 2.79799,4.778628 7.25009,7.671298 9.06726,5.891278 z m 6.73968,-0.49789 c 4.53624,-2.327039 7.69298,-9.717086 5.35756,-12.542242 l -1.04559,-1.26484 -2.17081,1.007263 c -3.22823,1.497914 -6.56012,6.549302 -6.59658,10.000917 -0.0337,3.184702 1.64621,4.240002 4.45542,2.798902 z m 32.89173,-2.165918 c 1.30946,-2.797262 1.2907,-3.704561 -0.0789,-3.814478 -1.11744,-0.08968 -1.21162,0.121422 -1.21162,2.715786 0,1.547161 0.10979,2.81302 0.24398,2.81302 0.13419,0 0.60512,-0.77144 1.0465,-1.714328 z M 78.271712,97.557521 C 78.597519,94.264775 74.2585,88.709094 70.370498,87.4408 c -2.182,-0.71178 -2.580215,-0.519807 -3.023601,1.457646 -0.66647,2.972383 3.151502,8.515541 6.418485,9.318735 0.763945,0.187822 1.530728,0.566135 1.703963,0.840708 0.173234,0.274567 0.837334,0.426299 1.475776,0.33718 0.866184,-0.12091 1.202882,-0.587293 1.326591,-1.837548 z m 7.389487,-1.243339 c 2.329605,-2.521555 3.089838,-8.565942 1.490568,-11.851077 -1.091935,-2.242995 -2.142552,-2.221135 -3.510388,0.07304 -1.168506,1.959854 -2.573725,6.984329 -2.573725,9.202569 0,3.513136 2.455388,4.889803 4.593545,2.57547 z M 160.279,96.569581 c 1.49,-0.7396 3.78991,-2.44968 5.11093,-3.800178 5.07564,-5.188935 3.72176,-9.838113 -2.03953,-7.003674 -2.12527,1.045589 -5.81629,3.881727 -5.81629,4.469163 0,0.136266 -0.60581,1.122212 -1.34624,2.190995 -1.27891,1.846051 -1.76495,4.374965 -0.98724,5.136767 0.68863,0.67455 2.38843,0.342154 5.07837,-0.993073 z m -47.97857,-4.212436 c 0,-3.244713 -0.0612,-3.415144 -1.04159,-2.901177 -0.57287,0.300325 -1.53397,0.546044 -2.13576,0.546044 -1.02359,0 -0.99114,0.149553 0.50309,2.318315 0.8785,1.275078 1.59727,2.580607 1.59727,2.901177 0,0.320575 0.24232,0.582862 0.5385,0.582862 0.30406,0 0.53849,-1.500731 0.53849,-3.447221 z m 39.9497,1.220953 c 0.98852,-0.456967 1.64478,-1.427179 2.26134,-3.343153 1.06132,-3.298053 1.07966,-4.948032 0.0953,-8.570602 -0.92241,-3.394424 -1.64386,-4.322014 -3.36153,-4.322014 -1.03096,0 -1.53408,0.494915 -2.35811,2.319684 -1.31965,2.922314 -1.19124,10.166624 0.22771,12.845561 1.01767,1.921323 1.17712,1.975765 3.13534,1.070524 z m -36.3626,-2.679195 c 0.97766,-0.572086 0.91929,-1.611831 -0.0696,-1.240106 -0.43477,0.163426 -0.93617,0.06627 -1.1142,-0.215916 -0.55513,-0.879853 -1.32628,0.02563 -1.32628,1.55732 0,1.86934 0.59948,2.463954 1.26866,1.258368 0.28632,-0.515814 0.84497,-1.127662 1.24145,-1.359666 z M 77.838451,89.939758 c -0.315747,-1.271291 -0.700284,-2.888228 -0.854526,-3.593193 -0.423109,-1.933809 -0.858479,-2.375669 -1.402509,-1.423415 -0.269905,0.472431 -0.922954,0.858968 -1.45122,0.858968 -0.528267,0 -1.115615,0.151958 -1.305218,0.337681 -0.316398,0.30993 5.085544,6.524067 5.434252,6.251309 0.08432,-0.06596 -0.105033,-1.160065 -0.420779,-2.43135 z m 2.853224,-1.513365 c 0.524593,-1.446828 0.884375,-2.80604 0.799516,-3.020474 -0.08486,-0.214436 -0.952944,-0.417051 -1.929079,-0.450256 -1.393145,-0.04739 -1.706119,0.114922 -1.455447,0.754806 0.175638,0.448348 0.462004,1.834731 0.636368,3.08085 0.174364,1.246114 0.469534,2.265666 0.655932,2.265666 0.186398,0 0.768118,-1.183764 1.29271,-2.630592 z m 30.421155,-0.983209 c 0.89565,-1.117528 0.49426,-2.607596 -1.62352,-6.027033 -2.09515,-3.382896 -3.68392,-4.907782 -6.17615,-5.927813 -2.41945,-0.99024 -2.25491,-1.022774 -2.87232,0.567949 -1.043621,2.688804 0.37147,5.951785 4.1719,9.619737 3.61297,3.487036 4.85177,3.823826 6.50009,1.76716 z m 8.55901,-0.737965 c 3.41321,-3.526581 5.02968,-9.943327 3.04581,-12.090661 -1.29696,-1.403821 -1.92729,-1.21776 -4.27264,1.261189 -3.31982,3.508937 -5.09403,8.15718 -4.29856,11.261774 0.51309,2.002493 3.38645,1.777683 5.52539,-0.432302 z m 38.93926,1.481721 c 0,-0.556751 -1.03343,-0.790655 -1.34081,-0.303479 -0.18603,0.29485 0.0395,0.53609 0.50129,0.53609 0.46174,0 0.83952,-0.104674 0.83952,-0.232611 z m 4.0228,-4.207661 c 2.99876,-2.937455 5.67014,-8.018768 5.67014,-10.785367 0,-2.062025 -0.60148,-2.708911 -2.51878,-2.708911 -3.66831,0 -10.09502,11.204082 -8.60639,15.004066 0.61744,1.576136 2.96917,0.925243 5.45503,-1.509788 z m -88.335912,0.446444 c 0.465414,-0.455899 0.843585,-0.871295 0.84038,-0.923102 -0.0496,-0.801489 -1.780032,-5.464697 -2.602788,-7.014038 -2.122122,-3.996197 -9.128137,-6.991849 -9.282581,-3.969071 -0.02436,0.476666 -0.156547,1.53948 -0.293761,2.361809 -0.436339,2.614988 3.263214,7.610428 7.069244,9.545472 2.051741,1.043137 3.203801,1.042847 4.269506,-0.0011 z m 8.038833,-2.790748 c 0.782665,-1.316339 1.054889,-2.75836 1.05614,-5.594584 0.0015,-3.366953 -0.176207,-4.049593 -1.494972,-5.743234 C 81.074827,69.24 80.21538,68.375054 79.988106,68.375054 c -0.227275,0 -0.857089,0.890134 -1.399587,1.978075 -1.360638,2.728661 -1.647113,10.333409 -0.456326,12.113623 1.155204,1.727019 2.886914,1.384445 4.204628,-0.831777 z m 29.851229,-5.106047 c -0.30497,-0.298735 -4.19559,1.064375 -4.19559,1.469959 0,0.219129 0.23211,0.398416 0.5158,0.398416 0.28369,0 1.1924,1.127503 2.01936,2.505562 l 1.50356,2.505562 0.16195,-3.357949 c 0.0891,-1.846872 0.0868,-3.43157 -0.005,-3.52155 z m 3.03975,1.766539 c 0.7629,-1.788539 0.74889,-1.908948 -0.25203,-2.165342 -0.94003,-0.240798 -1.05985,0.0012 -1.05985,2.140732 0,2.715436 0.16281,2.71849 1.31188,0.02461 z M 74.042521,75.714692 c -0.330589,-0.605084 -0.737131,-0.966874 -0.903427,-0.803978 -0.166295,0.162896 0.0041,0.657964 0.378814,1.100151 0.968116,1.14266 1.22996,0.994834 0.524613,-0.296173 z m 1.996807,-1.141668 c -0.149386,-0.362648 -0.27161,-0.06594 -0.27161,0.659358 0,0.725294 0.122224,1.022006 0.27161,0.659358 0.149386,-0.362647 0.149386,-0.956069 0,-1.318716 z m 34.332322,0.866666 c 1.07055,-0.402407 1.1284,-4.134423 0.0925,-5.965937 -1.12606,-1.990893 -6.36925,-6.912452 -7.71727,-7.243865 -2.14872,-0.528269 -2.831839,0.116653 -2.831839,2.673503 0,2.547622 1.739499,5.634372 4.666259,8.280313 2.6018,2.352156 4.04188,2.913228 5.79037,2.255986 z m 7.629,-1.894722 c 3.20605,-2.151907 6.31846,-10.148763 4.85359,-12.470522 -0.21227,-0.336432 -1.05107,-0.611694 -1.86401,-0.611694 -2.5756,0 -6.71221,5.24462 -7.3844,9.362343 -0.76714,4.69938 0.87042,6.085454 4.39482,3.719873 z M 75.077508,72.492479 C 76.018704,70.0002 74.665832,61.705036 73.011108,59.822302 72.68324,59.449255 72.08985,58.683434 71.692465,58.120478 c -0.68763,-0.974134 -0.769306,-0.93593 -1.691521,0.79123 -1.236796,2.316319 -1.258205,8.385449 -0.0393,11.142402 1.437478,3.251341 4.294586,4.61312 5.115869,2.438369 z m 37.011292,-4.42431 c -0.17978,-0.458905 -0.32686,-1.653186 -0.32686,-2.653958 0,-1.751551 -0.0705,-1.814937 -1.88474,-1.695251 -1.03661,0.06838 -1.88474,0.230618 -1.88474,0.360519 0,0.129901 0.78755,1.260891 1.75011,2.513312 1.7538,2.281918 2.9591,3.03985 2.34623,1.475378 z m 2.72526,-4.791518 c -0.80341,-0.786984 -1.97453,0.43342 -1.96606,2.048799 l 0.009,1.730887 1.13509,-1.736445 c 0.62431,-0.955045 0.99416,-1.874504 0.8219,-2.043241 z m -4.77531,-0.809449 c 0.35541,-0.348141 0.64619,-1.733004 0.64619,-3.077472 0,-2.004356 -0.39821,-3.006337 -2.21167,-5.564986 -3.08593,-4.353993 -4.25472,-5.494188 -5.63201,-5.494188 -1.35231,0 -1.89513,1.39772 -1.55951,4.015586 0.49978,3.898211 5.20279,10.34516 7.81463,10.712401 0.16289,0.0229 0.58696,-0.2432 0.94237,-0.591341 z m 6.171,-1.872578 c 2.20992,-2.260167 4.04416,-6.076741 4.40912,-9.174191 0.37799,-3.207984 0.0668,-3.916692 -1.93613,-4.409113 -1.18046,-0.29022 -1.64564,-0.05182 -2.80555,1.437808 -2.75632,3.539834 -3.69389,6.45143 -3.28419,10.19891 0.4281,3.915869 1.25572,4.361306 3.61675,1.946586 z m -5.52481,-6.725457 c 0,-0.435176 -0.23472,-0.79123 -0.5216,-0.79123 -0.28687,0 -0.38211,0.356054 -0.21163,0.79123 0.17048,0.435177 0.4052,0.791231 0.5216,0.791231 0.11639,0 0.21163,-0.356054 0.21163,-0.791231 z m 1.98045,-3.033048 c 1.36262,-2.508837 1.19887,-8.747276 -0.3323,-12.659683 -0.65287,-1.668177 -1.49555,-3.033049 -1.87262,-3.033049 -2.3603,0 -3.58872,5.847342 -2.53584,12.070818 0.87873,5.194185 3.00466,6.818377 4.74076,3.621914 z"
       style="fill:#000000;stroke-width:0.532963" />
  </g>
</svg>
