<?xml version="1.0" encoding="UTF-8" standalone="no"?>
<svg
   xmlns:dc="http://purl.org/dc/elements/1.1/"
   xmlns:cc="http://creativecommons.org/ns#"
   xmlns:rdf="http://www.w3.org/1999/02/22-rdf-syntax-ns#"
   xmlns:svg="http://www.w3.org/2000/svg"
   xmlns="http://www.w3.org/2000/svg"
   xmlns:sodipodi="http://sodipodi.sourceforge.net/DTD/sodipodi-0.dtd"
   xmlns:inkscape="http://www.inkscape.org/namespaces/inkscape"
   sodipodi:docname="flower6.svg"
   inkscape:version="1.0 (4035a4fb49, 2020-05-01)"
   id="svg395"
   version="1.1"
   viewBox="0 0 210 297"
   height="297mm"
   width="210mm">
  <defs
     id="defs389" />
  <sodipodi:namedview
     inkscape:window-maximized="0"
     inkscape:window-y="57"
     inkscape:window-x="177"
     inkscape:window-height="860"
     inkscape:window-width="1274"
     showgrid="false"
     inkscape:document-rotation="0"
     inkscape:current-layer="layer1"
     inkscape:document-units="mm"
     inkscape:cy="560"
     inkscape:cx="400"
     inkscape:zoom="0.35"
     inkscape:pageshadow="2"
     inkscape:pageopacity="0.0"
     borderopacity="1.0"
     bordercolor="#666666"
     pagecolor="#ffffff"
     id="base" />
  <metadata
     id="metadata392">
    <rdf:RDF>
      <cc:Work
         rdf:about="">
        <dc:format>image/svg+xml</dc:format>
        <dc:type
           rdf:resource="http://purl.org/dc/dcmitype/StillImage" />
        <dc:title></dc:title>
      </cc:Work>
    </rdf:RDF>
  </metadata>
  <g
     id="layer1"
     inkscape:groupmode="layer"
     inkscape:label="Layer 1">
    <path
       id="path425"
       d="m 94.838249,231.18565 c 0,-0.33742 0.304577,-2.1752 0.67684,-4.08396 0.636058,-3.26134 1.048791,-5.84462 3.481877,-21.79306 0.537166,-3.52103 1.255574,-7.44493 1.596444,-8.71979 0.34088,-1.27485 0.46002,-2.31792 0.26474,-2.31792 -0.3925,0 -4.222854,7.91363 -7.800008,16.11506 -3.755318,8.6099 -7.31234,16.15792 -7.862381,16.68401 -0.37627,0.35988 -0.657166,0.35279 -1.053859,-0.0266 -0.413384,-0.39538 0.126432,-1.89889 2.2906,-6.3798 1.557295,-3.22438 4.697652,-10.06671 6.978576,-15.2052 2.280925,-5.13848 5.217756,-11.38324 6.526301,-13.87725 2.626081,-5.00515 2.628701,-5.07557 0.367991,-9.89318 -0.455804,-0.97132 -1.433478,-3.65348 -2.172614,-5.96037 -1.432359,-4.47047 -4.513846,-11.64104 -7.172993,-16.69141 -1.28642,-2.44324 -2.031372,-3.30496 -3.603152,-4.16795 -1.089791,-0.59836 -3.187081,-1.79572 -4.660648,-2.6608 -3.35016,-1.96677 -6.478986,-2.12038 -9.858435,-0.48401 -3.734569,1.80834 -6.60899,1.35791 -13.888856,-2.17641 -3.145924,-1.52733 -4.730957,-2.5433 -4.731538,-3.03283 -9.23e-4,-0.71652 2.260484,-1.73224 5.192279,-2.33223 3.264849,-0.66814 -0.07233,-2.4178 -3.574712,-1.8742 -1.040583,0.16151 -1.741483,0.0346 -2.101638,-0.38043 -0.786317,-0.90618 1.513021,-1.64996 4.327654,-1.39989 l 2.228808,0.19802 -2.344211,-2.27031 c -1.289315,-1.24868 -2.344212,-2.50069 -2.344212,-2.78226 0,-1.2448 1.009031,-0.83245 3.4837,1.42367 2.041786,1.86146 2.799367,2.31156 3.266543,1.94072 0.498072,-0.39536 0.455359,-0.77486 -0.23582,-2.09525 -1.312145,-2.50667 -1.579867,-4.0159 -0.765401,-4.31483 0.666634,-0.24467 7.556673,2.34139 9.945837,3.73301 1.793839,1.04485 4.623451,3.70066 5.346601,5.01819 0.359906,0.65572 0.654374,1.7738 0.654374,2.48461 0,0.71081 0.345255,1.56507 0.767229,1.89834 0.421975,0.33327 1.114529,1.15064 1.53901,1.81637 0.764912,1.19965 8.772485,6.35395 8.772485,5.64666 0,-0.49439 -3.821731,-9.9308 -5.871475,-14.49754 -1.502621,-3.34777 -1.830934,-3.75737 -3.772757,-4.70679 -2.713508,-1.32672 -4.722062,-3.3517 -6.364833,-6.41686 -1.277964,-2.3845 -1.302872,-2.57564 -1.380857,-10.59621 -0.04367,-4.49234 -0.147541,-8.6584 -0.230807,-9.25789 -0.285212,-2.05348 1.157588,-1.49334 2.502665,0.9716 0.704796,1.29159 3.183245,4.19116 5.573291,6.52026 3.308476,3.22412 4.483084,4.69763 5.077965,6.37015 0.951556,2.6753 0.980306,5.87981 0.08148,9.08264 -1.023218,3.64609 -0.873558,4.77999 1.319942,10.00083 1.106801,2.63434 2.95692,7.17385 4.111379,10.08781 1.154458,2.91395 2.873193,6.88753 3.819413,8.83016 l 1.720406,3.53207 0.632133,-1.4349 c 0.347674,-0.7892 0.943127,-1.4349 1.323229,-1.4349 0.867197,0 0.863878,0.3994 -0.0277,3.33268 -0.712869,2.34537 -0.707524,2.38947 0.650612,5.36605 0.75316,1.65068 1.606138,3.89529 1.895505,4.98803 0.830039,3.13448 2.014899,6.18111 2.403879,6.18111 0.19577,0 0.26669,-0.24834 0.1576,-0.55188 -0.37765,-1.05086 -1.59209,-11.17487 -2.078746,-17.32921 -0.679435,-8.59233 -0.61156,-8.39018 -3.387754,-10.09001 -2.815215,-1.72372 -4.548938,-3.96309 -5.834001,-7.53551 -1.044142,-2.90266 -1.168634,-4.08131 -0.455109,-4.30879 0.304226,-0.097 0.217678,-0.65739 -0.235801,-1.52683 -0.862608,-1.65383 -1.791573,-6.18335 -1.445206,-7.04666 0.13649,-0.34019 0.666801,-0.61854 1.178467,-0.61854 0.926075,0 0.925895,-0.008 -0.03988,-1.78023 -1.194941,-2.1927 -1.700404,-7.09592 -0.882235,-8.5581 0.465463,-0.83185 0.444238,-1.25635 -0.114753,-2.29491 -0.377216,-0.70085 -0.927792,-2.06899 -1.223497,-3.0403 -2.004026,-6.58272 -2.075802,-7.28489 -0.744657,-7.28489 0.451869,0 0.322059,-0.68542 -0.497231,-2.62544 -0.652149,-1.54423 -1.186148,-3.86245 -1.296691,-5.629229 -0.103369,-1.652089 -0.487311,-3.897853 -0.853205,-4.990586 -0.365893,-1.092733 -0.811424,-3.310205 -0.990064,-4.927719 -0.270325,-2.447656 -0.201563,-3.006893 0.409968,-3.334219 0.663071,-0.35491 0.640577,-0.671097 -0.230515,-3.240185 -0.530911,-1.565797 -1.08379,-3.889963 -1.228622,-5.164819 -0.245726,-2.162971 -0.196213,-2.317919 0.740719,-2.317919 0.552228,0 1.464123,0.288562 2.026437,0.641243 l 1.022391,0.641242 -0.158343,-4.127785 c -0.08708,-2.270285 0.0776,-5.582227 0.365972,-7.359871 0.853893,-5.263789 2.028759,-4.990576 4.200281,0.976769 0.822706,2.260791 1.35232,4.618092 1.356082,6.035877 0.006,2.238797 0.04817,2.316251 1.12228,2.05841 1.664306,-0.399521 2.115191,0.860332 2.115191,5.91019 0,3.947866 0.08901,4.414876 0.879134,4.6125 1.111482,0.278 1.990574,4.012141 1.868533,7.937045 -0.04725,1.519658 0.184119,3.359048 0.514154,4.087537 0.342393,0.755757 0.606837,3.056479 0.615839,5.357819 0.0114,2.91585 0.166896,3.97784 0.561239,3.83311 0.300007,-0.11012 0.665775,-0.014 0.812823,0.21354 0.38558,0.59673 0.43289,8.84871 0.0615,10.73321 -0.265997,1.3498 -0.176301,1.6288 0.58483,1.81917 1.17361,0.29354 2.19612,5.15735 1.75414,8.34401 -0.28698,2.06919 -0.24587,2.20328 0.59707,1.94739 0.49791,-0.15115 1.02896,-0.0834 1.18012,0.15051 0.67323,1.04185 1.14865,5.09474 0.78116,6.6591 -0.32794,1.39598 -0.24837,1.80516 0.46461,2.38904 0.73019,0.59797 0.82591,1.15541 0.63282,3.68497 -0.31007,4.06169 -1.27368,6.58829 -3.49191,9.15573 -1.29556,1.49952 -1.79877,2.44837 -1.63316,3.07947 0.13165,0.50168 0.45957,4.09099 0.72871,7.97623 0.26915,3.88524 0.57741,7.46143 0.68503,7.94709 0.10762,0.48566 0.32568,2.27377 0.48458,3.97358 0.31125,3.32938 1.06912,6.62738 1.44119,6.27151 0.47884,-0.45798 3.48713,-11.43121 5.49119,-20.03 1.14731,-4.92277 2.50707,-9.88998 3.02168,-11.03823 l 0.93566,-2.08774 -1.17644,-2.50728 c -1.2942,-2.75827 -1.40132,-3.31559 -0.71519,-3.72117 0.25368,-0.14996 0.90926,0.45362 1.45684,1.34128 0.85038,1.37851 1.05888,1.50577 1.42942,0.8725 0.50723,-0.8669 2.16195,-6.48691 3.81799,-12.96726 l 1.16841,-4.57215 -1.69846,-2.9335 c -3.81098,-6.58218 -5.51229,-8.74524 -7.1203,-9.05284 -3.98503,-0.76229 -7.03644,-5.03614 -7.76711,-10.87873 -0.92707,-7.413164 -1.00539,-8.830163 -0.48803,-8.830163 0.98196,0 9.94782,9.051373 10.93342,11.037713 0.68313,1.37673 1.04713,3.13912 1.18546,5.73961 0.19507,3.66735 0.26018,3.84645 2.85903,7.86451 1.46268,2.26143 2.8083,3.9502 2.99026,3.75282 0.18197,-0.19738 1.01084,-2.34566 1.84193,-4.77395 0.8311,-2.4283 1.77946,-4.92059 2.10748,-5.53844 0.32801,-0.61784 0.92868,-2.34989 1.33483,-3.849 0.40615,-1.49911 0.84929,-3.0019 0.98475,-3.33953 0.19565,-0.48765 -0.20958,-0.57222 -1.97065,-0.41127 -2.04826,0.18719 -2.37501,0.0721 -4.29421,-1.51307 -1.14249,-0.94363 -2.63045,-2.04962 -3.30658,-2.45777 -0.71847,-0.43371 -1.36417,-1.329313 -1.55382,-2.155172 -0.17848,-0.777191 -0.71507,-2.025667 -1.19242,-2.774385 -1.23445,-1.936196 -1.09258,-2.783322 0.7634,-4.558469 l 1.63477,-1.563575 -0.9116,-0.930947 c -1.8833,-1.923259 -2.072,-3.335993 -0.80211,-6.005247 0.63619,-1.337241 1.27911,-2.984314 1.42873,-3.660166 0.14961,-0.675857 0.72169,-1.569911 1.2713,-1.986788 0.5496,-0.416881 1.79829,-1.503009 2.77487,-2.41362 0.97658,-0.910611 2.19333,-1.655657 2.70391,-1.655657 1.13902,0 3.27885,1.024609 4.0885,1.957675 0.80464,0.927309 1.28838,0.870676 1.64106,-0.192109 0.38856,-1.170929 1.80659,-1.869996 4.61598,-2.275614 1.26944,-0.183279 2.97801,-0.463337 3.79682,-0.622355 1.1901,-0.231116 1.76664,-0.06547 2.87402,0.825749 0.76191,0.613176 1.99189,1.242299 2.73331,1.398045 2.19976,0.462109 2.98531,1.644363 2.71366,4.08409 -0.12919,1.160173 -0.38612,2.457095 -0.57097,2.882047 -0.28101,0.646024 -0.0821,0.773042 1.21355,0.775103 4.11825,0.0065 6.39657,1.677189 6.39657,4.69048 0,0.662602 0.253,1.873916 0.56223,2.691814 0.47022,1.243743 0.43245,1.836552 -0.23081,3.622669 -0.43617,1.174572 -0.79964,2.506276 -0.80771,2.959343 -0.0283,1.588666 -1.23696,2.486421 -3.64548,2.707766 l -2.3075,0.212066 0.26788,1.869247 c 0.32999,2.30269 -0.52908,3.72583 -2.96392,4.91005 -0.94743,0.4608 -2.35064,1.27408 -3.11823,1.80729 -1.12301,0.7801 -2.13032,0.9903 -5.157,1.07615 -4.14805,0.11764 -4.93933,-0.21325 -5.94717,-2.48696 -0.39948,-0.90123 -0.65595,-1.11299 -0.80229,-0.66243 -0.5852,1.8017 -3.64325,10.46307 -5.14413,14.56977 -0.93184,2.54971 -2.29338,7.01999 -3.02565,9.93394 -2.09552,8.33884 -4.44619,16.18052 -6.02181,20.08828 -1.46171,3.62525 -1.4848,4.96258 -0.0562,3.2521 0.42694,-0.51117 2.32499,-2.69367 4.21791,-4.85 3.36979,-3.83873 4.95634,-5.48929 14.01862,-14.58412 2.64511,-2.65461 4.46636,-4.84832 4.46636,-5.37974 0,-0.49353 0.23506,-1.45663 0.52235,-2.14022 0.28729,-0.68359 0.54695,-2.83232 0.57701,-4.77496 0.0659,-4.25752 0.64217,-5.20288 5.45729,-8.95254 5.1019,-3.973 4.87999,-3.85559 5.80122,-3.06924 0.43897,0.37469 1.31743,0.74938 1.95215,0.83266 1.07677,0.14128 1.18221,-0.0186 1.57496,-2.38726 0.26947,-1.62521 0.64318,-2.53867 1.03863,-2.53867 0.61283,0 0.7807,0.76228 0.72922,3.31131 l -0.0267,1.32452 1.55262,-1.76368 c 1.1654,-1.32383 1.68434,-1.63772 2.08073,-1.2586 0.77777,0.74389 0.19723,1.97306 -1.82303,3.85987 l -1.79384,1.67534 0.988,1.48428 c 0.64733,0.97248 1.35878,1.49072 2.06331,1.50296 0.96645,0.0168 1.04407,0.16396 0.76682,1.45359 -1.1387,5.29645 -7.77251,10.76889 -13.3093,10.97926 -2.22392,0.0845 -2.81641,0.27747 -3.38064,1.10108 -0.37627,0.54925 -1.34396,1.1358 -2.15043,1.30343 -0.98576,0.20491 -2.66623,1.46439 -5.12778,3.84317 l -3.66149,3.53838 2.04584,0.72281 c 1.15081,0.40659 2.04584,1.00704 2.04584,1.3725 0,0.6789 -0.4933,0.70435 -3.718,0.1918 -1.84519,-0.29328 -1.91409,-0.25485 -4.89362,2.72926 -3.01988,3.02454 -7.14819,7.50681 -11.98337,13.01087 -2.3884,2.71878 -2.62085,3.19035 -3.37337,6.84338 -0.6999,3.39757 -2.4382,9.90206 -3.9098,14.62996 -0.24564,0.78919 -0.30533,1.42745 -0.13264,1.41835 0.47449,-0.025 2.81723,-3.98985 9.18614,-15.54662 3.1783,-5.76721 5.9682,-10.48583 6.1998,-10.48583 1.09805,0 0.73693,1.56459 -1.22235,5.29582 -1.17484,2.23736 -2.07032,4.13081 -1.98997,4.20766 0.14487,0.13856 4.17189,-1.48142 6.35681,-2.55721 0.69414,-0.34176 1.25257,-1.10132 1.4342,-1.95075 0.46959,-2.196 2.53914,-5.20606 4.9147,-7.14818 1.80056,-1.47205 3.43366,-2.17863 9.31286,-4.02936 3.92118,-1.23436 7.40617,-2.14271 7.74443,-2.01856 0.99673,0.36582 0.71652,1.4405 -0.958,3.6741 -0.86514,1.154 -2.59407,4.18431 -3.84206,6.73403 -2.48297,5.07285 -4.39853,7.12814 -7.3821,7.9206 -2.49171,0.66182 -3.77421,0.56908 -6.10289,-0.44132 -1.12814,-0.48948 -2.68609,-0.90222 -3.4621,-0.91719 -1.20875,-0.0233 -6.6745,2.00523 -9.10379,3.37876 -0.42275,0.23903 -2.56911,3.50029 -4.76969,7.24725 -2.20058,3.74696 -5.02779,8.30208 -6.28269,10.12249 -1.25489,1.82041 -2.39044,3.72451 -2.52344,4.23134 -0.133,0.50683 0.30855,2.11075 0.98123,3.56427 1.71363,3.70284 4.01814,9.77571 5.77783,15.22575 2.32256,7.19335 6.32567,17.85517 8.08581,21.53564 1.28257,2.68187 1.39669,3.63034 0.4368,3.63034 -1.11929,0 -3.7326,-6.05608 -8.38284,-19.42637 -5.04148,-14.49522 -5.73092,-16.33573 -6.11927,-16.33602 -0.15593,-1.1e-4 -0.2233,7.93043 -0.14973,17.62342 0.1318,17.36366 0.003,19.10888 -1.31477,17.84827 -0.22447,-0.21469 -0.42713,-8.27959 -0.45035,-17.92198 -0.0232,-9.64239 -0.20324,-17.6268 -0.40004,-17.74314 -0.50065,-0.29594 -1.78946,6.51884 -3.752288,19.84076 -0.500897,3.39962 -1.377875,8.71411 -1.948849,11.80997 -0.864575,4.68784 -1.173177,5.62892 -1.845951,5.62924 -0.444303,2.1e-4 -0.807824,-0.2757 -0.807824,-0.61311 z M 138.67851,160.3506 c 1.24911,-0.89198 4.35715,-6.10693 4.90317,-8.22697 l 0.33682,-1.30776 -1.80566,1.35428 c -0.99312,0.74486 -4.14258,2.7934 -6.99881,4.55231 -2.85624,1.75891 -5.19316,3.27717 -5.19316,3.3739 0,0.0967 0.67511,0.4698 1.50025,0.82903 1.91824,0.83513 5.7027,0.5354 7.25739,-0.57479 z m -1.42461,-7.12042 c 6.4583,-4.16396 8.5612,-5.75915 7.59218,-5.75915 -1.03924,0 -9.27808,2.7129 -10.36816,3.41405 -2.16927,1.39528 -5.48027,5.64704 -5.48027,7.03738 0,0.50574 1.63812,-0.42525 8.25625,-4.69228 z m -38.749748,-5.21492 c -0.687647,-2.04214 -1.123369,-2.5757 -3.388954,-4.1499 -2.356684,-1.63751 -3.249172,-1.64908 -2.834288,-0.0368 0.555736,2.15968 2.571501,4.97114 4.550059,6.34614 1.856291,1.29002 1.936741,1.30608 2.079551,0.41523 0.08171,-0.50969 -0.101158,-1.66831 -0.406368,-2.5747 z m -26.470132,2.27527 c 0.863504,-0.39191 1.570008,-0.97442 1.570008,-1.29446 0,-0.70339 -2.60651,-2.55662 -3.146708,-2.2373 -0.210829,0.12462 -2.341438,-0.0757 -4.734687,-0.44526 -4.087763,-0.63114 -8.275077,-0.52244 -8.275077,0.21482 0,0.45351 4.36312,2.67486 7.155009,3.64275 2.885297,1.00028 5.401607,1.04073 7.431455,0.11945 z m 30.94548,-2.13219 c 1.11038,-1.88287 1.82965,-5.89706 1.16972,-6.52824 -0.55757,-0.5333 -3.66079,2.39511 -4.03032,3.80327 -0.365063,1.39121 0.6194,4.79179 1.32317,4.57057 0.30315,-0.0953 0.99499,-0.92581 1.53743,-1.8456 z m -25.040321,0.009 c -0.333484,-0.83119 -1.607809,-1.27402 -2.156377,-0.74934 -0.659549,0.63082 0.04298,1.37746 1.296082,1.37746 0.772196,0 1.035246,-0.19206 0.860295,-0.62812 z m -2.749439,-2.4308 c 1.408862,-1.48897 -0.402883,-4.95046 -3.740708,-7.14692 -2.16338,-1.42362 -7.487621,-3.67712 -7.85579,-3.32499 -0.579246,0.55402 1.787026,3.49031 5.791966,7.18721 2.447295,2.25907 4.573228,4.11384 4.724291,4.12173 0.151068,0.008 0.637175,-0.36877 1.080241,-0.83703 z m -8.131507,-3.10536 c -1.350616,-1.20489 -2.708018,-2.19829 -3.016445,-2.20755 -0.771786,-0.0232 -1.605155,1.58837 -1.430065,2.76537 0.148367,0.99736 1.57719,1.41518 5.369737,1.57023 l 1.532442,0.0626 -2.455669,-2.19071 z M 96.935659,139.746 c -0.290415,-2.22316 -0.459933,-2.47447 -2.817601,-4.177 -3.166244,-2.28642 -4.092213,-2.66155 -3.752872,-1.52038 0.137289,0.46169 0.396272,1.53208 0.575517,2.37864 0.229172,1.08237 1.15967,2.30751 3.13508,4.12778 1.545048,1.42371 2.890111,2.35634 2.989031,2.0725 0.09892,-0.28382 0.04081,-1.58052 -0.129155,-2.88154 z m 4.346031,0.68945 c 0.80406,-1.19845 1.67433,-2.91476 1.93394,-3.81403 0.54629,-1.89231 0.13216,-4.74068 -0.65287,-4.49041 -0.29236,0.0932 -1.33919,1.30042 -2.32627,2.68268 -1.739585,2.43601 -1.784851,2.59439 -1.473885,5.15698 0.176447,1.45407 0.48649,2.64378 0.688981,2.64378 0.202492,0 1.026034,-0.98055 1.830104,-2.179 z m -5.53987,-9.59562 c -0.519338,-3.20394 -0.71557,-3.61118 -2.676504,-5.55459 -1.163843,-1.15344 -2.279678,-2.09716 -2.47964,-2.09716 -0.877897,0 -0.250596,3.38321 1.113305,6.00435 1.383073,2.65799 3.939987,5.73921 4.398609,5.30056 0.11256,-0.10766 -0.04754,-1.75158 -0.35577,-3.65316 z m 3.962426,0.62653 c 0.944044,-2.92839 1.346274,-7.29609 0.798134,-8.66659 -0.40718,-1.01807 -0.46697,-0.98391 -1.93212,1.10377 -1.447505,2.06253 -1.500719,2.28798 -1.248775,5.29015 0.441274,5.25822 1.190053,5.97241 2.382761,2.27267 z m -22.63814,-4.15779 c -1.103833,-2.59032 -2.383703,-5.96786 -2.844162,-7.50564 -0.460455,-1.53779 -1.023887,-2.79598 -1.252067,-2.79598 -0.23215,0 -0.314728,1.83119 -0.187498,4.15767 0.193268,3.53401 0.423064,4.47774 1.531938,6.29149 1.397138,2.28526 3.541587,4.56213 4.296791,4.56213 0.254081,0 -0.441169,-2.11935 -1.545002,-4.70967 z m 5.073372,3.93703 c 0.178853,-0.42495 0.42986,-2.36207 0.557796,-4.3047 0.214544,-3.25775 0.130387,-3.71688 -1.083619,-5.91172 -1.219653,-2.20504 -6.320122,-7.10984 -6.858248,-6.59515 -0.618672,0.59173 5.848939,17.58421 6.692833,17.58421 0.201328,0 0.512386,-0.34769 0.691238,-0.77264 z m 58.860122,-4.13801 c 0,-0.45593 -0.20042,-0.82896 -0.44538,-0.82896 -0.63098,0 -1.50193,1.69427 -1.15052,2.23811 0.42244,0.65376 1.5959,-0.38238 1.5959,-1.40915 z m 8.39375,-1.74955 c 2.76023,-1.39798 6.83949,-5.34829 6.83949,-6.6233 0,-0.191 -1.80463,0.23617 -4.01031,0.94926 -2.20566,0.71309 -4.46305,1.29653 -5.0164,1.29653 -1.34023,0 -4.32727,4.27732 -3.68315,5.27412 0.28558,0.44196 4.49766,-0.20138 5.87037,-0.89661 z m -6.95602,-1.83884 c 0.30084,-0.54636 1.41805,-2.2848 2.48268,-3.8632 1.81551,-2.69162 3.7067,-6.98051 3.26454,-7.40342 -0.49231,-0.47086 -6.14669,3.9649 -7.08105,5.55497 -1.41338,2.40523 -1.30788,6.70505 0.1645,6.70505 0.34229,0 0.86849,-0.44703 1.16933,-0.9934 z m -47.341307,-0.88301 c -0.121788,-0.54637 -0.443652,-2.09706 -0.715256,-3.44598 -0.413902,-2.05563 -0.926316,-2.90936 -3.165967,-5.27478 -1.469681,-1.55221 -2.785459,-2.63401 -2.923952,-2.40401 -0.521725,0.86645 1.838269,6.36252 3.943919,9.18481 2.245897,3.01026 3.251859,3.69231 2.861256,1.93996 z m 2.812809,-3.54136 c 0.60945,-2.45653 1.000977,-5.16652 0.853875,-5.9102 -0.0885,-0.44743 -0.176808,-1.27227 -0.196232,-1.83297 -0.05044,-1.45585 -0.889862,-0.78658 -1.985959,1.58341 -0.743197,1.60694 -0.862635,2.50392 -0.613664,4.60867 0.170022,1.43737 0.432043,2.91975 0.58227,3.29417 0.241895,0.60292 0.321306,0.59845 0.694345,-0.0391 0.23167,-0.39594 0.531082,-1.16273 0.665365,-1.70399 z m 51.792538,-0.36503 c 1.60737,-0.53593 1.97624,-1.87811 0.64994,-2.36489 -0.86379,-0.31703 -2.42751,1.12347 -2.42751,2.23623 0,0.73713 -0.0389,0.73431 1.77757,0.12866 z m 4.65405,-2.27473 c 0.27752,-0.68766 0.20292,-1.19139 -0.24238,-1.63673 -0.9071,-0.90718 -1.70676,-0.0197 -1.31781,1.46249 0.37511,1.42945 1.02438,1.50196 1.56019,0.17424 z m -3.28362,-3.3459 c 0.16988,-1.10421 -0.60368,-1.30147 -1.02135,-0.26043 -0.43867,1.09336 -0.33156,1.59893 0.29682,1.401 0.31736,-0.1 0.6434,-0.61322 0.72453,-1.14057 z m -58.96147,-5.17451 c -0.849807,-3.9787 -1.077124,-4.46957 -2.886289,-6.23269 -1.080107,-1.05261 -2.115247,-1.913843 -2.300313,-1.913843 -0.694719,0 0.212324,3.427203 1.752742,6.622623 1.773436,3.67879 3.967651,6.95796 4.203328,6.28173 0.08414,-0.24144 -0.262118,-2.38246 -0.769468,-4.75782 z m 16.20753,-0.70645 c -1.5051,-2.49157 -2.94747,-4.59736 -3.20525,-4.67955 -0.63394,-0.20211 0.0936,3.44728 1.08607,5.4476 0.82808,1.66905 4.4562,4.90847 4.70331,4.19943 0.0838,-0.24055 -1.07903,-2.47591 -2.58413,-4.96748 z m -11.906096,-0.0262 c 0.822185,-3.80908 0.935659,-6.8676 0.290969,-7.842603 -0.236194,-0.357211 -0.501312,-0.55589 -0.589148,-0.441508 -2.395843,3.119901 -2.774952,4.150291 -2.50062,6.796461 0.152997,1.47575 0.512239,3.46704 0.798323,4.42508 0.650756,2.17928 1.009863,1.65197 2.000476,-2.93743 z m 16.613126,2.40968 c -0.15008,-0.91061 -0.55472,-2.30346 -0.8992,-3.09523 -0.64464,-1.48168 -5.0993,-6.28684 -5.82825,-6.28684 -0.22486,0 0.36196,1.1424 1.30405,2.53867 0.94209,1.39627 2.22407,3.43273 2.84885,4.52546 2.56804,4.49149 2.99633,4.8771 2.57455,2.31792 z m 27.05148,-3.86322 c 0.86031,-0.60707 1.80743,-1.10377 2.10469,-1.10377 0.29727,0 1.10975,-0.42828 1.80551,-0.95173 1.0708,-0.80561 1.22535,-1.1856 1.00658,-2.475 -0.14214,-0.83779 -0.56895,-1.976507 -0.94845,-2.530477 -0.87782,-1.281363 -6.67077,-5.175763 -7.36726,-4.952753 -0.28863,0.09242 -0.52478,0.945866 -0.52478,1.896553 0,2.133765 -1.24596,2.44532 -1.61565,0.403993 -0.35145,-1.940632 -1.01268,-1.537116 -2.26608,1.382879 -1.46871,3.421615 -1.79022,6.851075 -0.78047,8.325025 0.68777,1.00396 1.05645,1.10905 3.89073,1.10905 2.61485,0 3.38883,-0.18195 4.69518,-1.10377 z m -12.87804,-3.43738 c 1.55639,-1.00129 3.28987,-4.242671 3.94534,-7.377275 0.3392,-1.622141 -0.46698,-1.754567 -2.71188,-0.44546 -0.83127,0.484755 -1.77106,0.882112 -2.08842,0.883017 -1.14216,0.0031 -0.54432,-1.335015 1.03292,-2.31221 1.66867,-1.033845 2.04831,-1.850048 1.03371,-2.22243 -1.02124,-0.374818 -6.93114,0.133526 -9.44139,0.812111 -3.11748,0.842738 -3.77004,1.87815 -2.46071,3.904426 0.52218,0.808093 0.94941,1.890345 0.94941,2.405002 0,0.599145 0.62268,1.315775 1.73105,1.992228 0.95208,0.581061 2.23464,1.576951 2.85015,2.213081 1.3923,1.43896 3.07753,1.48713 5.15982,0.14751 z m -36.8356,-5.483888 c -0.803346,-4.069255 -1.080701,-4.616849 -3.075472,-6.072069 -2.085399,-1.521332 -2.640609,-1.446377 -2.319852,0.313184 0.616245,3.380475 1.690442,5.648384 3.4911,7.37062 1.029721,0.984873 2.030554,1.790683 2.224072,1.790683 0.193517,0 0.04958,-1.531089 -0.319848,-3.402418 z m 4.326491,0.723147 c 1.051754,-1.966872 1.425707,-5.947661 0.77648,-8.265717 -0.270136,-0.964515 -0.323637,-0.976012 -1.162633,-0.249801 -0.483706,0.418682 -1.311906,1.430469 -1.840444,2.248412 -0.905944,1.402001 -0.928129,1.689154 -0.387372,5.013893 0.344317,2.116971 0.772298,3.463373 1.070666,3.36825 0.273382,-0.08716 0.96787,-1.038927 1.543303,-2.115037 z m 55.274089,-0.679283 c 0.40159,-0.147393 0.73017,-0.719169 0.73017,-1.270604 0,-0.551439 0.33191,-1.762373 0.73756,-2.690967 0.59268,-1.356707 0.63802,-2.006121 0.23081,-3.306077 -0.27871,-0.889754 -0.50676,-2.141046 -0.50676,-2.780655 0,-0.639609 -0.43873,-1.582551 -0.97496,-2.095425 -0.81927,-0.783585 -1.39167,-0.903675 -3.58426,-0.751986 -2.29141,0.158528 -2.93403,0.433495 -5.27478,2.257031 -1.46602,1.142076 -2.50161,2.107628 -2.30131,2.145673 0.20029,0.03806 1.18982,0.08771 2.19895,0.110377 1.29653,0.02914 1.87846,0.250371 1.98369,0.754198 0.11539,0.552459 -0.37566,0.779549 -2.18098,1.008604 -2.00512,0.254401 -2.32978,0.431967 -2.32902,1.273796 4.6e-4,0.673145 0.68439,1.420014 2.19267,2.394988 4.0777,2.635898 7.18488,3.645946 9.07822,2.951047 z M 135.76278,92.07445 c 1.37983,-0.924377 1.61094,-2.681938 0.52611,-4.00101 -1.09334,-1.329422 -2.60979,-1.39182 -4.2285,-0.173994 -3.13307,2.357138 0.42567,6.370149 3.70239,4.175004 z m -2.61061,-1.945449 c 0,-0.578968 1.19326,-1.41465 1.54272,-1.080415 0.63196,0.604443 0.26757,1.467865 -0.61949,1.467865 -0.50778,0 -0.92323,-0.174351 -0.92323,-0.38745 z m -44.516686,-4.31759 c -0.753917,-3.486773 -2.184859,-6.069619 -3.938533,-7.109049 -1.258017,-0.74565 -1.229618,-0.286547 0.244083,3.94584 1.105795,3.175792 3.669749,7.349027 4.202211,6.839755 0.130885,-0.125185 -0.09761,-1.779632 -0.507761,-3.676546 z m 36.680156,3.194742 c 3.56761,-0.189461 4.60709,-0.824213 2.56549,-1.566618 -0.65535,-0.238313 -1.19155,-0.736233 -1.19155,-1.106486 0,-0.787157 1.48442,-0.889569 2.83956,-0.195911 0.51283,0.262504 1.01586,0.397473 1.11785,0.29993 0.10198,-0.09755 -0.2274,-1.30075 -0.73196,-2.673792 -0.50456,-1.373043 -0.91738,-2.899421 -0.91738,-3.39195 0,-1.089325 -4.14315,-5.307668 -5.21305,-5.307668 -0.42166,0 -1.11387,0.506851 -1.53826,1.126336 -0.42438,0.619485 -1.35631,1.415529 -2.07093,1.768983 -0.91837,0.454219 -1.45378,1.19122 -1.82608,2.513626 -0.28971,1.029037 -0.92823,2.623677 -1.41893,3.543639 -0.85354,1.600208 -0.85748,1.728863 -0.0909,2.970001 0.88703,1.436218 3.2234,2.735851 4.33451,2.411126 0.3939,-0.115119 2.25765,-0.291171 4.14166,-0.391216 z M 92.497499,86.910864 c 0.536732,-1.607642 0.766606,-9.084878 0.293212,-9.537649 -0.135982,-0.130064 -0.797077,0.912209 -1.469099,2.316157 -1.046117,2.185506 -1.183826,2.942079 -0.957483,5.2604 0.450553,4.614681 1.060299,5.175189 2.13337,1.961092 z m 47.374981,-1.910738 c 4.29374,-3.365155 5.83625,-9.053452 2.45506,-9.053452 -0.43753,0 -1.44724,-0.524525 -2.24382,-1.165613 -1.33272,-1.07256 -1.58856,-1.125427 -3.20487,-0.662262 -0.96609,0.276843 -2.36132,0.50335 -3.10051,0.50335 -3.37987,0 -4.06019,2.010572 -2.5397,7.505643 0.70085,2.532903 0.9253,2.869804 1.91189,2.869804 0.89681,0 1.18022,-0.291797 1.4334,-1.475808 0.40259,-1.882711 1.02737,-2.504628 1.71734,-1.709472 0.35595,0.410219 0.3898,1.055647 0.10515,2.004943 -0.31922,1.064592 -0.25377,1.558767 0.27321,2.062798 0.92924,0.888765 0.93983,0.885847 3.19285,-0.879931 z M 89.703943,74.401395 c -0.03665,-2.185466 -0.375208,-4.966969 -0.752356,-6.181117 -0.649111,-2.089676 -0.709472,-2.148609 -1.130514,-1.103771 -0.622643,1.545105 -0.241627,10.132542 0.507068,11.428488 0.986048,1.706784 1.450445,0.308116 1.375802,-4.1436 z"
       style="fill:#000000;stroke-width:0.451449" />
  </g>
</svg>
