<?xml version="1.0" encoding="UTF-8" standalone="no"?>
<svg
   xmlns:dc="http://purl.org/dc/elements/1.1/"
   xmlns:cc="http://creativecommons.org/ns#"
   xmlns:rdf="http://www.w3.org/1999/02/22-rdf-syntax-ns#"
   xmlns:svg="http://www.w3.org/2000/svg"
   xmlns="http://www.w3.org/2000/svg"
   xmlns:sodipodi="http://sodipodi.sourceforge.net/DTD/sodipodi-0.dtd"
   xmlns:inkscape="http://www.inkscape.org/namespaces/inkscape"
   sodipodi:docname="flower4.svg"
   inkscape:version="1.0 (4035a4fb49, 2020-05-01)"
   id="svg8"
   version="1.1"
   viewBox="0 0 210 297"
   height="297mm"
   width="210mm">
  <defs
     id="defs2">
    <inkscape:path-effect
       only_selected="false"
       apply_with_weight="true"
       apply_no_weight="true"
       helper_size="0"
       steps="2"
       weight="33.333333"
       lpeversion="1"
       is_visible="true"
       id="path-effect331"
       effect="bspline" />
  </defs>
  <sodipodi:namedview
     inkscape:window-maximized="0"
     inkscape:window-y="0"
     inkscape:window-x="52"
     inkscape:window-height="860"
     inkscape:window-width="1274"
     showgrid="false"
     inkscape:document-rotation="0"
     inkscape:current-layer="layer1"
     inkscape:document-units="mm"
     inkscape:cy="590.1402"
     inkscape:cx="400"
     inkscape:zoom="0.35"
     inkscape:pageshadow="2"
     inkscape:pageopacity="0.0"
     borderopacity="1.0"
     bordercolor="#666666"
     pagecolor="#ffffff"
     id="base" />
  <metadata
     id="metadata5">
    <rdf:RDF>
      <cc:Work
         rdf:about="">
        <dc:format>image/svg+xml</dc:format>
        <dc:type
           rdf:resource="http://purl.org/dc/dcmitype/StillImage" />
        <dc:title></dc:title>
      </cc:Work>
    </rdf:RDF>
  </metadata>
  <g
     id="layer1"
     inkscape:groupmode="layer"
     inkscape:label="Layer 1">
    <ellipse
       ry="37.797619"
       rx="38.175598"
       cy="102.80952"
       cx="55.5625"
       id="path335"
       style="fill:none;stroke-width:0.264583" />
    <path
       id="path363"
       d="m 139.82168,239.91771 c -5.60366,-5.09984 -13.21407,-16.64351 -18.35905,-27.84748 -1.05404,-2.29534 -3.0394,-6.08681 -4.41189,-8.42549 -2.9872,-5.09008 -15.3759,-20.0537 -21.618152,-26.11135 -2.458403,-2.38571 -5.561144,-5.73188 -6.89498,-7.43596 -1.333844,-1.70408 -2.482899,-3.16959 -2.553464,-3.25669 -0.07058,-0.0871 -2.446608,-0.67834 -5.2801,-1.31384 -6.0208,-1.35034 -10.237767,-3.78661 -13.772978,-7.95709 -2.684865,-3.16731 -5.971698,-8.90767 -5.971698,-10.4294 0,-1.84592 5.907128,0.17148 12.15005,4.14948 2.397514,1.5277 3.808231,2.10499 3.808231,1.55842 0,-0.884 -9.607224,-14.91126 -11.246931,-16.42136 -0.732417,-0.67452 -0.989731,-0.41704 -1.385847,1.38672 -0.553072,2.51849 -2.124472,3.46942 -5.73321,3.46942 -2.876191,0 -4.690727,-1.80046 -5.358769,-5.31719 -0.221374,-1.16533 -0.6046,-2.10992 -0.851613,-2.0991 -0.247024,0.0109 -1.575884,0.98679 -2.953023,2.16883 -4.162893,3.57309 -8.739439,2.53093 -8.739439,-1.99012 0,-2.01173 -0.144792,-2.16068 -1.763094,-1.81371 -2.393701,0.51323 -5.262072,-0.51119 -5.848138,-2.08859 -0.303502,-0.8169 0.06694,-2.09048 1.001766,-3.44398 l 1.483357,-2.14772 -2.456191,-0.87671 c -2.694159,-0.96163 -4.023723,-2.5717 -4.023723,-4.87264 0,-1.76658 2.060389,-3.54493 4.10713,-3.54493 2.318527,0 2.46621,-0.61628 0.75875,-3.16622 -1.486217,-2.21951 -1.521627,-2.5149 -0.491189,-4.09725 1.785354,-2.74156 4.304631,-3.12632 8.594638,-1.31264 l 3.651947,1.54394 -0.427474,-2.66419 c -0.553278,-3.44835 1.075109,-5.795217 4.021048,-5.795217 2.739307,0 4.47362,1.788077 5.496141,5.666497 l 0.84612,3.20935 1.553376,-2.24909 c 2.653615,-3.84209 8.437779,-3.72913 9.353614,0.18269 0.240254,1.02622 0.510524,1.86584 0.600603,1.86584 0.09001,0 1.197327,-0.3078 2.460556,-0.68398 1.864817,-0.55534 2.635526,-0.49438 4.097815,0.32412 1.962294,1.09836 2.25217,2.55401 0.982615,4.93431 -0.685959,1.28611 -0.568572,1.8058 0.725376,3.21104 0.849078,0.92212 1.543789,2.34995 1.543789,3.17295 0,2.12479 -1.902252,4.99503 -3.618931,5.46048 -1.533477,0.41576 -1.994293,1.91518 -0.701709,2.28326 0.41635,0.11855 0.81134,1.37963 0.877751,2.8024 0.138119,2.95887 -1.629752,5.14094 -4.165093,5.14094 -0.869063,0 -1.773341,0.16505 -2.0095,0.3668 -0.23616,0.20174 1.258409,2.50224 3.321268,5.11222 2.062848,2.60998 5.131394,6.9762 6.818989,9.70272 l 3.068362,4.95731 -0.418831,-4.64747 c -0.369209,-4.09683 -0.148203,-5.36333 1.865368,-10.68919 1.256308,-3.32295 2.549996,-6.04172 2.874856,-6.04172 0.32486,0 1.309711,1.60337 2.188563,3.56306 3.84987,8.58455 4.822318,19.43211 2.292218,25.56954 -1.74889,4.24241 -1.363098,4.91529 8.152178,14.21847 1.924523,1.88163 6.606822,7.13881 10.405102,11.68264 3.79827,4.54382 7.0199,8.16415 7.15917,8.04518 0.13927,-0.11897 -1.16277,-3.83386 -2.89343,-8.25531 -5.35923,-13.69171 -7.60789,-27.10658 -8.17519,-48.7707 l -0.4013,-15.32551 -3.708677,-1.79764 c -5.187374,-2.51436 -10.197317,-6.45412 -13.407428,-10.54342 -2.9282,-3.73019 -7.107309,-11.6403 -6.447596,-12.20386 0.622981,-0.532192 13.734113,5.25083 15.964999,7.0418 2.156015,1.73085 2.662747,1.22067 0.910377,-0.91658 -1.092344,-1.33227 -2.586422,-4.46884 -8.356474,-17.543086 -1.729733,-3.91937 -3.600001,-7.44987 -4.156162,-7.845549 -0.780439,-0.555256 -2.516382,-0.367084 -7.607252,0.824622 -6.876183,1.609625 -10.530177,1.575537 -12.17114,-0.113553 -1.193536,-1.228526 -0.329131,-3.821668 1.562138,-4.68634 1.473392,-0.673617 1.421485,-0.757972 -1.256275,-2.041115 -3.583911,-1.717359 -5.347807,-4.192542 -3.986407,-5.593886 0.525883,-0.541294 2.227949,-1.276723 3.782375,-1.634288 2.467229,-0.567536 2.732928,-0.799074 2.091629,-1.822701 -2.590334,-4.134723 1.078024,-6.694495 6.700509,-4.675595 0.998256,0.35845 1.274332,0.143823 1.292475,-1.004722 0.05654,-3.575612 3.626113,-4.698337 6.533231,-2.054829 1.661839,1.511148 1.752881,1.525252 2.261653,0.35034 0.291565,-0.673308 1.19389,-1.527663 2.005158,-1.898568 1.189545,-0.543841 1.759067,-0.431745 2.942424,0.579155 1.175604,1.004277 1.473125,2.08523 1.496286,5.436257 l 0.02887,4.182727 1.416283,-2.4246 c 2.080214,-3.561223 3.618614,-4.787252 5.741829,-4.575941 1.399138,0.139245 1.906055,0.58891 2.075489,1.841089 0.411433,3.040693 -1.31831,6.8556 -4.099385,9.041059 -1.459263,1.146737 -2.564519,2.458391 -2.456133,2.914791 0.108393,0.456401 -1.115679,1.78973 -2.720161,2.962957 -2.031236,1.485278 -2.917233,2.627236 -2.917233,3.760024 0,2.191093 7.354854,19.278765 11.11738,25.829232 l 3.025398,5.26714 0.60948,-3.40814 c 1.54174,-8.621194 6.69724,-21.688219 8.55692,-21.688219 0.34554,0 0.62597,0.906258 0.62318,2.013906 -0.003,1.107648 0.52899,5.180304 1.18175,9.050356 1.51535,8.984117 0.75468,13.560737 -3.56814,21.468057 l -3.04887,5.57696 0.20192,12.39327 c 0.21033,12.91012 1.59787,28.155 3.45257,37.93314 1.37968,7.27385 8.838,26.06358 17.10276,43.08697 0.95118,1.95921 1.95076,3.56259 2.22127,3.56306 0.27051,4.7e-4 0.70978,-1.60251 0.97616,-3.5622 0.44629,-3.28319 1.56514,-7.46263 4.34915,-16.24628 1.75164,-5.52649 1.36948,-15.05406 -1.09616,-27.32717 -1.19353,-5.9411 -2.17279,-12.5448 -2.17613,-14.67489 -0.003,-2.1301 -0.14801,-3.8729 -0.32151,-3.8729 -0.17351,0 -1.17542,0.2793 -2.22647,0.62068 -2.87269,0.93302 -5.4491,0.1171 -6.52361,-2.06596 -0.51379,-1.04388 -0.74929,-2.30954 -0.52333,-2.81257 0.3153,-0.70191 0.0863,-0.79716 -0.9845,-0.40956 -3.09305,1.11955 -5.05107,1.0523 -6.39863,-0.21972 -2.57921,-2.43465 -1.52449,-5.33444 2.75009,-7.56103 l 2.09905,-1.09336 -2.58667,-0.92328 c -3.04716,-1.08763 -5.18303,-3.56085 -4.54897,-5.26744 0.24583,-0.66166 1.43239,-1.55172 2.6368,-1.97789 1.58971,-0.56252 2.05451,-1.04779 1.69603,-1.77071 -0.27159,-0.54773 -0.64547,-1.58924 -0.83085,-2.31449 -0.45069,-1.76329 2.23836,-3.37669 4.87667,-2.92593 1.75613,0.30005 2.01691,0.11883 2.44203,-1.69691 0.59306,-2.53315 2.38922,-4.2859 4.37933,-4.27348 1.85455,0.0115 2.71219,0.49197 4.2004,2.35275 l 1.14588,1.43274 1.58163,-1.89749 c 1.88767,-2.26464 4.41855,-2.48793 6.64469,-0.58623 1.26956,1.08453 1.47545,1.84014 1.19087,4.37023 -0.29634,2.6346 -0.18222,3.00091 0.82252,2.64033 4.02029,-1.44274 5.06822,-1.66695 6.14355,-1.31445 0.66071,0.2166 1.57119,1.08734 2.0233,1.93498 1.04136,1.95244 -0.48793,4.181 -3.7035,5.39692 -1.21478,0.45935 -2.20869,0.9923 -2.20869,1.18432 0,0.19204 1.30536,0.84113 2.90078,1.44245 3.83679,1.44609 4.53402,3.53236 1.95404,5.84691 -1.66544,1.4941 -1.74863,1.7864 -0.81586,2.8666 2.33079,2.69918 0.63088,5.55778 -3.08837,5.19347 -1.59333,-0.15607 -2.36066,0.20639 -3.51274,1.6593 -1.13616,1.43283 -2.11424,1.9042 -4.26651,2.05618 -1.53582,0.10845 -3.1411,-0.1007 -3.56727,-0.46475 -0.42615,-0.36406 -1.03598,-0.66194 -1.35514,-0.66194 -1.1611,0 -0.5205,8.5636 1.25156,16.73091 0.99828,4.601 2.02447,11.51496 2.28042,15.36432 0.25596,3.84938 0.71441,6.77729 1.0188,6.50647 0.30438,-0.27082 2.19832,-4.18029 4.20873,-8.68771 3.66297,-8.21254 5.58768,-11.78196 13.39738,-24.84581 l 4.19378,-7.01525 -1.24763,-4.13868 c -1.18038,-3.91562 -1.18021,-4.39753 0.003,-8.94108 0.6881,-2.64131 1.56333,-4.80239 1.94494,-4.80239 0.85118,0 2.03174,2.41423 3.1566,6.4552 l 0.84818,3.04704 1.95012,-2.84267 1.95011,-2.84267 -2.87484,-4.25964 c -1.58116,-2.34281 -3.34229,-5.78095 -3.91363,-7.64034 -1.01252,-3.29518 -1.11752,-9.5308 -0.17407,-10.33676 0.68431,-0.58457 4.39813,3.36167 6.54636,6.95607 2.00025,3.34676 3.54277,9.01725 2.86401,10.52834 -0.97674,2.17436 1.28196,0.60842 5.9687,-4.13809 l 5.00965,-5.07352 v -5.30583 c 0,-4.2643 0.32314,-5.86611 1.64619,-8.15993 1.87198,-3.24555 6.3189,-7.87306 7.0118,-7.29656 0.2536,0.211 0.53102,2.72063 0.6165,5.57697 0.19808,6.61971 -1.02669,8.86805 -8.89794,16.33412 -3.18994,3.02574 -5.67085,5.61159 -5.51311,5.74634 0.15773,0.13476 1.26378,-0.1866 2.45788,-0.71409 3.04543,-1.34534 12.33124,-2.5981 13.27594,-1.79107 0.93639,0.79992 -6.42787,6.51807 -10.57395,8.2104 -1.60865,0.65662 -5.04655,1.39261 -7.63977,1.63557 -2.96138,0.27745 -5.04645,0.80916 -5.60631,1.42966 -1.1837,1.31175 -7.45064,11.58312 -7.45064,12.21113 0,0.27065 1.22407,-0.50174 2.72016,-1.71642 5.92644,-4.8117 15.76569,-9.85049 17.47393,-8.9486 1.61495,0.85262 -2.67284,8.25247 -6.57938,11.35467 -2.28456,1.81418 -11.7279,5.76501 -14.79633,6.19039 -2.42655,0.33638 -2.74165,0.69979 -7.20634,8.31106 -2.56784,4.37763 -4.66882,8.13762 -4.66882,8.35556 0,0.21795 2.07459,-1.38146 4.6102,-3.55421 5.10024,-4.37038 12.4712,-8.50603 13.53721,-7.59539 0.40703,0.34772 -0.0351,1.86691 -1.13178,3.88908 -2.34916,4.33147 -10.90892,11.60266 -16.6177,14.11608 -4.07604,1.79457 -4.43311,2.13864 -6.39681,6.16349 -5.93371,12.16189 -11.36201,30.72805 -10.28856,35.18948 0.59939,2.49114 5.39992,9.46471 9.4123,13.67292 2.20752,2.31525 2.87341,3.41459 2.20168,3.63479 -0.52964,0.17362 -1.78246,-0.43013 -2.78404,-1.34165 z m 10.59252,-59.87705 c 5.34665,-2.6825 13.54864,-10.8746 13.54864,-13.5323 0,-1.8686 -10.29278,4.64123 -14.52895,9.18902 -5.2168,5.6006 -4.84134,7.26411 0.98031,4.34328 z m -67.330851,-16.4497 c -0.722105,-0.68163 -1.092475,-1.23933 -0.823056,-1.23933 1.156606,0 -2.581066,-4.90935 -5.462847,-7.17534 -5.164529,-4.06094 -13.232091,-8.27034 -14.224986,-7.42215 -0.887867,0.75847 4.744128,8.95317 8.132609,11.83318 3.499086,2.974 8.527338,5.10009 12.309361,5.20473 1.335956,0.0369 1.338248,-0.003 0.06891,-1.20109 z m 5.114652,-1.52925 c 1.558204,-3.18581 1.36254,-13.22178 -0.362819,-18.6098 -2.83319,-8.84761 -2.851767,-8.85737 -5.011148,-2.63357 -1.666649,4.80362 -1.961735,10.19673 -0.805241,14.717 0.863358,3.37453 3.606674,8.67528 4.489755,8.67528 0.351118,0 1.111372,-0.96701 1.689453,-2.14891 z m 78.529409,-6.56573 c 2.6071,-1.11293 5.68702,-3.09988 7.44405,-4.80239 2.96856,-2.87646 6.1409,-7.42385 5.53819,-7.93873 -0.59375,-0.50721 -4.42225,1.07155 -9.25728,3.81743 -4.11863,2.33903 -9.911,7.25334 -11.84267,10.04746 -1.0104,1.46152 3.53573,0.83218 8.11771,-1.12377 z m -37.58264,-1.19997 c 1.05198,-0.89867 1.45075,-2.06554 1.45075,-4.24517 0,-2.50369 -1.02627,-6.55486 -1.88659,-7.44728 -0.82405,-0.85481 -6.81794,7.01913 -6.81794,8.95648 0,3.56911 4.35546,5.2119 7.25378,2.73597 z m 10.20295,-0.0218 c 2.06598,-0.94455 1.71567,-2.9311 -1.02297,-5.80118 -1.33433,-1.39836 -2.79895,-3.14473 -3.25471,-3.88082 -0.59188,-0.95594 -1.27179,-1.23936 -2.37952,-0.99189 -1.43135,0.31975 -1.52232,0.65018 -1.18052,4.28778 0.3836,4.08237 1.25271,5.56447 3.77528,6.43795 2.00818,0.69536 2.44014,0.68986 4.06244,-0.0519 z m -19.88673,-4.27136 c 2.72368,-1.41876 6.78227,-6.24712 6.78227,-8.06863 0,-1.09693 -0.30432,-1.23274 -1.99479,-0.89029 -5.90323,1.19589 -11.06199,4.30079 -11.06199,6.65786 0,1.36037 1.95438,3.49722 3.19528,3.4936 0.43685,-0.001 1.82252,-0.53792 3.07923,-1.19253 z m 28.60101,0.20622 c 1.75932,-1.81092 -0.54071,-4.03639 -5.87251,-5.68214 -6.94341,-2.14319 -7.24171,-2.20563 -7.24171,-1.51574 0,1.12173 5.16344,5.98431 7.51394,7.07613 2.88234,1.33886 4.3861,1.37156 5.60028,0.12177 z m 13.5708,-3.39795 c 1.57979,-2.53708 -0.55948,-12.07652 -2.16024,-9.63298 -0.32898,0.50219 -0.80217,2.5805 -1.05152,4.61848 -0.75763,6.19227 0.8832,8.75409 3.21176,5.0145 z m -13.31737,-3.40348 c 1.92908,-1.64793 1.42158,-3.82728 -1.15645,-4.96613 -4.2271,-1.86735 -10.76045,-0.30621 -10.76045,2.57119 0,0.93818 6.28909,3.32204 8.83405,3.3485 1.06864,0.0111 2.45592,-0.41798 3.08285,-0.95354 z M 134.061,141.55778 c 3.50076,-2.09468 0.8135,-6.98712 -3.32945,-6.0616 -2.22584,0.49725 -4.05313,3.54614 -3.06786,5.11883 1.28152,2.04559 3.90747,2.43256 6.39731,0.94277 z m -72.328573,-1.53582 c 2.240601,-1.02438 1.835278,-4.68962 -0.954409,-8.6304 -2.274105,-3.21247 -5.906316,-6.18311 -6.715197,-5.49212 -0.746563,0.63777 -0.469491,8.88554 0.360631,10.73504 1.667241,3.71458 4.113575,4.84838 7.308975,3.38748 z m 62.650163,0.0371 c 3.04968,-0.99051 2.20158,-2.36196 -2.75073,-4.44815 -3.30174,-1.39088 -5.14989,-1.82712 -6.50745,-1.53606 -2.11804,0.45413 -3.59975,2.29931 -2.97078,3.69953 1.03371,2.30121 8.10851,3.62297 12.22896,2.28468 z m -76.437028,-4.1691 c 2.80339,-2.01512 4.309278,-4.86431 4.309278,-8.15327 0,-3.69627 -1.458726,-3.57748 -6.460125,0.52605 -4.724262,3.87614 -5.67306,6.28486 -3.280637,8.3286 1.603668,1.36997 2.757083,1.22101 5.431484,-0.70138 z m 95.680228,-0.28226 c 1.78073,-0.65354 3.82085,-1.63909 4.5336,-2.19012 1.57345,-1.21643 1.68521,-3.48035 0.22301,-4.51703 -2.87787,-2.04034 -13.63227,4.64939 -12.28739,7.64333 0.52605,1.17105 2.43599,0.93362 7.53078,-0.93618 z m 37.51612,0.19863 c 1.5239,-0.66414 4.23919,-2.37063 6.03396,-3.7922 l 3.26322,-2.58467 -4.11647,0.30027 c -6.69744,0.48853 -15.10602,4.44517 -15.10602,7.10812 0,1.23953 6.19049,0.59616 9.92531,-1.03152 z m -54.44401,-0.8748 c -0.64518,-0.76684 -1.70362,-2.23079 -2.35207,-3.25323 -1.90121,-2.9977 -3.27715,-4.02781 -5.37994,-4.02781 -2.98218,0 -4.07054,1.46731 -2.55451,3.44389 1.58776,2.07007 7.44926,5.2314 9.69968,5.2314 1.68908,0 1.71269,-0.0561 0.58684,-1.39425 z m 41.91129,-3.44733 c -0.0528,-2.91217 -0.59372,-4.69924 -2.33964,-7.72886 -1.24906,-2.16744 -2.93189,-4.45172 -3.73961,-5.07617 -1.45913,-1.12805 -1.46861,-1.11125 -1.46861,2.60074 0,2.05485 0.47407,4.88393 1.05348,6.28681 1.53668,3.72071 4.79563,8.23117 5.74355,7.94924 0.49919,-0.14848 0.79262,-1.72414 0.75083,-4.03176 z m -37.80612,-1.82751 c -0.0777,-7.58393 -3.06744,-10.497 -6.71155,-6.53942 -1.72298,1.87119 -1.52649,3.85279 0.76565,7.7218 1.71614,2.89677 3.44149,4.3581 4.86834,4.12338 0.91958,-0.1513 1.12024,-1.13931 1.07756,-5.30576 z m 6.08169,3.10601 c 3.05763,-3.25952 3.86603,-4.73091 3.86603,-7.0366 0,-2.25707 -1.74638,-4.27225 -3.70239,-4.27225 -0.71578,0 -2.20938,1.01693 -3.31913,2.25984 -1.71893,1.92519 -2.00319,2.79995 -1.91958,5.90698 0.0892,3.31167 1.02715,5.46578 2.38013,5.46578 0.28333,0 1.49605,-1.04568 2.69494,-2.32375 z m -65.906898,0.44062 c 3.028706,-2.41046 1.051929,-6.67947 -3.682797,-7.95332 -3.400991,-0.91501 -9.012092,-1.50949 -9.887102,-1.04752 -0.94388,0.49834 5.281851,8.41953 7.441277,9.46776 2.290191,1.11172 4.341438,0.95543 6.128622,-0.46692 z M 40.06821,130.81961 c 2.640476,-0.8576 9.697065,-6.78396 8.890384,-7.46646 -0.436465,-0.36927 -2.171342,-0.26478 -4.682895,0.28208 -2.194262,0.47775 -4.883092,1.02337 -5.975176,1.21248 -4.190265,0.72558 -5.678605,6.52078 -1.674683,6.52078 0.963822,0 2.512886,-0.247 3.44237,-0.54888 z m 16.377491,-7.23205 c 1.099493,-0.65787 1.608619,-1.59387 1.601047,-2.94339 -0.01311,-2.32572 -0.514325,-3.08941 -2.661566,-4.05491 -4.490117,-2.01898 -8.288784,3.55627 -4.581095,6.72361 1.742805,1.48881 3.471811,1.573 5.641614,0.27469 z m 16.953614,-0.34071 c 1.792979,-1.09068 2.109664,-1.6664 1.925411,-3.50033 -0.34956,-3.47927 -1.70954,-3.73949 -8.798246,-1.68344 -4.965427,1.44019 -6.242358,2.06351 -6.489458,3.16778 -0.270811,1.21021 0.178436,1.48392 3.752891,2.28654 5.651342,1.26898 7.147697,1.22685 9.609402,-0.27057 z m -27.128826,-1.07574 c 3.099916,-1.44512 2.061809,-3.02878 -2.739848,-4.17971 -2.404566,-0.57636 -4.545556,-1.28791 -4.757755,-1.58122 -0.643963,-0.89011 -5.674631,-0.59657 -7.392555,0.43134 -3.251239,1.94538 -0.965945,5.72891 3.873083,6.41228 3.441763,0.48605 8.776561,-0.0382 11.017075,-1.08269 z m 56.035341,-1.27163 c 0,-0.64574 -0.68104,-3.05768 -1.51343,-5.35988 -1.972336,-5.45506 -5.585608,-8.64675 -13.175447,-11.63817 -3.091919,-1.21863 -5.621669,-1.95134 -5.621669,-1.62824 0,1.4042 4.63977,8.79299 7.342363,11.69262 3.00155,3.2204 10.23405,8.10772 11.998193,8.10772 0.5335,0 0.96999,-0.52833 0.96999,-1.17405 z m 85.64177,-4.71276 c 1.45458,-2.62869 1.95936,-9.85778 0.73351,-10.50498 -1.75799,-0.92816 -6.6731,7.52682 -6.78678,11.67463 -0.12383,4.51837 0.70077,5.39762 2.92228,3.11602 0.96768,-0.99385 2.37662,-2.9224 3.13099,-4.28567 z m -79.92249,1.03927 c 2.99569,-5.11597 3.98252,-9.38092 3.45071,-14.91346 -0.97705,-10.164385 -1.41116,-13.081153 -1.94693,-13.081153 -0.85921,0 -4.73443,9.706313 -5.81388,14.562083 -0.53036,2.38571 -0.98278,6.42902 -1.00539,8.98512 -0.0409,4.62284 1.3228,8.98578 2.59813,8.31243 0.36158,-0.19089 1.58439,-1.93015 2.71736,-3.86502 z m -39.811978,-0.59088 c 3.136517,-1.09568 5.944478,-4.11703 5.677848,-6.10936 -0.198941,-1.48668 -0.61007,-1.80586 -2.531235,-1.9651 -2.068026,-0.1714 -2.691863,0.23619 -6.340605,4.14277 -2.225805,2.38308 -4.381548,4.50955 -4.790554,4.72548 -0.408995,0.21595 -0.567001,0.63678 -0.351109,0.93519 0.367931,0.50856 4.214129,-0.28923 8.335655,-1.72898 z m -18.978614,0.29359 c 0.585112,-0.60227 0.18201,-1.66412 -1.587843,-4.18272 -3.917722,-5.57518 -9.510354,-7.73567 -12.784416,-4.93876 -1.559008,1.33181 -1.385923,2.33716 0.884141,5.13562 2.760159,3.40262 11.535442,5.9958 13.488118,3.98586 z m 16.535205,-7.94048 c 0.534668,-2.81463 -1.140925,-4.41146 -4.348208,-4.1438 -1.790509,0.14942 -2.578755,0.70101 -3.811253,2.66702 -1.918306,3.05997 -2.74976,7.74579 -1.374431,7.74579 0.517792,0 1.153718,0.47258 1.413177,1.05018 0.754428,1.6795 7.579905,-4.47229 8.120715,-7.31919 z m -11.933767,5.02969 c 1.409613,-2.6574 0.09435,-10.4122 -2.128317,-12.54818 -2.572072,-2.471809 -5.627327,-0.58023 -5.442934,3.36985 0.310326,6.64797 5.546445,12.9955 7.571251,9.17833 z M 76.010923,80.562884 c 2.429653,-1.265496 2.670275,-1.68774 1.91718,-3.364257 -0.326856,-0.727665 -1.457393,-0.980178 -4.388275,-0.980178 -6.021949,0 -10.321596,2.492695 -8.151901,4.726017 1.279813,1.317348 7.811645,1.082726 10.622996,-0.381582 z m 7.107425,-1.448178 c 3.071883,-1.010615 8.272644,-4.284866 8.291345,-5.219994 0.02074,-1.038462 -3.769137,-0.993822 -6.777099,0.07982 -2.522273,0.900284 -5.538815,3.686538 -5.538815,5.115965 0,1.003824 1.028109,1.010007 4.024569,0.02423 z m -0.691364,-5.065078 c 1.469736,-0.852037 3.442754,-1.549158 4.384475,-1.549158 2.426268,0 2.122407,-0.855458 -0.777801,-2.189705 -2.060272,-0.94783 -2.813249,-1.019717 -4.362944,-0.416537 -2.120691,0.825435 -3.70913,3.285461 -3.057747,4.735547 0.565745,1.259447 0.667458,1.243974 3.814017,-0.580147 z m -5.923843,-0.04424 c 0.626935,-0.535562 1.136007,-1.162971 1.131273,-1.394242 -0.0182,-0.891522 -8.70846,-4.448314 -10.868395,-4.448314 -6.326176,0 -6.798495,4.050924 -0.714111,6.124726 2.922,0.995936 9.151976,0.827721 10.451233,-0.282188 z m 19.62753,-5.433412 c 1.195301,-1.558403 2.474659,-6.484603 1.99999,-7.701063 -0.432317,-1.107946 -1.945267,-0.936528 -3.338065,0.378205 -1.611244,1.520932 -4.938894,8.849498 -4.481058,9.868726 0.490986,1.093012 4.309426,-0.577557 5.819133,-2.545868 z m -15.58614,0.03647 c 0,-1.268687 -4.857864,-5.501451 -7.629256,-6.647538 -3.748211,-1.550044 -5.427519,-1.1255 -5.427519,1.372134 0,2.166745 2.757808,4.646043 7.30644,6.568548 2.76707,1.169521 3.06925,1.186209 4.361693,0.240856 0.763755,-0.558645 1.388642,-1.248943 1.388642,-1.534 z m 8.565014,-4.958124 c 0.28833,-5.178743 -0.915011,-7.490298 -3.263549,-6.269109 -1.800058,0.935989 -2.010424,4.010114 -0.538157,7.864127 1.591528,4.166182 1.770804,4.399789 2.740756,3.571194 0.446563,-0.381483 0.923992,-2.70628 1.06095,-5.166212 z m -4.212755,4.27663 c 0,-2.175321 -2.497994,-7.486461 -4.345662,-9.239588 -1.955936,-1.855854 -2.176963,-1.919754 -3.317866,-0.959226 -1.985172,1.671324 -1.442499,3.892086 1.824273,7.465257 2.843943,3.11069 5.839255,4.512895 5.839255,2.733557 z m 38.83836,165.376128 c -1.96455,-2.3857 -5.64826,-6.34745 -8.18601,-8.80388 l -4.61406,-4.46625 -4.68492,0.37373 c -6.329607,0.50493 -12.767145,-1.0028 -17.209482,-4.03059 -1.84192,-1.25541 -3.364594,-2.59229 -3.383722,-2.97083 -0.03909,-0.77417 5.481228,-1.46707 11.752585,-1.47518 2.294003,-0.003 4.170909,-0.17116 4.170909,-0.37376 0,-0.37568 -6.457279,-6.38721 -10.675619,-9.93866 -2.17616,-1.83213 -2.519117,-1.92264 -5.077636,-1.34012 -1.509117,0.34359 -5.26621,0.7638 -8.349087,0.93378 -5.134113,0.28308 -6.002905,0.15007 -10.336619,-1.58235 -2.60225,-1.04028 -4.731368,-2.15108 -4.731368,-2.46845 0,-1.56912 9.504147,-3.42976 15.051555,-2.94668 2.493486,0.21715 4.533608,0.30085 4.533608,0.18602 0,-0.11484 -2.635807,-2.25184 -5.857355,-4.74891 l -5.857356,-4.54012 -3.002904,0.76857 c -5.507904,1.40972 -11.06686,0.9102 -17.097387,-1.53631 -7.19591,-2.91929 -6.34381,-3.54909 4.925521,-3.64046 4.811114,-0.0391 8.749189,-0.12284 8.751268,-0.18628 0.01354,-0.41056 -13.334595,-7.63044 -14.107145,-7.63044 -0.527497,0 -3.097771,0.85496 -5.711708,1.89991 -5.688192,2.2739 -11.452588,2.91505 -16.246012,1.80695 -5.105864,-1.18031 -5.662575,-1.72186 -3.669864,-3.5699 2.418734,-2.24312 5.728162,-3.2328 10.881513,-3.25412 3.841215,-0.0159 4.329046,-0.13355 3.106144,-0.74919 -0.797907,-0.40168 -3.456635,-0.91186 -5.908266,-1.13374 -6.760041,-0.61177 -10.593392,-2.49122 -14.416832,-7.06841 -1.787304,-2.13966 -3.249636,-4.24217 -3.249636,-4.67224 0,-1.25439 8.020595,-0.3485 12.530308,1.41523 2.457111,0.96097 4.832225,2.51895 6.389575,4.1913 3.881792,4.16849 6.964767,6.79657 7.972945,6.79657 0.57804,0 0.361974,-0.52239 -0.576674,-1.39424 -3.171288,-2.94568 -4.54938,-5.66577 -4.552142,-8.98512 -0.0011,-1.85603 0.323693,-3.25323 0.757298,-3.25323 2.122251,0 6.988597,7.15009 8.645721,12.70309 0.700647,2.34787 1.126053,2.64868 8.062028,5.70084 5.066304,2.22941 7.15958,2.89763 6.794032,2.16882 -2.807647,-5.59774 -3.202798,-13.1368 -0.688548,-13.1368 2.786102,0 8.227183,9.3603 9.11725,15.68441 l 0.626956,4.45465 7.457786,5.99201 c 4.101779,3.2956 7.518215,5.94039 7.592079,5.87728 0.07385,-0.0631 -1.290379,-2.53882 -3.031646,-5.50162 -3.164436,-5.38435 -4.326754,-9.1694 -3.869427,-12.60073 l 0.242908,-1.82256 3.40945,2.68407 c 5.021274,3.95298 6.375371,6.81609 6.889148,14.56645 l 0.431055,6.50252 6.514012,5.47405 c 4.795651,4.03004 6.381291,5.0654 6.010891,3.92489 -1.573201,-4.84392 -1.822911,-6.37486 -1.838639,-11.27228 -0.0097,-2.96201 0.269392,-5.53685 0.619799,-5.72185 0.76385,-0.40329 6.38155,4.61451 9.0024,8.04105 2.34562,3.06668 3.59275,8.89769 3.32396,15.54123 l -0.20691,5.11435 3.99662,3.59862 c 2.19813,1.97924 5.08923,4.99285 6.42463,6.69693 1.33541,1.70407 3.06143,3.70086 3.8356,4.43727 0.77417,0.73643 1.29099,1.85182 1.14847,2.47866 -0.1894,0.83309 -1.22002,-0.0272 -3.83105,-3.19795 z m -15.24889,-14.67795 c 0.64536,-0.55129 -2.54437,-3.55499 -4.875,-4.59067 -2.25174,-1.00062 -15.812963,-1.24273 -15.812963,-0.2823 0,0.84598 4.227755,3.39217 7.616454,4.58703 2.829841,0.99781 12.003289,1.19848 13.071509,0.28594 z m 2.36202,-9.02417 c -0.42938,-7.28653 -1.38373,-9.37684 -6.30054,-13.80018 l -3.7743,-3.39548 0.30923,6.19664 c 0.3446,6.90597 1.84671,11.10707 5.28914,14.79267 1.15484,1.23641 2.7146,2.24804 3.46611,2.24805 1.26919,2e-5 1.34107,-0.42979 1.01036,-6.0417 z m -29.196143,-9.51871 c 7.203171,-1.54944 4.733228,-4.25402 -4.339195,-4.75139 -5.296821,-0.29039 -12.726692,0.73397 -12.726692,1.75465 0,1.1494 7.691031,3.36547 12.554214,3.61735 0.720989,0.0373 2.751244,-0.24194 4.511673,-0.62061 z m 5.133208,-12.14848 c -0.578031,-4.2014 -1.668845,-6.00839 -5.530179,-9.16106 l -3.035823,-2.47865 0.525807,2.78848 c 0.62869,3.3341 2.396789,7.27589 5.103624,11.37797 1.698033,2.57329 2.090926,2.85518 2.694795,1.93338 0.390956,-0.59678 0.499023,-2.59032 0.241776,-4.46012 z m -21.158258,-2.63926 c 1.023365,-0.33238 1.860669,-0.98473 1.860669,-1.44968 0,-1.55279 -3.609161,-2.28363 -11.277467,-2.28363 -9.844207,0 -10.020899,0.58113 -1.053944,3.46635 3.038206,0.97757 7.901107,1.10156 10.470742,0.26696 z m 1.860669,-7.93352 c 0,-4.17232 -6.138338,-14.93008 -7.738497,-13.56212 -0.960724,0.82132 -0.381211,6.78908 0.91733,9.44667 1.319881,2.70126 5.126412,7.07633 6.156742,7.07633 0.365429,0 0.664425,-1.33239 0.664425,-2.96088 z m -31.045551,-1.45311 c 2.11416,-0.38281 5.109926,-1.24328 6.657257,-1.91219 2.447557,-1.05806 2.677629,-1.33209 1.769647,-2.10774 -2.604839,-2.22523 -14.809428,-1.78667 -18.394943,0.661 -2.527248,1.72523 -2.233755,2.11773 2.375536,3.17687 1.901516,0.43693 3.522819,0.81324 3.602933,0.83625 0.08005,0.023 1.8754,-0.27139 3.98957,-0.65419 z m -1.5964,-10.09123 c 0,-2.24265 -5.535786,-6.77757 -9.782259,-8.01362 -3.291815,-0.95817 -9.077528,-1.41705 -9.077528,-0.71996 0,0.85237 5.361488,6.52424 7.072545,7.48198 2.409938,1.34893 7.112688,2.64675 9.792462,2.70244 1.637346,0.034 1.99478,-0.22595 1.99478,-1.45084 z m 7.9113,-1.76094 c -3.411574,-7.41178 -7.242434,-10.21332 -5.054574,-3.69644 0.721347,2.14864 4.795971,6.94967 5.89816,6.94967 0.359612,0 -0.02004,-1.46396 -0.843586,-3.25323 z"
       style="fill:#000000;stroke-width:0.670439" />
  </g>
</svg>
