<?xml version="1.0" encoding="UTF-8" standalone="no"?>
<svg
   xmlns:dc="http://purl.org/dc/elements/1.1/"
   xmlns:cc="http://creativecommons.org/ns#"
   xmlns:rdf="http://www.w3.org/1999/02/22-rdf-syntax-ns#"
   xmlns:svg="http://www.w3.org/2000/svg"
   xmlns="http://www.w3.org/2000/svg"
   xmlns:sodipodi="http://sodipodi.sourceforge.net/DTD/sodipodi-0.dtd"
   xmlns:inkscape="http://www.inkscape.org/namespaces/inkscape"
   sodipodi:docname="flower2.svg"
   inkscape:version="1.0 (4035a4fb49, 2020-05-01)"
   id="svg287"
   version="1.1"
   viewBox="0 0 210 297"
   height="297mm"
   width="210mm">
  <defs
     id="defs281" />
  <sodipodi:namedview
     inkscape:window-maximized="0"
     inkscape:window-y="0"
     inkscape:window-x="78"
     inkscape:window-height="860"
     inkscape:window-width="1274"
     showgrid="false"
     inkscape:document-rotation="0"
     inkscape:current-layer="layer1"
     inkscape:document-units="mm"
     inkscape:cy="560"
     inkscape:cx="400"
     inkscape:zoom="0.35"
     inkscape:pageshadow="2"
     inkscape:pageopacity="0.0"
     borderopacity="1.0"
     bordercolor="#666666"
     pagecolor="#ffffff"
     id="base" />
  <metadata
     id="metadata284">
    <rdf:RDF>
      <cc:Work
         rdf:about="">
        <dc:format>image/svg+xml</dc:format>
        <dc:type
           rdf:resource="http://purl.org/dc/dcmitype/StillImage" />
        <dc:title></dc:title>
      </cc:Work>
    </rdf:RDF>
  </metadata>
  <g
     id="layer1"
     inkscape:groupmode="layer"
     inkscape:label="Layer 1">
    <path
       id="path303"
       d="m 3.967646,203.12016 0.802489,-0.0409 0.246992,0.0342 0.246993,0.0343 4.032967,-0.51839 4.032967,-0.51841 1.604987,-0.30748 1.604987,-0.30748 1.872483,-0.54834 1.872484,-0.54833 1.761442,-0.48097 1.761451,-0.48099 2.429346,-1.15761 2.429355,-1.15762 2.936334,-2.89854 2.936334,-2.89855 4.768217,-6.94101 4.768218,-6.941 1.606507,-2.58906 1.606516,-2.58905 0.773218,-1.38083 0.773217,-1.38083 2.974365,-5.86852 2.974364,-5.86854 1.625644,-4.14248 1.625636,-4.14249 1.137983,-3.62468 1.137984,-3.62468 0.666737,-2.07124 0.666727,-2.07124 1.227499,-4.6603 1.22749,-4.6603 0.628535,-3.10687 0.628525,-3.10687 0.009,-5.52332 0.009,-5.52332 -0.807115,-4.3151 -0.807203,-4.31509 -0.83348,-2.76166 -0.833489,-2.761661 -0.945045,-2.408036 -0.945046,-2.408036 -1.203005,-2.079663 -1.203006,-2.079659 -0.833506,-0.736093 -0.833498,-0.736103 -2.674972,-1.312983 -2.674982,-1.312984 -2.230228,-1.348303 -2.230237,-1.348303 -2.124905,-2.278744 -2.124896,-2.278734 -1.264362,-2.436255 -1.264353,-2.436246 -0.22087,-1.121928 -0.220871,-1.12192 h 0.712567 0.712576 l 1.73949,0.713532 1.739482,0.713531 1.603766,0.753597 1.603756,0.753596 1.754737,1.108114 1.754738,1.108113 1.608787,1.480944 1.608787,1.480943 1.351769,2.020904 1.351769,2.020914 0.725054,1.875626 0.725044,1.875626 v 0.58825 0.588249 l 1.769911,3.464256 1.769912,3.464268 1.254526,3.354372 1.254535,3.354366 0.709301,3.36883 0.709309,3.36882 0.381614,2.58813 0.381614,2.58814 0.0063,4.53195 0.0063,4.53195 -0.58503,3.06261 -0.585031,3.06261 -1.077341,4.31509 -1.077342,4.31509 -1.216605,3.9229 -1.216604,3.92289 -1.638566,4.85259 -1.638575,4.85259 -1.208705,2.73326 -1.208706,2.73325 v 0.17468 0.17468 l 1.263657,-1.46392 1.263647,-1.46392 0.370195,-0.66949 0.370195,-0.6695 0.773625,-0.88741 0.773624,-0.88741 2.229143,-2.53516 2.229151,-2.53516 2.364922,-2.67536 2.364921,-2.67536 2.37302,-2.41645 2.373029,-2.41644 5.516127,-5.02131 5.516127,-5.02131 2.674972,-2.19852 2.674982,-2.19851 0.11894,-0.28861 0.118959,-0.28862 3.804342,-2.86 3.804354,-2.86001 3.031639,-1.92684 3.03164,-1.92686 3.13174,-1.77191 3.13175,-1.77191 h 0.34572 0.34572 v -0.32483 -0.32484 l -0.37865,-0.22651 -0.37868,-0.22651 -0.37108,-0.91579 -0.37109,-0.91579 -0.4094,0.66074 -0.4094,0.66075 -0.89166,0.99732 -0.89166,0.99731 -1.31802,0.28628 -1.31803,0.28628 -0.72256,-0.48984 -0.72256,-0.48985 -0.40119,-1.44202 -0.40117,-1.44203 0.19531,-1.16489 0.1953,-1.1649 -0.60685,0.23712 -0.60685,0.23712 -1.286073,0.17737 -1.286069,0.17737 -0.783831,-0.40602 -0.783825,-0.40602 -0.692914,-1.09989 -0.692904,-1.09989 -0.0018,-0.57763 -0.0018,-0.57763 0.969105,-1.11473 0.969114,-1.114723 1.76805,-0.755234 1.768047,-0.755225 -1.67331,-0.221978 -1.673321,-0.221986 -1.091939,-0.546529 -1.091946,-0.546528 -0.498953,-1.155832 -0.498962,-1.155822 0.373643,-1.03741 0.373651,-1.03742 0.599236,-0.236235 0.599236,-0.236234 1.013714,-0.29429 1.013698,-0.294281 1.661273,0.306367 1.66127,0.306367 0.6602,0.246793 0.66022,0.246793 -0.59012,-1.104499 -0.59011,-1.104511 -0.20139,-1.645766 -0.20139,-1.645766 0.58082,-1.087097 0.58082,-1.087096 0.68619,-0.355446 0.68637,-0.355437 h 0.94254 0.94255 l 1.00345,0.971224 1.00345,0.971224 0.43442,2.049344 0.43441,2.049334 0.30717,0.517813 0.30716,0.517813 0.0109,-0.589573 0.0109,-0.589583 1.37143,-1.395368 1.37143,-1.395367 0.67939,-0.03974 0.67939,-0.03973 0.71332,0.07183 0.71333,0.07183 0.56307,0.485731 0.56308,0.485723 h 0.23941 0.23942 v -0.457633 -0.457642 l 0.84051,-0.764256 0.84052,-0.764257 1.24989,-0.196316 1.24988,-0.196317 1.74374,0.796477 1.74372,0.796476 0.27436,0.134903 0.27435,0.134903 -0.74565,-1.223204 -0.74567,-1.223205 v -1.914257 -1.914247 l -0.90094,-0.218869 -0.90095,-0.21886 -1.57331,-1.162352 -1.57331,-1.162362 h -0.10362 -0.10363 l 0.146,1.210364 0.14598,1.210365 -0.2375,1.225348 -0.2375,1.225338 -0.69344,0.671158 -0.69343,0.671166 h -1.05321 -1.05321 l -0.81927,-0.36881 -0.81927,-0.36881 -0.66184,-0.866397 -0.66184,-0.866398 -0.19139,-1.381074 -0.19139,-1.381065 -0.21676,0.298024 -0.21676,0.298025 -1.02892,0.764818 -1.02893,0.764818 h -0.97379 -0.97379 l -0.96639,-0.735744 -0.9664,-0.735753 -0.30317,-0.771772 -0.30316,-0.771771 0.3052,-1.309737 0.30519,-1.309737 0.71734,-0.939087 0.71735,-0.939096 -1.36739,-0.21163 -1.3674,-0.211631 -1.14295,-1.25994 -1.14296,-1.259949 0.21174,-1.072114 0.21173,-1.072114 1.07651,-0.949315 1.0765,-0.949324 h 1.59936 1.59936 v -0.195625 -0.195636 l -0.96129,-1.219884 -0.96132,-1.219884 0.0366,-1.250136 0.0367,-1.250135 0.94461,-0.786414 0.9446,-0.786424 1.13927,0.0018 1.13927,0.0018 0.98639,0.629538 0.9864,0.629538 0.51808,0.662714 0.51808,0.662714 0.0113,-1.135679 0.0113,-1.135679 0.69278,-1.314345 0.69277,-1.314345 0.89966,-0.570543 0.89965,-0.570544 h 0.93165 0.93164 l 1.04255,1.009073 1.04256,1.009063 v 1.647707 1.647707 l 1.20475,-1.130179 1.20475,-1.130188 1.26605,-0.276364 1.26604,-0.276373 0.79396,0.389514 0.79396,0.389514 0.72905,0.950446 0.72905,0.950447 -0.77579,1.466006 -0.77579,1.466006 -0.87357,1.035617 -0.87358,1.035626 1.42214,0.05307 1.42215,0.05307 1.06201,0.425762 1.062,0.425772 0.34303,0.620377 0.34303,0.620367 v 0.981507 0.981507 l -0.55664,0.769196 -0.55665,0.769196 -1.03062,0.515845 -1.03064,0.515836 h -1.29347 -1.29347 l 1.08388,1.049055 1.08386,1.049055 0.23671,1.221208 0.23669,1.221218 -0.39382,0.836597 -0.39384,0.836606 h 0.52426 0.52424 l 1.03539,1.048632 1.0354,1.048641 0.36093,0.93631 0.36093,0.9363 0.24081,0.690417 0.2408,0.690409 0.67066,-1.252739 0.67065,-1.252738 1.11099,-0.904807 1.11099,-0.904808 h 0.8643 0.86429 v -0.955396 -0.955487 l 0.90451,-1.288361 0.90452,-1.288361 h 0.36486 0.36485 l -0.22043,-0.345209 -0.22043,-0.345209 h -1.03653 -1.03653 l -1.23567,-1.050085 -1.23569,-1.050094 -0.21812,-0.96118 -0.21812,-0.96118 0.3625,-0.922835 0.36251,-0.922834 1.16805,-0.689277 1.16805,-0.689287 2.08776,-9.19e-4 2.08776,-9.2e-4 -1.10694,-1.220234 -1.10693,-1.220243 v -1.516363 -1.516364 l 0.93976,-0.715472 0.93976,-0.715472 h 1.0396 1.0396 l 1.02078,0.510915 1.02079,0.510915 0.74482,0.91647 0.74481,0.916469 0.008,-0.823269 0.008,-0.823269 0.67517,-1.439287 0.67517,-1.439277 0.7202,-0.37306 0.72018,-0.373059 1.1826,0.01095 1.1826,0.01094 0.55136,0.420529 0.55136,0.420538 0.6078,0.853521 0.60779,0.85353 v 1.035626 1.035617 l 0.52265,-0.722223 0.52265,-0.722223 1.22541,-0.562809 1.2254,-0.562817 h 1.05537 1.05661 l 0.90497,0.875908 0.90497,0.875898 0.21424,0.826176 0.21423,0.826176 -0.33276,0.80068 -0.33276,0.800671 -1.2728,1.313737 -1.27281,1.313738 v 0.196546 0.196546 l 1.05497,-0.204217 1.05496,-0.204217 1.2304,0.497578 1.23039,0.497579 0.74628,0.918263 0.74628,0.918273 v 1.328822 1.328831 l -1.01097,1.095135 -1.01097,1.095127 -2.409,0.204842 -2.40899,0.204843 0.92733,0.840542 0.92732,0.840534 0.34216,1.23071 0.34215,1.23071 h 2.33169 2.33168 l -0.22439,-0.517813 -0.22438,-0.517814 -0.17023,-1.55343 -0.17023,-1.553439 0.77431,-0.949315 0.77428,-0.949324 h 1.38889 1.38887 l 1.18086,1.142936 1.18085,1.142927 0.49263,1.444713 0.49262,1.444713 0.5323,-0.775303 0.53228,-0.775304 1.10525,-1.155371 1.10527,-1.155371 0.81009,-0.306018 0.81011,-0.306017 1.37061,0.530791 1.37061,0.530791 0.40509,0.860539 0.40511,0.860538 v 0.687925 0.687925 l -0.71674,1.359782 -0.71673,1.359791 0.91828,-0.337925 0.91828,-0.337915 h 1.95464 1.95465 l 0.87544,0.847331 0.87545,0.847331 v 1.039296 1.039305 l -1.08494,1.195989 -1.08494,1.195979 -1.05095,0.223422 -1.05095,0.223413 -0.20347,0.318645 -0.20347,0.318646 h 0.57025 0.57026 l 1.35795,0.670532 1.35797,0.670532 0.62851,0.928418 0.62851,0.92842 -0.20498,1.249014 -0.20498,1.249013 -1.088,0.949315 -1.088,0.949324 -1.86686,-0.0018 -1.86686,-0.0018 -0.98253,-0.496069 -0.98254,-0.49607 0.26921,0.929705 0.26921,0.929595 -0.0158,1.252159 -0.0158,1.252159 1.29617,-0.168263 1.29617,-0.168272 1.26154,1.072071 1.26154,1.07206 0.442,1.03282 0.44201,1.03283 0.27576,-0.16496 0.27576,-0.16495 0.24328,-0.95258 0.24328,-0.95259 0.93295,-0.94931 0.93295,-0.949326 h 1.1335 1.13349 l 0.93976,0.715472 0.93977,0.715474 v 1.09914 1.09915 l -0.33414,1.12762 -0.33413,1.12762 1.09303,-0.7533 1.09302,-0.7533 1.67309,-0.1556 1.67309,-0.1556 0.92183,1.06034 0.92183,1.06034 -0.3035,1.30772 -0.3035,1.30771 -0.93023,0.77672 -0.93021,0.77672 h -0.51511 -0.51511 v 0.34521 0.3452 h 0.73104 0.73104 l 1.02079,0.51091 1.02079,0.51092 0.74481,0.91647 0.74483,0.91647 v 0.84302 0.84302 l -1.04256,1.00906 -1.04256,1.00908 h -1.4718 -1.4718 l -1.04515,-0.52311 -1.04516,-0.52311 0.88453,1.61014 0.88454,1.61015 v 1.00135 1.00135 l -0.55036,1.03008 -0.55035,1.03008 -1.10583,0.21406 -1.10583,0.21407 1.2284,0.47422 1.2284,0.47421 0.60612,0.99312 0.60611,0.99311 v 1.75908 1.75908 h -0.35666 -0.35667 v -1.57613 -1.57613 l -0.38537,-0.69694 -0.38536,-0.69695 -1.30083,-0.52606 -1.30082,-0.52606 -0.9559,1.10823 -0.9559,1.10824 -0.23308,1.20252 -0.23308,1.20251 0.25106,1.94488 0.25106,1.94488 0.47045,1.08978 0.47046,1.08979 0.86691,0.1604 0.86691,0.16039 1.0188,-2.06311 1.01881,-2.06312 1.35088,-1.34729 1.35088,-1.34728 0.90193,-0.3319 0.90193,-0.3319 h 0.84256 0.84255 l 0.73921,0.90957 0.73922,0.90958 -0.005,1.07536 -0.005,1.07537 -0.86669,1.46714 -0.86668,1.46713 h 1.06077 1.06077 l 1.20912,0.48898 1.20913,0.48898 0.61105,0.90263 0.61106,0.90265 -0.31582,1.42095 -0.31581,1.42095 -0.99224,0.71514 -0.99222,0.71515 -2.44428,0.13368 -2.44428,0.13367 1.40878,1.23188 1.40878,1.23187 0.5119,0.95812 0.51191,0.95811 v 1.17882 1.17882 l -0.71766,0.88306 -0.71768,0.88307 -1.01526,0.21583 -1.01526,0.21582 -1.51339,-0.58609 -1.51339,-0.58608 -0.98619,-1.31767 -0.98618,-1.31765 -0.22579,0.21852 -0.22578,0.21853 v 0.64664 0.64664 l -0.7145,1.35553 -0.71448,1.35553 -0.68872,0.35675 -0.68871,0.35675 h -1.38794 -1.38792 l -0.7755,-0.79897 -0.7755,-0.79896 v -1.59502 -1.59501 l 0.35558,-0.90522 0.3556,-0.90522 -0.44476,0.25022 -0.44475,0.25022 -1.52503,1.04265 -1.52503,1.04265 -2.06688,0.14471 -2.06689,0.14471 -0.95554,-1.09913 -0.95555,-1.09913 v -0.68107 -0.68107 l 0.57125,-1.10479 0.57124,-1.10477 1.28341,-1.07238 1.2834,-1.07237 -1.7211,-0.24981 -1.7211,-0.2498 -0.85397,-0.82655 -0.85396,-0.82653 -0.21828,-1.05628 -0.21826,-1.05627 -0.49848,0.68882 -0.49849,0.68882 -1.30105,0.3477 -1.30105,0.3477 -1.50461,-0.64418 -1.50461,-0.64418 0.15885,1.94963 0.15885,1.94963 -0.47391,0.86303 -0.47392,0.86302 -0.99668,0.46254 -0.99669,0.46255 -0.83788,-0.20354 -0.83786,-0.20355 -1.01098,-0.82335 -1.01097,-0.82335 -0.40934,-1.16169 -0.40933,-1.16169 -0.25442,-1.38083 -0.25441,-1.38083 -0.37151,0.86302 -0.37151,0.86302 -0.4779,1.00236 -0.4779,1.00236 v 0.0764 0.0764 l 1.05463,0.20415 1.05463,0.20415 0.55036,1.03008 0.55035,1.03008 v 1.73606 1.73607 l 1.54415,-1.05346 1.54416,-1.05346 1.42944,-0.18557 1.42944,-0.18557 1.08937,0.54524 1.08936,0.54524 0.35888,0.9964 0.35887,0.99641 -0.56549,1.1301 -0.5655,1.13012 -1.4132,0.99084 -1.41322,0.99084 h 1.84829 1.84829 l 1.17698,0.47599 1.17698,0.47597 0.77321,0.95141 0.77321,0.9514 v 1.02359 1.02359 l -1.24453,1.20455 -1.24453,1.20456 -2.14442,-0.11715 -2.14442,-0.11715 7.1e-4,0.0133 7.2e-4,0.0133 0.71332,1.35421 0.71333,1.3542 v 0.94017 0.94015 l -0.37068,0.94367 -0.3707,0.94366 -0.61013,0.44866 -0.61015,0.44866 -0.9576,0.0109 -0.9576,0.011 -0.86757,-0.31926 -0.86756,-0.31926 -0.88844,-0.80266 -0.88844,-0.80268 -0.7481,-1.38082 -0.74809,-1.38083 -0.0177,0.69041 -0.0177,0.69042 -0.3883,1.35362 -0.3883,1.35362 -1.00893,0.97653 -1.00893,0.97653 h -1.26685 -1.26684 l 0.20529,0.99344 0.20528,0.99346 -0.42125,0.76181 -0.42123,0.76181 -1.30194,0.52651 -1.30193,0.52652 1.24147,0.62302 1.24148,0.62303 0.8025,0.73332 0.80249,0.73333 v 1.15558 1.15558 l 1.55811,0.22615 1.5581,0.22614 1.41317,1.17077 1.41317,1.17078 -0.15936,-2.66445 -0.15936,-2.66445 0.96475,-1.10973 0.96476,-1.10972 h 0.78069 0.78059 l 0.76344,0.51756 0.76343,0.51755 0.74258,1.16292 0.74258,1.16294 v 0.73596 0.73597 h 0.35666 0.35667 v -0.3087 -0.30869 l 1.03475,-1.07213 1.03476,-1.07214 h 1.08667 1.08667 l -0.37263,-1.03458 -0.37263,-1.03459 0.91072,-1.5041 0.91072,-1.50411 1.17361,-0.55014 1.17361,-0.55013 -1.30353,-0.52716 -1.30353,-0.52716 -0.74628,-0.91826 -0.74628,-0.91827 v -1.0221 -1.02212 l 0.59394,-0.97316 0.59395,-0.97317 0.84948,-0.37462 0.8494,-0.37465 h 0.99652 0.99652 l 1.65114,0.48097 1.65115,0.48096 -0.48708,-0.91247 -0.48709,-0.91247 -0.41404,-1.48961 -0.41405,-1.4896 0.40395,-1.18468 0.40397,-1.18469 0.76539,-0.51888 0.76539,-0.51889 h 1.1815 1.18152 l 0.90502,0.57395 0.90501,0.57395 1.04074,1.7562 1.04073,1.7562 0.004,-0.41949 0.004,-0.41949 1.10694,-1.22025 1.10694,-1.22023 h 1.23482 1.23483 l 0.68618,0.35544 0.68619,0.35544 0.57567,1.07746 0.57567,1.07747 -0.21455,1.29858 -0.21454,1.29857 -0.18358,0.46168 -0.18359,0.46169 1.90383,-0.11475 1.90383,-0.11476 1.13229,0.92217 1.13229,0.92215 v 1.231 1.23098 l -1.44167,1.32738 -1.44166,1.32738 h -0.51999 -0.51997 v 0.27361 0.27361 l 1.53672,0.39781 1.53672,0.39781 0.95993,0.92909 0.95992,0.92908 v 1.16115 1.16116 l -0.71333,0.69042 -0.71333,0.6904 -0.80249,0.0383 -0.80249,0.0382 -0.89166,-0.0678 -0.89166,-0.0678 -1.56116,-0.66082 -1.56116,-0.66084 h -0.12097 -0.12095 l 0.71642,1.17525 0.71642,1.17523 0.34108,1.15108 0.34107,1.15107 -0.37169,1.09009 -0.37171,1.09009 -1.04756,0.41998 -1.04758,0.41998 -0.96861,-0.2353 -0.96863,-0.2353 -1.17828,-1.20922 -1.17828,-1.20921 -0.0251,-0.57953 -0.0252,-0.57954 -0.51122,1.38084 -0.51122,1.38082 -0.91019,0.77672 -0.9102,0.77672 h -1.04447 -1.04447 l -1.15467,-0.99857 -1.15468,-0.99856 0.0606,-2.2809 0.0606,-2.28092 h -0.17242 -0.17242 l -0.88491,0.5612 -0.88491,0.56119 -1.72138,-0.16008 -1.72137,-0.1601 0.50651,0.98271 0.50651,0.98271 -0.23925,1.05432 -0.23925,1.05432 1.22535,-0.22249 1.22535,-0.22249 0.94789,1.09032 0.94789,1.09031 v 0.94315 0.94317 l -0.52366,0.67009 -0.52364,0.67009 -0.0113,0.18955 -0.0113,0.18956 1.23751,0.43313 1.23753,0.43312 0.72413,0.891 0.72412,0.89101 v 1.05648 1.05648 l -0.95838,0.96821 -0.9584,0.96821 h -1.55215 -1.55215 l 0.75749,0.77672 0.75749,0.77672 0.53375,0.98649 0.53375,0.9865 -0.2338,0.91214 -0.23379,0.91215 -0.74906,0.77672 -0.74905,0.77671 h -1.07355 -1.07355 l -1.55188,-0.72713 -1.55188,-0.72712 -1.28982,-1.60303 -1.28981,-1.60302 0.21959,0.59991 0.21958,0.5999 0.2319,1.69199 0.2319,1.69198 -0.42467,1.24542 -0.42466,1.24542 -0.76539,0.51888 -0.76539,0.51888 h -0.83002 -0.83 l -0.98128,-0.49114 -0.98127,-0.49114 -0.69517,-1.3212 -0.69517,-1.32121 -0.0402,-0.0965 -0.0402,-0.0965 -1.18931,1.0753 -1.18932,1.07531 -0.99809,-0.19321 -0.99809,-0.1932 -0.8899,-0.56436 -0.8899,-0.56436 -0.36069,-1.29646 -0.36069,-1.29646 0.22692,-1.16867 0.22692,-1.16867 0.90273,-1.17366 0.90274,-1.17367 -0.99219,0.24103 -0.99219,0.24103 -1.0167,0.19681 -1.01671,0.19681 -1.61497,-0.2344 -1.61497,-0.23441 -1.07168,-0.87279 -1.07169,-0.8728 v -1.32366 -1.32366 l 0.91459,-1.05201 0.91458,-1.052 1.31456,-0.35339 1.31456,-0.35338 1.605,-0.004 1.60499,-0.004 -1.20698,-1.09478 -1.20699,-1.09479 -0.66726,-1.46001 -0.66727,-1.46 0.2001,-0.5047 0.2001,-0.5047 -1.7382,-0.16166 -1.73819,-0.16165 -1.16934,-0.56461 -1.16935,-0.5646 0.25575,0.59417 0.25573,0.59418 0.17023,1.55343 0.17022,1.55344 -0.77429,0.94932 -0.77429,0.94932 h -1.41331 -1.41332 l -0.89965,-0.57054 -0.89966,-0.57055 -0.7229,-1.37149 -0.7229,-1.37149 -0.66614,1.06022 -0.66615,1.06021 -1.46275,0.42417 -1.46274,0.42417 -0.95422,-0.3248 -0.95421,-0.3248 -0.4697,-0.85729 -0.4697,-0.85728 0.17594,-1.62431 0.17592,-1.62432 -0.89772,0.33035 -0.89772,0.33035 -0.95608,-0.20002 -0.95607,-0.20002 -0.77897,-0.36451 -0.77896,-0.36449 -0.41257,-0.96404 -0.41256,-0.96402 0.25169,-0.80216 0.25171,-0.80217 0.7615,-0.81069 0.7615,-0.81069 1.39834,-0.54488 1.39835,-0.54489 -1.27538,-0.42736 -1.27536,-0.42736 -0.89878,-0.56999 -0.89878,-0.56999 -0.30836,-0.92655 -0.30837,-0.92654 0.1293,-0.78522 0.1293,-0.78522 0.87741,-0.55643 0.87741,-0.55643 1.86077,0.19129 1.86078,0.1913 0.62572,0.23855 0.6257,0.23853 -0.88971,-1.84984 -0.88974,-1.84985 -0.004,-0.9136 -0.004,-0.91361 -4.01247,-0.91653 -4.01246,-0.91653 -5.17162,-0.4907 -5.17162,-0.4907 -4.64394,-0.23045 -4.64394,-0.23046 -3.73765,0.42345 -3.737661,0.42346 -4.073585,0.86389 -4.073585,0.86391 -3.059681,1.03367 -3.059681,1.03367 -4.728622,2.19858 -4.728622,2.19856 -2.047985,1.29071 -2.047985,1.29071 -3.566633,2.58276 -3.566633,2.58276 -4.749895,3.94454 -4.749885,3.94455 0.138114,0.13368 0.138123,0.13369 4.611772,-1.71709 4.611771,-1.7171 3.388299,-0.67654 3.388308,-0.67656 3.473073,-0.40539 3.473064,-0.4054 5.443523,0.17478 5.443505,0.17478 3.209974,0.69948 3.209974,0.69948 3.923654,1.22858 3.923659,1.22858 3.92294,2.17173 3.92293,2.17175 1.96166,1.48281 1.96164,1.48282 2.95661,2.82858 2.95662,2.82858 1.14502,1.60556 1.14501,1.60557 2.17773,1.42015 2.17772,1.42016 2.12919,2.15239 2.12919,2.1524 1.1245,2.24384 1.12449,2.24385 0.5427,2.05747 0.54271,2.05747 v 1.66565 1.66566 l -0.66486,-0.3444 -0.66487,-0.3444 -1.69327,-1.65269 -1.69326,-1.65269 -1.50922,-1.89864 -1.50923,-1.89864 -1.67141,-3.10372 -1.67142,-3.10373 -0.73746,-2.41959 -0.73746,-2.41959 -1.46647,-1.89296 -1.46647,-1.89294 -1.79805,-1.76011 -1.79804,-1.76012 -3.27083,-2.39712 -3.27083,-2.39713 -2.69536,-1.49265 -2.69536,-1.49263 -2.485603,-0.97903 -2.485602,-0.97903 -4.296546,-1.0466 -4.296545,-1.0466 -2.935501,-0.35626 -2.935502,-0.35625 h -3.051637 -3.051655 l -4.333082,0.51921 -4.333092,0.51922 -0.649554,0.2025 -0.649544,0.2025 -0.713327,0.27973 -0.713327,0.27973 -5.706612,1.78921 -5.706622,1.7892 -1.604987,0.68185 -1.604978,0.68185 -3.114442,3.69055 -3.114432,3.69056 -1.724571,2.24384 -1.724561,2.24385 -2.371237,3.1928 -2.371247,3.1928 -3.363271,4.05655 -3.363271,4.05656 -3.440716,3.79728 -3.440707,3.79729 -2.748961,2.32961 -2.748952,2.32961 -0.44583,6.8e-4 -0.44583,6.9e-4 v -0.27427 -0.27427 l 1.768635,-1.30546 1.768636,-1.30545 2.957154,-3.0103 2.957154,-3.0103 4.458294,-5.16836 4.458293,-5.16836 1.157754,-1.54716 1.157755,-1.54716 4.480805,-5.86852 4.480806,-5.86853 3.991354,-4.26345 3.991353,-4.26346 3.566633,-2.84251 3.566642,-2.84251 2.853306,-2.221 2.853307,-2.221 1.783311,-1.16445 1.783321,-1.16445 3.031641,-1.80886 3.03164,-1.80885 2.229785,-1.08179 2.229775,-1.0818 1.785402,-0.68114 1.785402,-0.68113 4.285651,-1.20544 4.285651,-1.20543 4.360716,-0.73117 4.360728,-0.73118 7.13327,0.19491 7.13326,0.19492 1.06999,0.14809 1.06999,0.1481 2.85331,0.22787 2.85331,0.22786 3.03164,0.64634 3.03164,0.64635 1.48443,0.51675 1.48444,0.51676 0.65555,-0.4808 0.65555,-0.48081 0.99853,-0.0109 0.99854,-0.011 1.02416,0.51261 1.02416,0.5126 0.76199,1.03575 0.762,1.03575 0.76003,-0.68533 0.76003,-0.68533 h 1.18107 1.18107 v -0.70151 -0.7015 l 0.52158,-1.2082 0.52155,-1.2082 1.52924,-0.67177 1.52925,-0.67178 0.89166,-0.0158 0.89166,-0.0158 -2.13998,-0.85322 -2.13998,-0.85323 -0.0649,-0.002 -0.0649,-0.002 -0.78122,-1.06188 -0.78121,-1.06187 -0.0888,-1.09567 -0.0888,-1.09567 -2.6318,-0.59647 -2.6318,-0.59648 -4.4583,-0.75845 -4.4583,-0.75844 -7.66826,-0.0259 -7.66826,-0.0259 -3.9233,0.7855 -3.9233,0.78548 -2.14827,0.50553 -2.14828,0.50551 -3.558335,1.16357 -3.558348,1.16357 -3.566633,1.4685 -3.566633,1.46849 -3.9233,2.07337 -3.923292,2.07337 -3.388308,2.08865 -3.388299,2.08865 -2.329217,1.45696 -2.329208,1.45695 -1.237425,1.18961 -1.237425,1.18961 -3.526286,2.53227 -3.526296,2.53227 -4.245594,4.20238 -4.245585,4.20238 -0.609713,0.7876 -0.609705,0.7876 -1.426654,1.56986 -1.426653,1.56988 -1.617229,1.75169 -1.617239,1.75168 -1.414401,1.72195 -1.414411,1.72195 -0.534993,0.54613 -0.534993,0.54614 -4.183151,4.46346 -4.183151,4.46346 -2.148123,1.84027 -2.148115,1.84028 -2.427608,1.81542 -2.4276,1.81542 -2.751395,1.79698 -2.751385,1.79699 -3.11294,1.51411 -3.11294,1.51413 -0.980823,0.23368 -0.980823,0.23368 v -0.41494 -0.41496 l 0.747557,-0.18921 0.747556,-0.18921 2.740284,-1.2826 2.740274,-1.28261 4.091265,-2.68806 4.091256,-2.68805 2.13998,-1.71534 2.13998,-1.71534 2.318314,-2.13568 2.318313,-2.13567 3.212146,-3.43495 3.212309,-3.43498 4.456122,-5.16611 4.456122,-5.16611 5.17162,-5.2273 5.17162,-5.22731 3.298412,-2.64528 3.298413,-2.64528 2.764868,-1.99732 2.764859,-1.99731 3.566632,-2.26825 3.566642,-2.26826 4.148144,-2.27145 4.148152,-2.27144 2.806789,-1.32703 2.806788,-1.32702 3.388299,-1.26491 3.388308,-1.26493 4.279965,-1.18113 4.27996,-1.18114 1.60498,-0.23615 1.60499,-0.23615 2.50219,-0.47956 2.50218,-0.47957 3.73942,-0.15187 3.73943,-0.15188 3.74496,0.30604 3.74497,0.30604 1.42666,0.14541 1.42665,0.14541 2.49665,0.38073 2.49665,0.38073 1.78332,0.3592 1.78331,0.35918 1.46916,0.35984 1.46915,0.35984 1.09894,-0.55003 1.09894,-0.55002 h 1.43098 1.43099 l 1.94254,0.70344 1.94253,0.70345 0.43283,0.50478 0.43283,0.50477 h 0.22382 0.22383 l 0.005,-2.50274 0.005,-2.50276 0.30132,-0.60411 0.30132,-0.60412 h -0.58936 -0.58937 l -0.91791,-0.88843 -0.91791,-0.88843 0.23308,-1.70062 0.23309,-1.70063 h -0.1374 -0.13739 l -1.13218,0.382 -1.13216,0.382 -1.32368,-0.24035 -1.32368,-0.24034 -1.3209,-1.38484 -1.32088,-1.38484 -7.77888,-0.12154 -7.77888,-0.12153 -3.38831,0.48639 -3.3883,0.48639 -4.27996,0.85716 -4.27997,0.85713 -2.49664,0.56448 -2.49664,0.56447 -4.4583,1.3993 -4.458289,1.39932 -5.918464,2.86525 -5.918462,2.86527 -3.711452,2.15755 -3.711452,2.15756 -3.566632,2.23069 -3.566633,2.23069 -2.674973,1.91944 -2.674981,1.91944 -3.72706,3.29686 -3.727061,3.29687 -3.612987,3.62468 -3.612988,3.62468 -1.933198,2.09199 -1.933207,2.09199 -1.076273,1.18748 -1.076274,1.18748 -2.838513,3.45207 -2.838512,3.45207 -2.703493,2.93427 -2.703493,2.93426 -1.476446,1.43473 -1.476455,1.43473 -2.961833,2.55023 -2.961841,2.55023 -2.13998,1.40517 -2.139979,1.40517 -4.993286,2.38887 -4.993295,2.38887 -2.496639,0.74594 -2.496648,0.74594 -1.069985,0.10525 -1.069994,0.10524 -0.178334,-0.31985 -0.178325,-0.31986 2.496638,-0.60287 2.496648,-0.60289 2.496639,-0.91264 2.496647,-0.91264 3.615241,-1.84474 3.61524,-1.84471 1.474465,-0.94441 1.474465,-0.94441 -0.155035,-0.15006 -0.155034,-0.15006 -0.6746,0.34944 -0.6746,0.34944 -4.438405,1.2251 -4.438396,1.2251 -3.653461,0.52468 -3.653451,0.52467 H 5.30778 3.165448 v -0.34521 -0.34521 l 0.802498,-0.0408 z m 36.8533,-18.08252 1.961637,-2.07124 1.662272,-2.07124 1.662273,-2.07126 2.555036,-2.93425 2.555046,-2.93427 7.627848,-7.57861 7.627858,-7.57862 1.786542,-1.74198 1.786551,-1.74199 4.633398,-4.14286 4.633388,-4.14286 3.388308,-2.62944 3.388299,-2.62944 3.209974,-1.97086 3.209965,-1.97086 4.993295,-2.37369 4.993284,-2.37369 4.81496,-1.78041 4.81496,-1.7804 3.56663,-1.02955 3.56663,-1.02956 4.61135,-1.02771 4.61133,-1.02772 4.12692,-0.6449 4.12692,-0.64488 4.22333,-0.241 4.22332,-0.241 0.84291,-0.81584 0.84291,-0.81585 0.81871,-0.0366 0.81871,-0.0366 1.06998,0.0608 1.07,0.0608 1.60498,0.72317 1.60498,0.72317 0.89166,0.59489 0.89166,0.59488 v -2.55166 -2.55166 l -1.24294,-0.60296 -1.24295,-0.60295 -0.77449,-1.34666 -0.77447,-1.34666 0.14017,-0.89719 0.14018,-0.89719 -1.05496,1.95437 -1.05497,1.95437 -0.99108,0.66848 -0.99108,0.66848 -0.83839,0.20188 -0.83839,0.20188 -0.81644,-0.36004 -0.81643,-0.36005 -0.39598,-0.84119 -0.39599,-0.8412 v -0.99289 -0.9929 l 0.89165,-1.02564 0.89166,-1.02563 v -0.15841 -0.15839 l -1.7859,0.16609 -1.78591,0.16609 -1.57328,-0.42635 -1.57328,-0.42634 -2.96306,0.58111 -2.96305,0.58111 -3.39684,1.04737 -3.39684,1.04738 -4.81496,1.83266 -4.81496,1.83266 -3.74496,1.73495 -3.74497,1.73495 -2.31831,1.25507 -2.31831,1.25506 -2.31831,1.40248 -2.318312,1.40248 -1.961654,1.23514 -1.961649,1.23514 -3.209974,2.31144 -3.209965,2.31142 -2.848909,2.11407 -2.848909,2.11406 -5.690117,4.90499 -5.690118,4.905 -4.849689,4.6603 -4.849689,4.6603 -2.126144,2.41645 -2.126145,2.41645 -3.549704,3.79729 -3.549694,3.79728 -0.231692,0.1726 -0.231692,0.17261 -2.638553,3.28278 -2.638553,3.28279 -1.961646,3.03456 -1.961655,3.03458 -1.327401,1.96762 -1.327402,1.96762 0.0036,0.17261 0.0036,0.1726 1.961646,-2.07124 z m 0.28762,-111.129659 0.843442,1.753177 2.236354,2.514914 2.236344,2.514914 2.355838,1.470025 2.355837,1.470035 2.218981,1.079729 2.218972,1.079729 h 0.231827 0.231828 l -1.708147,-1.984941 -1.708148,-1.984941 -2.159008,-2.157546 -2.158999,-2.157555 h 0.550592 0.550592 l 2.844059,2.847964 2.844077,2.847963 0.991074,1.208221 0.991066,1.208231 -0.246034,-0.863022 -0.246033,-0.863013 -1.240104,-2.308783 -1.240103,-2.308775 -2.092096,-1.986266 -2.092096,-1.986265 -1.887793,-1.173271 -1.887793,-1.17327 -1.604987,-0.69463 -1.604987,-0.69463 -1.337482,-0.466986 -1.337491,-0.466987 0.0036,0.761405 0.0036,0.761406 0.843451,1.753168 z m 10.263895,94.387099 1.815307,-1.89864 6.143024,-6.55895 6.143014,-6.55893 2.996198,-2.79469 2.996198,-2.79468 2.33223,-2.03822 2.332248,-2.03822 4.042395,-3.45207 4.042405,-3.45208 2.185284,-1.63508 2.185285,-1.63509 4.636618,-3.22994 4.636631,-3.22994 2.773182,-1.69391 2.77318,-1.69392 1.50678,-0.81704 1.50678,-0.81704 4.45829,-2.16458 4.45829,-2.16459 4.63663,-1.80472 4.63662,-1.80471 3.56664,-1.17839 3.56663,-1.17836 2.9892,-0.50793 2.9892,-0.50792 h 0.25759 0.25758 l -0.16978,-1.71019 -0.16978,-1.7102 1.08636,-1.05146 1.08636,-1.05147 h 0.56243 0.56243 v -0.19726 -0.19726 l -0.53446,-0.51729 -0.53446,-0.5173 -0.23332,-0.89976 -0.23331,-0.89975 0.35406,-0.9079 0.35406,-0.9079 -1.86277,-0.70964 -1.86278,-0.709632 0.71246,1.558912 0.71247,1.55891 -0.22112,1.56141 -0.22111,1.5614 -0.5763,0.61635 -0.5763,0.61634 -1.18335,0.378 -1.18336,0.378 -1.00268,-0.5048 -1.00265,-0.50481 -0.75983,-0.80952 -0.75982,-0.80952 -0.46106,-1.26799 -0.46107,-1.26797 -0.78524,1.64041 -0.78524,1.64042 -0.98445,0.74948 -0.98444,0.7495 h -1.34685 -1.34684 l -0.88995,-1.02367 -0.88995,-1.02366 -0.42592,0.49671 -0.42592,0.49673 -1.16916,0.21229 -1.16915,0.21229 -1.1385,-0.56983 -1.1385,-0.56983 0.23696,1.52943 0.23697,1.52944 -0.57214,1.07085 -0.57214,1.07085 -0.68619,0.35545 -0.68618,0.35544 h -1.27092 -1.27092 l -3.29999,1.76073 -3.29999,1.76072 -4.27996,2.77861 -4.279958,2.77859 -1.959149,1.58811 -1.959148,1.5881 -1.99536,1.72604 -1.99536,1.72604 -2.463413,2.07124 -2.463413,2.07125 -2.677,2.3741 -2.67699,2.37411 -4.279968,4.18793 -4.27996,4.18794 -3.178287,3.62158 -3.178278,3.62157 -0.388355,0.34868 -0.388346,0.34867 -1.805598,2.06778 -1.805598,2.06778 -1.185723,1.68434 -1.185713,1.68435 -1.641497,1.94033 -1.641498,1.94033 -1.834534,3.27948 -1.834535,3.27946 -0.02886,0.34521 -0.02886,0.34521 1.815316,-1.89864 z m 22.940804,-15.29623 4.452041,-2.82716 1.165409,-0.74569 1.165401,-0.7457 4.458293,-2.43257 4.458293,-2.43257 3.744967,-1.70714 3.744967,-1.70714 4.279964,-1.58059 4.27996,-1.58059 2.8533,-0.67941 2.85331,-0.67942 0.89166,-0.15424 0.89166,-0.15424 3.20616,-0.73957 3.20616,-0.73957 4.10544,-0.54296 4.10544,-0.54294 6.26788,-0.003 6.26786,-0.003 1.79217,0.23857 1.79217,0.23857 0.44834,-1.04762 0.44834,-1.04762 1.16653,-0.86119 1.16653,-0.86117 1.42206,-0.42957 1.42205,-0.42956 -1.65995,-0.74437 -1.65997,-0.74437 -0.96635,-1.11156 -0.96636,-1.11156 -0.21689,-0.83641 -0.21689,-0.83642 -1.12049,0.006 -1.12048,0.006 -3.03164,0.32597 -3.03164,0.32596 -3.44718,0.51808 -3.44716,0.51808 -7.25274,1.71245 -7.25274,1.71245 -3.20997,1.0878 -3.20997,1.08781 -2.15547,0.81971 -2.15547,0.81971 -2.46223,1.06924 -2.462239,1.06925 -1.267239,0.56919 -1.267243,0.5692 -3.566642,1.86163 -3.566632,1.86163 -2.674973,1.94549 -2.674981,1.94549 -3.209965,2.58025 -3.209975,2.58024 -4.012463,3.59142 -4.012463,3.59142 v 0.11658 0.11659 l 4.45205,-2.82716 z M 96.7373,96.318096 l 0.81455,0.516572 2.115371,0.190062 2.115379,0.190061 1.81079,0.07726 1.81079,0.07726 0.37665,-1.164689 0.37664,-1.164689 -1.58151,-1.078938 -1.58151,-1.078948 -1.49758,-0.433672 -1.497593,-0.433682 -1.436452,-0.0055 -1.436474,-0.0055 -0.768286,0.520849 -0.768286,0.520848 -0.132486,0.773684 -0.132486,0.773676 0.298967,0.604115 0.298975,0.604106 0.814551,0.516581 z m 0.857276,8.121934 0.895916,0.68209 0.932722,-9.2e-4 0.932726,-0.002 1.10009,-0.64928 1.10009,-0.64929 2.02288,-1.88125 2.02288,-1.88126 -0.56339,-1.093044 -0.56339,-1.093057 -0.77626,0.153031 -0.77626,0.153032 -1.8504,0.394288 -1.85039,0.394288 -1.63829,1.005605 -1.638297,1.005597 -0.292216,0.76456 -0.292216,0.76456 0.16895,0.62531 0.168951,0.62532 0.895904,0.68209 z m 5.468284,-32.602446 0.67415,0.590502 1.69777,0.156776 1.69777,0.156775 2.05081,-0.671342 2.05082,-0.67135 v 0.394885 0.394886 l -1.33749,0.46752 -1.33749,0.46752 -1.28344,0.82131 -1.28345,0.82131 -0.38296,0.765462 -0.38296,0.765462 -0.20208,0.907686 -0.20207,0.907686 0.73521,0.904651 0.73522,0.904651 h 1.37297 1.37297 l 1.21623,-1.375243 1.21622,-1.375243 0.66874,-1.904222 0.66875,-1.904231 h 0.28281 0.2828 v 0.528896 0.528906 l -0.54783,1.269027 -0.54783,1.269019 -0.0764,1.972276 -0.0764,1.972266 0.74962,0.973561 0.74963,0.973569 1.14435,0.317652 1.14435,0.317653 0.73642,-0.712759 0.73641,-0.712759 v -2.224385 -2.224395 l -0.98494,-2.124259 -0.98495,-2.124268 h -0.80523 -0.80523 l -1.10771,-1.001522 -1.10772,-1.001512 v -1.199824 -1.199814 l -1.7087,-0.711462 -1.7087,-0.711453 -1.76877,-0.211713 -1.76876,-0.211722 -1.13145,0.686683 -1.13146,0.686683 -0.12819,0.798095 -0.12818,0.798096 0.13605,0.581755 0.13603,0.581756 z m -0.37397,17.822079 0.36733,1.280113 1.77424,1.878947 1.77425,1.878947 0.8853,-0.397397 0.8853,-0.397396 0.003,-0.796891 0.003,-0.79689 -0.37575,-2.482587 -0.37576,-2.482574 -0.38672,-0.963066 -0.38674,-0.963074 -0.74353,-0.504063 -0.74368,-0.504063 h -0.78641 -0.78641 l -0.73922,0.909581 -0.73921,0.909572 0.002,1.075369 0.002,1.07537 0.36733,1.280102 z m 0.54058,19.873347 0.55522,0.76723 h 1.02241 1.0224 l 1.07354,-0.87433 1.07355,-0.87431 0.37619,-1.11063 0.37618,-1.11063 0.0963,-2.67047 0.0963,-2.67048 -0.47785,-0.17748 -0.47785,-0.17748 h -0.34885 -0.34884 l -1.98307,1.81234 -1.98306,1.81233 -0.29129,0.69042 -0.2913,0.69041 -0.0226,1.56293 -0.0226,1.56292 0.55523,0.76723 z m 3.16873,-45.184715 0.51397,0.961981 1.24554,0.919514 1.24556,0.919514 h 0.23624 0.23623 l 0.95663,0.659302 0.95663,0.659302 0.71709,-0.779204 0.71709,-0.779203 -0.29975,-1.174631 -0.29975,-1.174622 -0.49164,-1.035627 -0.49164,-1.035617 -1.06097,-0.982565 -1.06096,-0.982555 -1.25065,-0.03431 -1.25065,-0.03431 -0.56647,0.45503 -0.56648,0.45502 v 1.010498 1.010498 l 0.51398,0.96199 z m 0.15994,33.720652 0.31726,-0.189777 0.15036,-1.246604 0.15037,-1.246603 -0.46762,0.618969 -0.46762,0.618961 v 0.81742 0.81741 z m 1.08449,0.49423 0.27043,-0.863013 0.25006,-1.294533 0.25007,-1.294524 h -0.35129 -0.35129 l -0.13991,1.294524 -0.13991,1.294533 -0.0293,0.863013 -0.0293,0.863022 z m 1.0647,0.863022 0.28125,-0.690418 0.22006,-1.859153 0.22007,-1.859153 -0.17744,0.171749 -0.17745,0.171749 -0.3074,1.514799 -0.3074,1.51481 -0.0165,0.863012 -0.0165,0.863026 0.28125,-0.690421 z m 4.03216,-5.386368 1.76205,-0.798795 0.68463,-0.930597 0.68463,-0.930589 v -1.049388 -1.049387 l -0.82168,-0.924573 -0.82168,-0.924573 -1.14412,0.243225 -1.14414,0.243224 -0.83049,1.093609 -0.8305,1.093609 -0.39708,1.035629 -0.39707,1.035617 -0.11114,0.863022 -0.11113,0.863013 0.85783,0.467878 0.85783,0.46787 z m -2.96925,5.213763 0.29769,-0.517813 0.23325,-0.949315 0.23326,-0.949324 h -0.34086 -0.34086 l -0.14385,1.121929 -0.14385,1.121919 -0.0462,0.345209 -0.0462,0.345208 z m 0.88092,8.650656 0.53575,1.2287 0.93208,0.41103 0.93207,0.41105 h 0.47011 0.47011 l 0.97964,-0.74584 0.97963,-0.74582 -0.15813,-1.58433 -0.15813,-1.58431 -0.63564,-1.29438 -0.63563,-1.29436 -1.33688,-1.4581 -1.33689,-1.458096 -0.99263,0.437736 -0.99262,0.43775 0.20571,3.00514 0.20571,3.00513 z m 0.46257,-9.254771 0.17989,-0.431502 -0.17989,-0.431511 -0.1799,-0.431511 v 0.863022 0.863013 z m 0.75007,-2.296928 0.26204,0.378422 1.62111,0.209395 1.62111,0.209395 0.60803,0.225832 0.60804,0.225831 V 96.219423 94.83742 l 1.33092,-1.131034 1.33093,-1.131034 -0.48385,-0.156104 -0.48385,-0.156104 -0.63246,-0.612145 -0.63247,-0.612154 -0.84058,1.259416 -0.84057,1.259416 -1.87068,0.971224 -1.87068,0.971233 0.005,0.236998 0.005,0.236997 0.26203,0.378422 z m 1.26012,3.948979 1.14189,1.26721 0.95311,1.20682 0.95311,1.20681 1.26234,0.57979 1.26234,0.57977 0.91476,-0.22222 0.91477,-0.22222 0.34726,-0.62801 0.34725,-0.62801 v -0.74612 -0.74612 l -0.74463,-1.01215 -0.74463,-1.012144 -1.67719,-0.822598 -1.67719,-0.822598 -2.10198,-0.376095 -2.10197,-0.376085 h -0.0369 -0.0369 l -0.0586,0.753376 -0.0586,0.753375 z m -0.50954,-29.199598 0.31021,-0.327954 0.21018,-1.341175 0.21019,-1.341183 -0.50905,0.650766 -0.50905,0.650766 -0.0113,1.018362 -0.0113,1.018362 0.31021,-0.327944 z m 0.94406,-5.419765 0.25334,1.121928 h 1.27402 1.27402 l 0.78909,0.717496 0.78908,0.717496 1.08868,-0.544892 1.08867,-0.544891 0.46353,-5.52e-4 0.46355,-5.52e-4 1.96165,-1.311824 1.96164,-1.311825 0.70219,-1.251423 0.70218,-1.251423 -0.35187,-0.96841 -0.35187,-0.968409 -0.92438,-0.314645 -0.92439,-0.314654 -0.92777,0.225381 -0.92777,0.225372 -1.21977,1.215616 -1.21977,1.215617 -1.01113,2.060675 -1.01112,2.060675 h -0.32131 -0.3213 l 0.19732,-0.776719 0.19732,-0.77672 0.72427,-1.898639 0.72428,-1.898639 0.0116,-1.229947 0.0117,-1.229937 -1.07161,-0.993694 -1.07161,-0.993694 -0.96818,0.329554 -0.96816,0.329555 -0.83838,1.203668 -0.83837,1.203669 0.16866,2.416452 0.16865,2.416452 0.25334,1.12192 z m 0.14834,6.64525 h 0.33263 l 0.17657,-0.604115 0.17657,-0.604115 0.2376,-1.812337 0.2376,-1.812337 h -0.36293 -0.36293 l -0.34149,1.812337 -0.34151,1.812337 -0.0423,0.604115 -0.0423,0.604115 z m 1.42675,0 0.31103,-0.517813 0.25778,-2.071243 0.25777,-2.071244 -0.23318,0.211226 -0.23317,0.211235 -0.3074,1.514809 -0.30739,1.5148 -0.0282,0.863022 -0.0282,0.863012 z m 1.07193,0.155341 0.33468,-0.327945 0.19446,-1.898639 0.19447,-1.898648 -0.49412,1.553439 -0.49412,1.55343 -0.035,0.673154 -0.035,0.673153 0.33466,-0.327944 z m 2.76737,4.516714 1.72832,1.737799 1.14453,0.458856 1.14454,0.458855 0.89407,-0.217195 0.89407,-0.217185 0.5612,-0.828991 0.5612,-0.828981 -0.38131,-1.370589 -0.38131,-1.370598 -1.16973,-0.863528 -1.16972,-0.863537 -2.35827,-0.68477 -2.35826,-0.684779 -0.90576,0.876662 -0.90575,0.876662 0.48694,0.891765 0.48693,0.891756 z m -1.50988,13.129633 0.52216,1.209567 1.2497,0.505387 1.2497,0.505387 h 2.5081 2.50811 v 0.315758 0.315749 l -2.76415,0.244999 -2.76414,0.244991 -0.97026,0.478447 -0.97024,0.478446 -0.36724,0.664149 -0.36723,0.664149 v 0.89079 0.890781 l 1.09376,0.643794 1.09377,0.643794 1.23466,-0.269511 1.23465,-0.269512 0.61405,-0.462617 0.61405,-0.462609 1.69611,-1.353214 1.69611,-1.353205 0.26465,0.256147 0.26466,0.256156 -1.47857,1.266618 -1.47859,1.266618 -0.96295,2.227494 -0.96296,2.227482 0.20242,1.22459 0.20243,1.22458 0.76369,0.60411 0.76368,0.60411 h 0.8992 0.89921 l 1.14533,-1.1754 1.14534,-1.17541 0.45962,-2.09624 0.45961,-2.09624 -0.23407,-1.707768 -0.23405,-1.707768 -1.23962,-1.199797 -1.23961,-1.199796 0.005,-1.329052 0.005,-1.329046 0.31923,-0.488132 0.31925,-0.488132 -1.66219,-1.360048 -1.66219,-1.360048 -1.52549,-0.674865 -1.52549,-0.674873 -0.79282,0.233732 -0.79283,0.233724 -0.66626,0.563286 -0.66625,0.563278 -0.29196,0.690417 -0.29196,0.690418 -0.0226,0.09739 -0.0226,0.0974 0.52216,1.209555 z m -0.0253,-18.837314 h 0.14018 l 0.20529,-0.517813 0.2053,-0.517804 h -0.34547 -0.34547 v 0.517804 0.517813 z m 2.32164,-0.01748 1.28316,0.323972 2.19027,0.403734 2.19029,0.403733 1.28608,-0.410816 1.28609,-0.410816 0.53609,-0.740802 0.53611,-0.740812 v -0.772756 -0.772765 l -0.78058,-0.703855 -0.78058,-0.703865 h -2.20622 -2.20622 l -1.56066,0.520223 -1.56067,0.520223 -0.7773,0.38808 -0.77731,0.388088 0.0291,0.992232 0.0291,0.992231 1.28316,0.323971 z m 1.29081,29.162269 0.51998,0.66522 0.13664,-0.1474 0.13667,-0.14741 0.61639,-1.172246 0.6164,-1.17225 -0.6602,0.262089 -0.6602,0.262099 -0.62417,0.173699 -0.62416,0.173699 0.0113,0.218638 0.0113,0.218649 0.51997,0.665213 z m 3.19464,101.51618 1.94234,3.79729 0.81599,1.00749 0.81599,1.00749 1.58307,1.75417 1.58307,1.75417 0.88186,0.67292 0.88187,0.67291 -0.22986,-1.89295 -0.22985,-1.89294 -0.75475,-2.23205 -0.75474,-2.23205 -1.5554,-2.11396 -1.55539,-2.11397 -1.70826,-1.35379 -1.70827,-1.3538 -0.96827,-0.58842 -0.96827,-0.58842 h -0.22955 -0.22955 l 0.22282,0.94931 0.22281,0.94932 z M 124.07405,84.033483 v 0.602993 l 1.15244,1.69892 1.15244,1.69892 0.58189,0.618316 0.58189,0.618317 0.94065,-0.414827 0.94064,-0.414817 -0.002,-1.756929 -0.002,-1.75693 -0.38074,-1.327121 -0.38073,-1.32712 -1.20425,-1.261936 -1.20424,-1.261927 -0.98403,0.522991 -0.98403,0.523001 -0.24614,0.857834 -0.24613,0.857826 0.14216,0.459747 0.14216,0.459739 v 0.603003 z m 3.72804,10.000811 0.16141,-0.156224 0.32282,-1.992455 0.32282,-1.992468 -0.27845,0.27881 -0.27846,0.278811 -0.15233,1.035629 -0.15234,1.035617 -0.0535,0.834251 -0.0535,0.834252 z m 1.44292,73.366906 0.891,0.79923 2.05148,0.37713 2.05148,0.37714 1.84542,0.16862 1.84541,0.16861 0.43953,-0.51259 0.43953,-0.51259 -1.1817,-1.18005 -1.18171,-1.18004 -1.85062,-0.87635 -1.85064,-0.87634 -1.59505,-0.21161 -1.59505,-0.2116 -0.60005,0.58076 -0.60003,0.58076 v 0.85485 0.85484 z m 1.00335,8.28967 0.92089,0.31906 1.37847,-0.39974 1.37849,-0.39973 2.17387,-1.90405 2.17386,-1.90404 -0.1866,-0.69064 -0.1866,-0.69065 h -1.72417 -1.72416 l -1.81129,0.37597 -1.81129,0.37598 -1.03637,0.84404 -1.03636,0.84403 -0.13762,0.76493 -0.13761,0.76493 0.42279,0.69042 0.42279,0.69042 z m -1.21088,-81.442821 0.28159,-0.690409 0.23391,-1.984941 0.23392,-1.984953 h -0.29005 -0.29005 l -0.0888,1.456838 -0.0889,1.456836 -0.15925,0.154136 -0.15925,0.154135 0.0226,1.064388 0.0226,1.064387 0.28159,-0.690417 z m 1.36558,7.210291 0.56898,2.03218 1.19952,1.16099 1.19952,1.16099 h 1.24168 1.24168 l 0.70675,-1.12192 0.70675,-1.12193 9e-4,-0.86301 9.1e-4,-0.86303 -1.02172,-2.090334 -1.02172,-2.090338 -1.55181,-1.247606 -1.55181,-1.247615 -0.61271,0.317385 -0.61272,0.317386 h -0.77024 -0.77025 l 0.23851,1.812337 0.23851,1.812337 0.56898,2.032178 z m -0.2919,-6.537129 0.33049,-0.327954 0.25094,-2.589056 0.25093,-2.58906 -0.27043,0.24557 -0.27042,0.245561 -0.26424,1.99829 -0.26424,1.998287 -0.0468,0.673153 -0.0468,0.673154 z m 1.11983,-5.898472 1.09366,0.211704 1.92893,-1.194278 1.92892,-1.194278 0.54405,-1.26028 0.54406,-1.260281 v -0.744058 -0.74405 L 136.71539,82.07 136.16017,81.302772 h -1.34426 -1.34426 l -0.73379,0.77672 -0.73377,0.77671 -0.6308,1.205996 -0.63079,1.205986 -0.27193,0.865257 -0.27193,0.865257 -0.0307,0.906169 -0.0307,0.906168 1.09365,0.211704 z m -0.0541,5.553263 0.32625,-0.327953 0.20766,-2.071244 0.20765,-2.071246 -0.17208,0.345209 -0.17208,0.345209 -0.32013,1.898641 -0.32012,1.898639 -0.0417,0.15535 -0.0417,0.15534 z m 1.31589,-1.284461 0.21549,-0.208567 -0.18733,-0.45308 -0.18733,-0.453089 -0.0281,0.661647 -0.0281,0.661647 0.21549,-0.208558 z m 0.53297,-2.213596 0.39179,0.832264 2.83263,0.187919 2.83262,0.187918 1.20582,-0.322251 1.20581,-0.322251 1.09806,-0.992795 1.09806,-0.992793 v -1.016219 -1.016228 l -0.6804,-0.595967 -0.68039,-0.595975 -1.90542,1.56e-4 -1.90541,1.57e-4 -0.93485,0.469626 -0.93485,0.469626 -2.00762,1.338296 -2.00764,1.338287 v 0.09898 0.09899 z m 0.4107,4.271567 0.80251,0.704003 2.02566,1.234959 2.02567,1.23495 1.45031,0.37799 1.45031,0.37798 0.70664,-0.366033 0.70665,-0.366041 0.36484,-0.659808 0.36484,-0.659807 v -0.847469 -0.847468 l -0.62416,-0.67916 -0.62417,-0.67915 -1.60499,-0.561116 -1.60497,-0.561116 -2.60242,-0.05022 -2.6024,-0.05022 -0.50706,0.648126 -0.50706,0.648117 -0.0113,0.198735 -0.0113,0.198726 0.80249,0.704003 z m 0.30947,-22.898266 0.39861,0.84677 1.14069,0.594568 1.14068,0.594568 2.29483,-0.154604 2.29484,-0.154596 1.78331,-0.758986 1.78331,-0.758977 0.0388,-1.045901 0.0388,-1.0459 0.94837,-0.958099 0.94838,-0.958089 -0.54322,-1.490205 -0.54323,-1.490196 -0.74794,-1.171339 -0.74794,-1.171329 -1.29466,-0.851488 -1.29467,-0.851498 h -0.80887 -0.80887 l -0.71332,0.690418 -0.71333,0.690417 v 1.136351 1.136351 l 1.51583,1.437391 1.51581,1.437402 1.56027,0.796973 1.56026,0.796964 -0.0801,0.34026 -0.0801,0.34027 -0.23184,-0.0734 -0.23183,-0.0734 -2.49665,-0.868605 -2.49663,-0.868605 -1.19443,-0.0074 -1.19442,-0.0074 -1.16692,0.535951 -1.16691,0.535951 -0.37867,0.758582 -0.37867,0.758572 -0.0242,0.242664 -0.0242,0.242663 0.39864,0.84677 z m 0.79904,90.229574 0.85593,1.29913 1.94334,1.7832 1.94334,1.78321 0.44452,-0.26591 0.44452,-0.2659 -0.41341,-2.89813 -0.41341,-2.89813 -0.49999,-1.12428 -0.5,-1.12429 -1.16377,-0.68677 -1.16376,-0.68676 -0.64761,-0.002 -0.6476,-9.2e-4 -0.73345,0.37993 -0.73345,0.37991 0.21443,1.51413 0.21443,1.51412 0.85594,1.29912 z m -0.21137,17.21329 0.26203,0.37983 0.75159,0.38267 0.75158,0.38267 1.21007,-0.33696 1.21006,-0.33696 0.7098,-0.94336 0.70979,-0.94333 0.12941,-2.45908 0.1294,-2.45906 -0.40592,-0.7341 -0.40592,-0.73411 h -0.46896 -0.46896 l -1.83867,2.04608 -1.83868,2.04607 -0.33219,0.80189 -0.33218,0.80189 -0.0172,0.86301 -0.0172,0.86302 0.26203,0.37983 z m 2.66951,-99.019713 0.80249,0.727595 0.98844,0.362455 0.98844,0.362463 1.37322,-0.531812 1.37323,-0.531803 1.04984,-1.447399 1.04983,-1.447389 0.7886,-1.880042 0.7886,-1.88005 -0.64148,-0.620874 -0.64149,-0.620873 -2.84528,1.168984 -2.84529,1.168993 -1.51582,1.358439 -1.51582,1.358438 v 0.862636 0.862645 z m 2.06048,4.871774 1.59532,-0.350681 1.32459,0.380206 1.32458,0.380206 0.5479,0.75711 0.54789,0.757111 v 1.104931 1.104931 l -0.88443,1.017332 -0.88444,1.017335 -1.09332,0.438326 -1.09333,0.438318 1.4562,0.631018 1.45619,0.63101 0.51486,1.192668 0.51486,1.192668 -0.52828,1.223757 -0.52829,1.223756 v 0.144515 0.144514 l 1.03576,0.147127 1.03576,0.147145 -0.32244,-0.82085 -0.32244,-0.820842 v -1.172304 -1.172305 l 0.78058,-0.703864 0.78058,-0.703865 h 1.31708 1.31709 l 1.12602,1.114745 1.12604,1.114736 0.20991,0.809519 0.20992,0.809519 0.64728,-1.399313 0.64729,-1.399314 1.17989,-0.696258 1.1799,-0.696258 0.65551,-9.2e-4 0.65551,-0.0018 -0.21763,-1.294524 -0.21763,-1.294533 0.70424,-1.103168 0.70425,-1.103165 0.99786,-0.604695 0.99785,-0.604511 0.10517,-0.06245 0.10517,-0.06245 -1.086,-1.051106 -1.08599,-1.051115 v -0.893694 -0.89366 l -1.36945,0.211952 -1.36944,0.211953 -1.46029,-0.721065 -1.46031,-0.721055 -0.55856,-0.771845 -0.55856,-0.771854 v 1.070274 1.070283 l -0.52982,1.227298 -0.52981,1.227298 -0.79786,0.54089 -0.79787,0.540899 h -1.08961 -1.0896 l -0.74619,-0.505865 -0.74619,-0.505865 -0.58149,-1.186037 -0.58148,-1.186046 v -0.870693 -0.870683 l -1.15916,0.570553 -1.15915,0.570562 -1.51583,-0.02603 -1.51581,-0.02603 -0.0251,0.896115 -0.0251,0.896124 -0.28682,0.690418 -0.28684,0.690408 0.0541,0.06687 0.054,0.06687 1.59531,-0.350681 z m 0.15448,24.327309 0.49812,0.63629 1.34024,0.44595 1.34023,0.44596 2.22323,-0.59669 2.22323,-0.59668 1.12605,-0.91708 1.12605,-0.91707 h 0.40063 0.40064 l -0.428,-0.41425 -0.428,-0.41425 v -1.16574 -1.16574 l 1.08721,-1.05228 1.0872,-1.05229 1.43712,0.18657 1.43713,0.18657 0.68564,0.60056 0.68564,0.60057 v 0.41363 0.41364 l 1.87251,-0.13889 1.87249,-0.1389 1.52079,-0.37445 1.5208,-0.37446 1.06501,-1.17402 1.06502,-1.17403 v -0.6784 -0.67841 l -0.71333,-0.69041 -0.71333,-0.690414 h -1.0842 -1.0842 l -1.32327,0.656734 -1.32328,0.65674 -1.55008,1.43222 -1.55007,1.43222 -0.37454,-0.12083 -0.37455,-0.12084 1.16959,-1.2893 1.16959,-1.28931 0.19357,0.18735 0.19356,0.18735 0.51329,-1.29768 0.51329,-1.297676 0.1765,-1.31176 0.1765,-1.311769 -0.62943,-0.673172 -0.62944,-0.673181 h -1.20925 -1.20926 l -0.8461,0.818928 -0.84611,0.818928 -0.38401,1.338618 -0.38402,1.338617 -0.002,1.812347 -0.002,1.81234 h -0.35667 -0.35666 v -1.09929 -1.09927 l -0.56798,-1.959245 -0.56798,-1.959243 -0.87311,-0.911365 -0.87311,-0.911365 h -0.79785 -0.79788 l -0.79268,0.537386 -0.79269,0.537386 v 1.027136 1.027137 l 0.48797,1.110836 0.48798,1.110837 1.50355,1.63926 1.50357,1.63927 -0.13216,0.38375 -0.13217,0.38376 -1.97372,-1.97214 -1.97372,-1.97215 -1.62727,-0.17752 -1.62728,-0.177536 -0.75501,0.730766 -0.75472,0.73076 v 0.84958 0.84956 l 0.75966,0.685 0.75965,0.68499 2.71781,0.57832 2.71781,0.57832 0.50547,0.14228 0.50547,0.14228 -0.35331,0.34197 -0.35332,0.34196 -2.51062,-0.51115 -2.5106,-0.51116 -1.3205,0.35288 -1.32049,0.35291 -0.69018,0.668 -0.69016,0.668 0.0113,0.94931 0.0113,0.94933 0.49812,0.6363 z m -0.16415,60.81062 0.35667,0.21335 v -1.24897 -1.24897 l -0.35667,0.21335 -0.35666,0.21334 v 0.82228 0.82227 z m 1.11458,0.86301 h 0.31207 v -0.81986 -0.81987 l 0.22292,-1.07877 0.22292,-1.07877 h -0.37865 -0.37865 l -0.1215,1.12192 -0.12149,1.12192 -0.0348,0.77672 -0.0348,0.77671 h 0.31207 z m 0.64903,-5.7461 0.35872,0.9132 h 0.92022 0.92022 l 0.91417,-1.93267 0.91416,-1.93268 -0.18851,-1.36033 -0.18852,-1.36034 -0.43238,-0.50427 -0.4324,-0.50427 h -1.00044 -1.00043 l -0.77717,0.94932 -0.77717,0.94932 0.2054,1.93475 0.2054,1.93475 z m 0.51939,6.06255 0.14302,-0.14384 0.33452,-2.15755 0.33454,-2.15754 h -0.26808 -0.26807 l -0.31701,2.15754 -0.31701,2.15755 0.10754,0.14384 0.10753,0.14384 z m -0.12833,6.65974 0.36737,1.28026 1.10351,1.06806 1.1035,1.06806 1.28007,-0.10447 1.28006,-0.10447 0.50959,-0.88299 0.50959,-0.88299 -0.237,-1.22272 -0.237,-1.22272 -1.63539,-2.47403 -1.63538,-2.47403 -1.38961,0.092 -1.38962,0.0921 0.002,2.24384 0.002,2.24385 0.36737,1.28026 z m 1.43243,-7.8392 0.2951,-1.38083 -0.0216,-0.86302 -0.0216,-0.86302 -0.27226,1.03563 -0.27226,1.03562 -9.1e-4,1.20823 -9e-4,1.20822 0.29509,-1.38083 z m 2.40695,-86.15595 0.64002,0.836321 0.55105,0.336434 0.55107,0.336434 0.95792,-0.232702 0.95793,-0.232703 0.70093,-1.112657 0.70093,-1.112657 9e-4,-1.644948 9.1e-4,-1.644947 -0.59536,-2.152331 -0.59535,-2.15234 -0.20713,-0.214334 -0.20714,-0.214334 -0.95322,-0.217048 -0.9532,-0.217039 -0.43288,1.294395 -0.43287,1.294395 -0.86394,1.55344 -0.86394,1.55343 0.20126,1.55343 0.20126,1.55344 z m -0.38269,84.69259 0.18049,0.60789 0.85259,0.20712 0.85261,0.20711 2.45289,0.048 2.45289,0.048 0.75352,-0.65761 0.75352,-0.65762 v -0.97416 -0.97416 l -0.8924,-0.56594 -0.89239,-0.56594 -2.22841,0.15335 -2.22841,0.15335 -1.37639,0.57535 -1.37639,0.57536 0.25771,0.60599 0.25769,0.606 z m 0.88415,4.5714 1.50224,1.6518 1.7969,0.80988 1.79691,0.80987 1.00427,0.004 1.00427,0.004 0.68988,-0.35735 0.68988,-0.35736 v -0.97306 -0.97306 l -0.85663,-0.89464 -0.85662,-0.89462 -1.27263,-0.51466 -1.27263,-0.51466 -2.67568,-0.48253 -2.6757,-0.48254 -0.16017,0.37428 -0.1602,0.37429 -0.0281,0.3829 -0.0281,0.38291 1.50223,1.65181 z m -0.5485,-56.94963 0.59707,0.57788 1.23049,-0.19327 1.23048,-0.19327 0.64183,-0.56219 0.64183,-0.56218 0.86689,-1.78272 0.8669,-1.78271 0.24652,-1.29453 0.24652,-1.29453 h 0.28817 0.28817 l 0.22587,2.58632 0.22588,2.58632 0.45062,0.71275 0.45062,0.71276 1.18303,0.71326 1.18305,0.71324 1.07482,-0.99176 1.07484,-0.99176 -0.21422,-1.31237 -0.21421,-1.31237 -0.836,-1.28175 -0.83598,-1.28176 -0.5835,-0.46871 -0.58351,-0.4687 v -0.47555 -0.47555 h 0.19889 0.19885 l 2.49709,2.03441 2.49707,2.03441 1.49014,0.36609 1.49014,0.36608 1.07471,-0.60503 1.07471,-0.60504 0.10948,-1.25798 0.10949,-1.25798 -1.36637,-1.32248 -1.36637,-1.32248 -1.53444,-0.44496 -1.53443,-0.44497 -1.92046,-0.11083 -1.92046,-0.11083 -0.39797,1.16713 -0.39797,1.16712 -0.76539,0.51888 -0.7654,0.51888 h -1.32624 -1.32624 l -0.22043,-0.34521 -0.22044,-0.34521 h -0.28539 -0.2854 l -1.70963,1.45654 -1.70962,1.45653 -1.01557,1.35692 -1.01557,1.35692 v 0.95918 0.95916 z m 0.12438,33.06073 0.72145,0.8877 1.86436,0.66603 1.86437,0.66603 2.13998,0.20973 2.13998,0.20974 0.77777,-1.187 0.77776,-1.187 -1.66943,-1.34516 -1.66942,-1.34515 -1.17833,-0.58406 -1.17834,-0.58404 -1.75294,-0.20096 -1.75295,-0.20094 -0.90285,0.57258 -0.90285,0.57256 v 0.98112 0.98111 z m -0.0918,9.42364 0.26204,0.37983 0.77904,0.39689 0.77905,0.39688 h 1.04859 1.0486 l 1.5139,-0.51698 1.51391,-0.51698 0.94454,-0.95015 0.94455,-0.95016 0.67386,-0.7773 0.67387,-0.77731 -0.68,-1.22773 -0.67999,-1.22772 -2.67388,0.24123 -2.6739,0.24125 -1.03902,0.28842 -1.03903,0.28842 -0.83455,0.75883 -0.83454,0.75884 0.005,1.40695 0.005,1.40696 0.26203,0.37983 z m -0.18144,6.69692 h 0.0915 l 1.24597,-0.36541 1.24597,-0.36542 2.13998,-0.006 2.13998,-0.006 v -2.40782 -2.40782 l -0.71333,0.23623 -0.71333,0.23621 -2.31831,0.0996 -2.31831,0.0996 -0.27406,1.81702 -0.27407,1.81701 -0.17176,0.16625 -0.17177,0.16624 v 0.46029 0.46027 h 0.0915 z m 1.00317,-31.5478 0.73804,1.15581 1.45525,0.37927 1.45525,0.37927 1.61274,-0.59612 1.61274,-0.59613 2.1596,-2.02012 2.15961,-2.02013 h 0.25743 0.25743 l -0.35938,-0.99779 -0.35937,-0.99779 -3.40509,0.11228 -3.4051,0.11228 -1.92675,0.9124 -1.92677,0.91239 -0.51754,0.92244 -0.51755,0.92243 -0.0143,0.13186 -0.0143,0.13186 0.73802,1.15579 z m 0.7778,-9.00464 1.15915,1.20753 2.04669,0.68767 2.04668,0.68768 2.6286,0.27258 2.6286,0.2726 0.40219,-1.0313 0.40219,-1.0313 -1.67785,-1.51229 -1.67785,-1.5123 -1.79464,-0.81302 -1.79464,-0.81303 -1.34344,-0.23656 -1.34342,-0.23657 -1.02087,0.40928 -1.02087,0.40928 -0.37571,0.75214 -0.3757,0.75214 -0.0242,0.26398 -0.0241,0.26397 1.15915,1.20752 z m 0.0576,-58.706084 0.49214,1.369449 0.94475,0.244549 0.94477,0.244548 1.04118,-1.613997 1.0412,-1.613988 0.35375,-1.585346 0.35374,-1.585347 -0.27088,-0.980329 -0.27088,-0.98033 -0.91888,-0.664011 -0.91888,-0.664011 -1.14615,0.243657 -1.14614,0.243648 -0.69047,1.432599 -0.69048,1.4326 0.19455,1.553431 0.19455,1.553439 z m -0.50345,5.534709 0.27227,-1.035626 0.0422,-0.797093 0.0422,-0.797083 -0.35666,0.21335 -0.35667,0.21335 0.0422,1.61936 0.0422,1.619359 z m 1.04287,1.208222 0.26824,-0.863013 0.22929,-1.639742 0.22927,-1.639732 h -0.32615 -0.32615 l -0.14858,0.949315 -0.14858,0.949324 -0.0228,1.55343 -0.0228,1.553439 0.26823,-0.863021 z m 0.88656,1.035626 h 0.1461 l 0.42504,-2.438996 0.42505,-2.438996 -0.18715,-0.18114 -0.18715,-0.18113 -0.34581,1.498207 -0.3458,1.498207 -0.0382,1.121919 -0.0382,1.121929 z m 1.25387,-0.690418 0.2687,-0.863022 0.25197,-1.54047 0.25199,-1.540471 -0.25017,0.24213 -0.25017,0.24213 -0.26014,1.298341 -0.26014,1.29834 -0.0103,0.863022 -0.0103,0.863022 0.26868,-0.863022 z m 0.51034,3.279474 0.4752,1.726035 0.57775,1.080806 0.57774,1.080805 1.09331,0.890395 1.09329,0.890403 1.2394,0.22505 1.2394,0.22504 0.85909,-0.544817 0.85909,-0.544818 0.23918,-1.053994 0.23918,-1.053985 -0.89897,-1.484687 -0.89896,-1.484695 -1.36003,-0.876736 -1.36005,-0.876736 -1.32842,-0.761506 -1.32842,-0.761498 -0.88951,0.626843 -0.88952,0.626843 -0.007,0.172604 -0.007,0.172605 0.47521,1.726043 z m 0.14049,112.452001 0.62417,0.53921 1.49101,0.38416 1.49102,0.38416 1.70773,-0.37042 1.70772,-0.37041 2.17209,-1.00335 2.1721,-1.00335 0.6686,-0.71507 0.6686,-0.71507 -0.51115,-0.45061 -0.51116,-0.45061 -1.42665,-0.37827 -1.42665,-0.37826 -1.69633,-0.23551 -1.69633,-0.23552 -1.95745,0.23672 -1.95745,0.23671 -1.07201,1.03758 -1.07202,1.03758 v 0.95557 0.95556 z m 2.26074,-119.990736 1.21673,-0.503952 1.52837,-0.610563 1.52837,-0.610563 1.25169,-1.340972 1.25169,-1.340963 0.35022,-0.891572 0.35023,-0.891571 -0.56313,-0.831824 -0.56312,-0.831832 -0.89622,-0.329803 -0.89623,-0.329802 h -0.4659 -0.46591 l -1.4673,1.294533 -1.46729,1.294523 -1.59522,2.589057 -1.59522,2.589056 0.64076,0.625105 0.64075,0.625095 z m -1.96205,37.656666 0.20952,-0.20279 0.28791,-1.23558 0.28792,-1.23557 h -0.2965 -0.29651 l -0.14385,1.12192 -0.14385,1.12192 -0.0571,0.31644 -0.0571,0.31644 z m 1.21713,0.26032 0.27227,-1.03562 0.006,-0.69042 0.006,-0.69041 -0.28556,0.86301 -0.28556,0.86302 0.006,0.86303 0.006,0.86301 0.27226,-1.03562 z m 1.81113,-33.471489 1.81111,0.888288 1.66636,0.190374 1.66634,0.190375 1.53209,-0.399972 1.53208,-0.399972 0.65646,-1.044788 0.65646,-1.044778 -0.18696,-0.750009 -0.18696,-0.750019 -0.72678,-0.777244 -0.72677,-0.777235 -1.22755,-0.328055 -1.22754,-0.328055 -1.65225,0.315335 -1.65224,0.315325 -1.10945,0.320559 -1.10944,0.320559 -0.76304,0.395253 -0.76305,0.395245 v 1.190267 1.190268 z m -0.86159,34.075599 0.1799,-0.4315 -0.1799,-0.43151 -0.1799,-0.43152 v 0.86303 0.86301 z m 0.53928,31.90944 0.77551,0.79896 h 0.75013 0.75012 l 0.76344,-0.51754 0.76343,-0.51756 0.71667,-1.12235 0.71667,-1.12234 0.69676,-2.43358 0.69675,-2.43358 -1.00718,-0.55947 -1.00718,-0.55948 -2.6953,2.73053 -2.69531,2.73053 v 1.10345 1.10346 z m -0.0348,25.16801 0.35856,0.41815 0.88011,0.2138 0.88011,0.2138 1.09501,-0.54806 1.095,-0.54807 0.56096,-1.2716 0.56095,-1.2716 -0.0438,-2.56182 -0.0438,-2.56183 -0.2778,-0.26172 -0.27779,-0.26169 -0.93028,-0.22218 -0.93028,-0.22218 -1.12168,1.37074 -1.12168,1.37075 -0.69644,1.50236 -0.69645,1.50236 0.17533,1.36031 0.17532,1.36031 z m -0.14782,-59.14869 0.1799,-0.43151 -0.1799,-0.43151 -0.17989,-0.43151 v 0.86302 0.86302 z m 1.07,0.3452 0.1799,-0.43151 -0.1799,-0.4315 -0.1799,-0.43151 v 0.86301 0.86302 z m 0.52028,74.71871 0.75649,1.18471 1.31167,0.80143 1.31167,0.80141 2.07408,0.63281 2.07407,0.63279 0.67272,-0.80409 0.67272,-0.80409 v -0.26494 -0.26494 l -2.31076,-2.41567 -2.31078,-2.41568 -1.26508,-0.58104 -1.26508,-0.58105 -0.79328,0.23529 -0.79328,0.23528 -0.44583,0.34523 -0.44582,0.34523 v 0.8663 0.86631 z m 0.89714,-32.09662 0.73995,0.96036 1.15472,0.0576 1.15473,0.0576 0.71836,-1.57181 0.71837,-1.57182 0.17803,-1.93779 0.17803,-1.9378 -0.77715,-0.94931 -0.77716,-0.94933 h -0.84899 -0.84898 l -0.8721,0.3846 -0.87209,0.38458 -0.388,0.73734 -0.38801,0.73733 0.0952,2.31911 0.0952,2.31913 z m 0.27656,5.59189 0.14686,-0.14384 0.33944,-1.81234 0.33944,-1.81234 h -0.28538 -0.28537 l -0.14385,1.12193 -0.14385,1.12192 -0.0571,0.83425 -0.0571,0.83425 z m 0.90174,-31.45725 0.33528,1.13152 0.82387,0.93744 0.82387,0.93744 0.97996,-0.10915 0.97995,-0.10914 0.15492,-0.75388 0.1549,-0.75386 0.40423,-2.18376 0.40424,-2.18376 -0.57713,-0.85253 -0.57714,-0.85252 -0.8728,-0.3849 -0.87279,-0.3849 -0.90209,0.39781 -0.90207,0.39781 -0.32363,0.77953 -0.32365,0.77951 -0.0226,1.03791 -0.0226,1.0379 0.33529,1.13153 z m 0.40211,31.14081 0.30259,-1.55344 0.18441,-0.94932 0.18443,-0.94932 h -0.32622 -0.32622 l -0.13991,1.29453 -0.13989,1.29453 -0.0209,1.20823 -0.0209,1.20822 0.30258,-1.55343 z m 0.72698,43.53024 1.1077,1.00152 h 0.52075 0.52073 l 0.68619,-0.35544 0.68619,-0.35545 0.59571,-1.11169 0.59572,-1.11169 0.7696,-3.53227 0.76961,-3.53228 -0.36298,-0.3513 -0.36296,-0.35132 -0.37451,9.2e-4 -0.37449,0.002 -2.27839,1.96713 -2.27839,1.96711 -0.66275,1.0519 -0.66275,1.05189 -0.002,1.32863 -0.002,1.32863 1.10771,1.00152 z m -0.0377,-104.631954 0.71333,0.690408 h 1.3831 1.3831 l 1.23678,-0.500162 1.23678,-0.500154 1.86699,-1.428369 1.86698,-1.428362 0.20679,0.200151 0.20679,0.200142 -2.1655,1.994381 -2.16549,1.994388 -0.24141,1.24549 -0.24141,1.245491 0.56264,1.053093 0.56266,1.053102 0.71149,0.218565 0.7115,0.218566 0.95449,-0.453006 0.95449,-0.453006 0.6749,-0.883239 0.6749,-0.883239 0.45401,-2.972095 0.45402,-2.972096 -1.00768,-0.920529 -1.00766,-0.920535 -0.0395,-0.574857 -0.0395,-0.574848 0.0684,-0.863022 0.0684,-0.863013 0.49652,-0.750534 0.49652,-0.750534 0.77182,-0.237099 0.77181,-0.237098 -0.21853,-2.502304 -0.21855,-2.502295 -0.68003,-1.535494 -0.68002,-1.535495 -0.9212,-0.584193 -0.92118,-0.584193 h -0.64652 -0.64651 l -0.79269,0.537386 -0.79268,0.537385 v 1.280332 1.280341 l 0.62415,1.098833 0.62417,1.098833 1.69415,1.718833 1.69415,1.718824 v 0.370125 0.370116 h -0.22205 -0.22205 l -2.28764,-2.071243 -2.28764,-2.071244 h -1.60816 -1.60814 l -0.91877,0.889263 -0.91878,0.889263 0.19919,1.437355 0.19919,1.437365 0.76434,0.599038 0.76433,0.599047 1.2328,0.329453 1.23281,0.329463 2.12695,-0.183578 2.12696,-0.183568 v 0.335358 0.335358 l -1.33748,0.213967 -1.33749,0.213976 -1.89593,0.0037 -1.89593,0.0037 -0.77905,0.387389 -0.77904,0.387381 -0.98083,0.885427 -0.98082,0.885419 v 0.971042 0.97104 l 0.71333,0.690418 z m 0.55599,60.583904 0.48288,-2.07125 0.0156,-0.32794 0.0156,-0.32796 -0.32923,0.32796 -0.32921,0.32794 -0.15234,1.03562 -0.15234,1.03563 -0.0169,1.03561 -0.0169,1.03563 0.48289,-2.07124 z m 0.20886,-38.42639 -0.0387,1.6618 h 0.91268 0.91268 l 1.04255,1.00906 1.04256,1.00907 v 0.62302 0.62302 l 1.06254,-1.24765 1.06254,-1.24765 0.95394,-0.23172 0.95394,-0.23174 0.98456,0.39472 0.98456,0.39472 0.44903,1.04922 0.44902,1.04923 -0.36357,1.31836 -0.36356,1.31836 0.9832,-0.19032 0.9832,-0.19033 1.27467,0.40717 1.27468,0.40717 0.7189,0.88458 0.71891,0.88458 v 1.20722 1.20721 l -1.19428,1.09017 -1.19427,1.09017 -1.52802,0.48808 -1.52802,0.4881 1.41782,0.58281 1.41782,0.58282 0.79433,0.97738 0.79433,0.9774 0.1967,0.95186 0.19669,0.95186 0.68634,-0.8445 0.68632,-0.84451 1.32127,-0.35517 1.32127,-0.35518 1.01898,-0.002 1.01898,-0.002 -0.25759,-0.6041 -0.2576,-0.60412 -0.25351,-1.03563 -0.25351,-1.03561 0.30067,-1.10646 0.30067,-1.10646 0.78664,-0.53327 0.78662,-0.53299 h 0.96742 0.96741 l 1.00404,0.36717 1.00404,0.36716 0.98082,0.90565 0.98084,0.90564 v -1.08849 -1.08851 l 0.56759,-1.15203 0.56759,-1.15203 1.01299,-0.65895 1.01299,-0.65897 -1.35338,-0.78113 -1.35338,-0.78113 -0.55846,-1.11606 -0.55845,-1.11605 -0.23689,1.02112 -0.23689,1.0211 -0.15415,0.51781 -0.15415,0.51781 -0.83611,0.58622 -0.83612,0.58623 -0.858,0.20842 -0.858,0.20843 -1.23939,-0.80626 -1.23939,-0.80626 -0.32478,-1.26058 -0.32476,-1.26059 0.68143,-1.66045 0.68143,-1.66046 0.12046,-0.26508 0.12047,-0.26509 -1.8723,1.12649 -1.87228,1.12649 h -2.11382 -2.11382 l -0.68182,-0.81496 -0.68181,-0.81496 v -0.80019 -0.8002 l 1.21581,-1.24773 1.21582,-1.24773 -1.0125,-0.19599 -1.0125,-0.19599 -0.74804,-0.77068 -0.74804,-0.77068 -0.15616,-0.78486 -0.15617,-0.78487 0.49581,-0.92799 0.49581,-0.928 0.93519,-0.41241 0.9352,-0.41242 h 1.3545 1.35451 l 2.00625,0.64061 2.00627,0.64061 -0.24183,-0.3817 -0.24184,-0.38171 -1.01726,-1.46175 -1.01726,-1.46177 -0.19859,-1.18448 -0.19859,-1.18447 -1.93859,0.19365 -1.93857,0.19365 -1.24612,-1.169 -1.24612,-1.16899 -0.3869,-1.487161 -0.3869,-1.487152 -0.60878,0.966248 -0.60878,0.966257 -0.50363,0.383904 -0.50363,0.383913 -0.98082,0.226781 -0.98083,0.22678 v 0.87019 0.8702 l -0.69758,1.32346 -0.69759,1.32347 -1.45408,0.69631 -1.45409,0.69631 1.09843,0.37061 1.09841,0.37062 0.95629,0.72805 0.9563,0.72806 0.6296,0.92399 0.6296,0.92399 0.003,1.04511 0.003,1.04511 -0.54551,0.75381 -0.54551,0.75381 -1.25807,0.33621 -1.25806,0.33622 -1.61845,-0.47144 -1.61846,-0.47144 -0.727,-0.62807 -0.727,-0.62808 0.27084,0.84097 0.27083,0.84095 -0.0387,1.66179 z m 1.35791,-16.32032 1.40942,-0.659081 0.64139,-0.0018 0.6414,-0.0018 0.022,-2.059507 0.022,-2.059498 -0.91362,0.240897 -0.91362,0.240907 -0.98082,0.0083 -0.98083,0.0083 v 0.07009 0.07009 l 0.3662,0.792963 0.3662,0.792963 -0.50927,1.55343 -0.50926,1.553431 -0.0353,0.055 -0.0353,0.055 1.40942,-0.659081 z m -0.91476,31.76164 0.13801,-0.14383 0.25898,-1.89864 0.25899,-1.89864 -0.24324,0.22516 -0.24324,0.22516 -0.26592,1.67348 -0.26592,1.67348 0.11217,0.14383 0.11217,0.14384 z m 0.0775,24.44501 0.21548,-0.20857 -0.18733,-0.45309 -0.18733,-0.45308 -0.0281,0.66165 -0.0281,0.66165 0.21548,-0.20856 z m 0.91667,-4.15755 0.7755,0.79897 h 0.64968 0.64965 l 2.62095,-1.17176 2.62096,-1.17177 0.76885,-0.94604 0.76886,-0.94604 v -0.79141 -0.7914 l -0.93976,-0.71547 -0.93976,-0.71547 h -0.76798 -0.76799 l -1.58427,0.77671 -1.58426,0.77672 -1.52295,1.82527 -1.52294,1.82528 v 0.22372 0.22373 z m -0.53928,2.6113 0.1799,-0.43151 -0.1799,-0.43151 -0.1799,-0.4315 v 0.86301 0.86302 z m 0.86724,7.14409 0.71471,1.5638 0.78507,0.8255 0.78507,0.82552 1.14209,0.47105 1.1421,0.47105 0.83421,-0.30697 0.83421,-0.30699 0.47768,-0.55707 0.47767,-0.55707 -0.19432,-1.40221 -0.19432,-1.40221 -0.91371,-1.33638 -0.91372,-1.33636 -1.52427,-0.67133 -1.52429,-0.67131 -0.69785,-0.5179 -0.69786,-0.51792 -0.85328,0.54114 -0.8533,0.54114 0.22971,1.39036 0.2297,1.39037 z m -0.15618,-30.26642 0.17763,-0.42493 -0.16442,-0.61068 -0.16442,-0.61068 -0.0132,1.03561 -0.0132,1.03563 0.17764,-0.42495 z m 0.35666,-2.07124 0.17764,-0.42494 -0.16442,-0.61068 -0.16442,-0.61068 -0.0132,1.03562 -0.0132,1.03563 0.17764,-0.42495 z m 0.42033,11.07757 0.68324,1.49497 0.82515,0.74405 0.82514,0.74405 h 0.94061 0.94056 l 0.72626,-0.77672 0.72627,-0.77672 0.19644,-0.78507 0.19642,-0.78508 -0.32192,-1.12847 -0.32194,-1.12848 -1.97309,-2.31524 -1.9731,-2.31524 h -0.85409 -0.85409 l -0.1386,0.40245 -0.13861,0.40246 -0.084,2.36403 -0.084,2.36404 z m 0.19168,-8.78276 0.13263,-0.14383 0.20597,-1.72603 0.20597,-1.72605 -0.30305,0.86302 -0.30305,0.86303 -0.0356,1.00685 -0.0356,1.00685 0.13263,-0.14384 z m 2.8059,25.36552 2.7602,1.34483 1.73526,0.16139 1.73525,0.16138 0.76164,-0.39453 0.76164,-0.39452 0.57341,-1.07324 0.57341,-1.07324 -0.37514,-0.7969 -0.37515,-0.79692 -0.84334,-0.53483 -0.84335,-0.53483 -2.11537,-0.21068 -2.11537,-0.21069 -2.09975,0.37909 -2.09974,0.37908 -0.43722,0.3512 -0.43721,0.3512 0.0404,0.77369 0.0404,0.77368 z m -1.64206,-29.80673 0.93979,0.34584 0.93269,-0.57659 0.93268,-0.57659 1.20883,-1.24493 1.20882,-1.24492 0.48533,-1.11083 0.48532,-1.11084 v -0.67684 -0.67685 l -0.56047,-0.54246 -0.56047,-0.54248 h -1.16067 -1.16068 l -0.73378,0.77672 -0.73378,0.77671 -0.58221,1.11508 -0.58221,1.11507 -0.50603,1.8192 -0.50602,1.81919 -0.0234,0.0948 -0.0234,0.0948 0.9398,0.34583 z m 0.44076,54.26616 1.1755,2.33015 h 0.4798 0.47981 l 0.53524,-0.51805 0.53524,-0.51804 0.41601,-1.93959 0.41603,-1.93957 -0.24698,-1.59402 -0.24696,-1.59401 -0.50418,-0.94364 -0.50416,-0.94364 -0.74285,-0.38479 -0.74286,-0.3848 -0.87389,0.2123 -0.87387,0.21227 -0.33762,0.7664 -0.33761,0.76638 0.0989,2.07124 0.0989,2.07126 z m 1.38357,-47.32569 0.98083,1.08368 0.89166,0.83535 0.89166,0.83536 1.32327,0.66704 1.32329,0.66702 0.99503,-0.0109 0.99503,-0.011 0.57226,-0.42185 0.57226,-0.42185 0.26121,-0.79658 0.26122,-0.79657 -0.81232,-1.14742 -0.81231,-1.14741 -1.87014,-0.88775 -1.87014,-0.88773 -1.82163,-0.23389 -1.82163,-0.23389 -0.50884,0.65049 -0.50885,0.65049 -0.0113,0.2619 -0.0113,0.26189 0.98084,1.08368 z m -0.62416,52.9353 0.30653,-0.69042 0.0251,-0.45187 0.0251,-0.45188 -0.35666,0.21335 -0.35667,0.21335 0.0251,0.92894 0.0251,0.92895 0.30653,-0.69042 z m 0.58149,12.12834 0.58149,1.18604 0.74619,0.50587 0.74619,0.50586 h 0.93536 0.93535 l 0.56249,-0.60411 0.56249,-0.60411 0.24576,-0.95311 0.24577,-0.95311 -0.44275,-2.2711 -0.44275,-2.2711 -0.59351,-1.60562 -0.59351,-1.60561 -1.45477,-0.0985 -1.45479,-0.0985 -0.5404,2.51189 -0.5404,2.5119 -0.0398,1.32865 -0.0398,1.32866 z m 0.39007,-68.91496 0.15788,0.1726 2.73441,-0.008 2.73443,-0.008 1.50389,-0.76984 1.5039,-0.76984 0.36859,-0.6666 0.36859,-0.66659 v -0.86066 -0.86066 l -0.98083,-0.74939 -0.98083,-0.7494 -1.82758,0.14502 -1.82758,0.14503 -2.17944,1.83474 -2.17944,1.83472 0.22306,0.90213 0.22307,0.90213 z m -0.30381,58.34006 h 0.31107 l 0.24098,-1.46714 0.24096,-1.46712 0.20096,-0.78062 0.20095,-0.78062 -0.5853,0.21739 -0.5853,0.21738 0.16535,0.56323 0.16535,0.56324 -0.29203,1.38082 -0.29204,1.38084 -0.041,0.0863 -0.041,0.0863 z m 1.34602,0.58244 0.23045,-0.22305 0.4295,-2.42354 0.42951,-2.42355 h -0.54106 -0.54107 l 0.16779,0.16241 0.16781,0.16241 -0.40914,2.34034 -0.40914,2.34035 0.12245,0.14384 0.12245,0.14383 z m 1.20069,0.10094 0.32237,-0.50483 0.23492,-1.81987 0.23492,-1.81988 0.3693,-0.22091 0.36929,-0.2209 -0.2497,1.51999 -0.2497,1.52 -0.19995,0.77672 -0.19994,0.77671 h 0.34941 0.34938 l 0.23657,-1.72603 0.23657,-1.72604 h 0.40654 0.40655 l -0.83767,-0.86302 -0.83767,-0.86302 h -0.23276 -0.23275 l -0.52823,2.67536 -0.52823,2.67535 0.12921,0.16261 0.12924,0.16261 z m 0.88358,-5.65335 1.24473,0.37708 2.18014,-1.93235 2.18015,-1.93235 0.52105,-0.97451 0.52104,-0.97452 -0.23065,-1.01642 -0.23065,-1.01643 -1.02258,-0.51181 -1.02259,-0.51181 h -0.5046 -0.5046 l -0.91117,0.6937 -0.91116,0.69369 -0.92026,1.59363 -0.92025,1.59364 -0.0251,0.90583 -0.0251,0.90585 -0.30653,0.69041 -0.30653,0.69042 -0.0251,0.17443 -0.0251,0.17443 1.24474,0.37709 z m 3.11513,10.77182 1.05227,1.48677 1.44908,1.01598 1.44908,1.016 h 1.13953 1.13953 l 0.61311,-0.65572 0.61311,-0.65572 0.0305,-1.03964 0.0305,-1.03964 -0.85586,-1.02668 -0.85588,-1.02666 -1.60498,-1.01227 -1.60498,-1.01225 -1.90646,-0.77715 -1.90646,-0.77716 -0.66502,0.58251 -0.66502,0.5825 0.7478,1.42618 0.7478,1.42619 1.05228,1.48676 z M 168.43818,88.552129 h 0.13785 l 0.15704,-1.035627 0.15704,-1.035617 h -0.29489 -0.29489 v 1.035617 1.035627 z m 0.57547,98.729321 0.34574,-0.51781 v -0.69042 -0.69041 l -0.34574,0.51781 -0.34573,0.51781 v 0.69042 0.69042 z m 0.3106,-97.348495 h 0.31059 l 0.24635,-2.107529 0.24636,-2.107538 -0.16865,-0.163231 -0.16865,-0.163232 -0.34593,1.839258 -0.34593,1.839259 -0.0423,0.431502 -0.0423,0.431511 z m 0.58589,95.178235 0.0283,0.0736 1.94506,-0.501 1.94507,-0.501 1.12745,-0.004 1.12744,-0.004 0.92337,-1.0621 0.92336,-1.06211 v -0.61043 -0.61042 l -0.69906,-0.61233 -0.69907,-0.61232 -1.22048,0.22161 -1.22047,0.22161 -1.55793,1.07167 -1.55793,1.07167 -0.9743,0.87751 -0.9743,0.87751 0.42755,0.54557 0.42754,0.54558 0.0283,0.0736 z m 0.59432,-86.752405 0.35036,1.349075 1.01363,0.98107 1.01363,0.98108 h 1.11446 1.11445 l 0.88324,-0.92241 0.88324,-0.922423 0.2165,-0.834895 0.2165,-0.834895 -0.41104,-1.327866 -0.41105,-1.327865 -1.49106,-1.834025 -1.49107,-1.834035 -0.45513,-0.448572 -0.45514,-0.448573 -1.23743,0.224682 -1.23742,0.224691 -0.11143,1.432112 -0.11143,1.432113 0.12791,1.380835 0.12792,1.380826 z m 0.38168,89.909145 1.15915,0.44742 2.46995,0.83649 2.46996,0.83647 1.09667,-0.0109 1.09669,-0.0109 0.61014,-0.44866 0.61014,-0.44866 0.34541,-0.87931 0.3454,-0.87931 -0.53136,-0.73426 -0.53137,-0.73426 -1.13751,-0.57918 -1.1375,-0.57918 -2.31832,0.0195 -2.3183,0.0196 -1.49197,0.39609 -1.49198,0.3961 -0.15361,0.76962 -0.15361,0.76962 -0.0486,0.18323 -0.0486,0.18322 1.15916,0.44743 z m -0.11479,-98.680184 0.26974,-0.863013 0.25786,-1.892385 0.25786,-1.892384 -0.26766,0.259063 -0.26765,0.259054 -0.24595,1.460726 -0.24595,1.460717 -0.0139,1.035617 -0.0139,1.035627 0.26972,-0.863022 z m 1.25482,-5.126505 1.05086,0.270155 1.50655,-1.110201 1.50655,-1.110201 0.9339,-1.380826 0.93391,-1.380835 0.19655,-0.751261 0.19654,-0.75126 -0.48037,-0.974775 -0.48038,-0.974774 -1.21845,-0.112635 -1.21846,-0.112635 -0.81916,0.424327 -0.81917,0.424319 -0.92212,1.287882 -0.92211,1.287874 -0.31457,0.989491 -0.31457,0.98949 0.0668,1.35785 0.0668,1.35785 z m -0.60504,26.947769 0.62416,0.5254 1.52405,0.22387 1.52404,0.22386 2.3011,-0.35579 2.30109,-0.35579 0.98981,-0.38113 0.98983,-0.38111 -0.44583,-0.16023 -0.44583,-0.16022 v -0.50815 -0.50814 l -2.05082,-0.91185 -2.05081,-0.91184 -2.04827,-0.14599 -2.04828,-0.14599 -0.8942,0.56708 -0.89419,0.56709 v 1.14676 1.14676 z m 0.40928,-21.476055 0.29844,-0.517814 0.20382,-2.021281 0.20383,-2.021291 -0.16663,0.161282 -0.16663,0.161273 -0.30739,1.5148 -0.3074,1.514809 -0.0282,0.863013 -0.0282,0.863022 z m 0.4949,27.400915 0.45834,0.60668 1.45079,0.18834 1.4508,0.18835 1.56833,-0.67686 1.56833,-0.67686 1.87249,-1.63762 1.87248,-1.63761 -0.0113,-0.22692 -0.0113,-0.22691 -0.50477,-0.6451 -0.50478,-0.6451 -3.08061,0.55308 -3.08062,0.55309 -1.36293,0.7414 -1.36292,0.7414 -0.36615,0.73144 -0.36616,0.73145 -0.0242,0.36552 -0.0242,0.36554 0.45834,0.60669 z m 0.60983,48.19788 1.06817,0.96577 2.26018,0.38095 2.26018,0.38095 h 1.59888 1.59887 l 0.63312,-1.28501 0.63312,-1.28503 -1.01289,-0.80396 -1.01289,-0.80397 -1.48685,-0.86165 -1.48685,-0.86165 -1.77427,-0.27146 -1.77426,-0.27147 -0.94916,0.48135 -0.94916,0.48134 -0.31458,0.75581 -0.31457,0.75582 -0.0226,0.63821 -0.0226,0.63822 1.06818,0.96578 z m 0.0107,8.12178 0.7222,0.63258 1.74302,0.025 1.74301,0.025 1.50895,-1.03561 1.50895,-1.03563 1.22276,-1.44264 1.22276,-1.44266 -0.71316,-0.69024 -0.71314,-0.69023 -2.07629,-0.006 -2.07629,-0.006 -1.35462,0.38622 -1.35461,0.38621 -1.05286,1.16064 -1.05287,1.16062 v 0.97011 0.97011 l 0.72219,0.63258 z m 0.22736,-85.360308 0.1799,-0.431511 -0.1799,-0.431511 -0.1799,-0.431511 v 0.863022 0.863022 z m 4.88179,6.295529 1.79866,0.867528 h 1.32927 1.32925 l 1.09736,-0.893705 1.09736,-0.893706 V 92.522014 91.37516 l -1.08621,-0.884631 -1.08621,-0.884627 -1.4996,-0.37638 -1.4996,-0.376389 -1.24832,-0.321184 -1.24833,-0.321175 -1.45145,-0.0018 -1.45146,-0.0018 -0.51393,1.121919 -0.51392,1.121929 1.57424,1.635228 1.57423,1.635235 z m -3.8305,-7.379995 0.11888,0.210067 2.8323,0.06604 2.83228,0.06604 1.27975,-0.517537 1.27974,-0.517538 0.89139,-0.930928 0.89139,-0.930938 v -0.640005 -0.640005 l -0.71333,-0.690417 -0.71332,-0.690409 h -1.56015 -1.56014 l -1.48885,0.508422 -1.48885,0.508423 -1.58053,1.098594 -1.58053,1.098594 0.22054,0.895738 0.22055,0.895738 z m 0.68466,51.308224 0.54552,0.75381 1.32697,0.3567 1.32697,0.35669 1.49827,0.002 1.49826,0.002 1.80607,-0.37489 1.80606,-0.37489 0.5298,-0.51279 0.5298,-0.51308 v -0.50399 -0.50398 l -0.62415,-0.21798 -0.62417,-0.21798 -1.91673,-1.21401 -1.91674,-1.21401 -1.64989,-0.0243 -1.6499,-0.0243 -1.11599,0.45607 -1.11598,0.45609 -0.37569,0.75214 -0.37571,0.75215 -0.0242,0.52729 -0.0242,0.52732 0.54552,0.75381 z m 2.11326,8.5635 0.87545,0.84732 h 1.09766 1.09765 l 1.17569,-0.47545 1.17569,-0.47546 1.93366,-1.65705 1.93366,-1.65704 0.58627,-0.92239 0.58626,-0.92241 -1.0109,-1.04692 -1.0109,-1.04692 -2.3586,0.63302 -2.35859,0.633 -1.14007,0.68297 -1.14007,0.68298 -0.93632,0.97349 -0.93633,0.97351 -0.19467,0.51781 -0.19467,0.51781 -0.0281,0.4472 -0.0281,0.4472 z m 0.73223,-42.51946 0.5377,1.0967 1.61681,1.78889 1.6168,1.78889 1.19447,-0.58958 1.19448,-0.58958 -0.17526,-1.20822 -0.17526,-1.20823 -0.31935,-1.24132 -0.31936,-1.24133 -1.03954,-1.38895 -1.03955,-1.38896 -0.92473,-0.22464 -0.92472,-0.224631 -0.89009,0.564471 -0.89009,0.56447 v 1.20265 1.20266 z m 1.59585,54.57148 0.70689,1.59612 1.84149,1.88457 1.8415,1.88457 h 0.83992 0.83992 v -3.29322 -3.29322 l -0.69769,-1.32366 -0.69768,-1.32365 -1.113,-0.90644 -1.11299,-0.90645 h -0.86429 -0.8643 l -0.71333,0.69042 -0.71332,0.69042 v 1.3522 1.35221 z m 1.34974,-36.31854 0.55058,0.60412 h 1.03816 1.03816 l 0.65236,-0.33793 0.65237,-0.33791 0.39417,-1.09443 0.39418,-1.09442 v -1.47558 -1.47559 l -0.41163,-1.72602 -0.41164,-1.72603 -0.72069,-0.18241 -0.7207,-0.18241 -0.48125,0.58757 -0.48124,0.58758 -0.93615,1.72604 -0.93615,1.72603 -0.2766,0.86302 -0.2766,0.86301 0.19104,1.03563 0.19105,1.03562 z m -0.60621,8.78032 0.38042,0.97179 0.77874,0.82536 0.77873,0.82536 1.58565,0.98698 1.58565,0.98699 0.55433,-0.0115 0.55433,-0.0115 0.81606,-0.65859 0.81606,-0.65859 -0.54857,-1.27072 -0.54855,-1.27073 v -0.70196 -0.70198 l -0.93868,-1.19113 -0.93867,-1.19115 -1.18985,-0.48118 -1.18985,-0.48118 h -0.72478 -0.72479 l -0.71332,0.69041 -0.71333,0.69042 v 0.84055 0.84054 z m 1.1342,47.74872 1.15797,0.68157 0.71452,-0.2056 0.71452,-0.20561 0.60034,-0.73553 0.60033,-0.73552 0.22784,-1.17544 0.22782,-1.17545 -0.23984,-2.47737 -0.23985,-2.47738 -0.99559,-0.36372 -0.99559,-0.36372 -1.23974,1.59566 -1.23974,1.59566 -0.19732,0.51782 -0.19731,0.5178 -0.0281,2.16262 -0.0281,2.16263 1.15796,0.68158 z m 0.98202,-68.00718 0.34575,0.51781 0.005,-0.74848 0.005,-0.74848 0.20745,-0.63236 0.20745,-0.63234 -0.56411,0.67009 -0.56411,0.67009 0.005,0.19293 0.005,0.19292 z m 1.02405,1.38082 h 0.31071 l 0.23657,-1.72603 0.23656,-1.72604 h 0.35117 0.35118 l -0.16458,0.77672 -0.16458,0.77671 -0.23069,1.38084 -0.23069,1.38083 0.29375,-0.28229 0.29374,-0.28229 0.38772,-1.87935 0.38772,-1.87935 -0.1741,-0.16851 -0.17411,-0.16852 h -0.64708 -0.6471 l -0.17124,0.77673 -0.17124,0.77671 -0.15084,0.69041 -0.15085,0.69042 -0.0413,0.43151 -0.0413,0.4315 z m 0.17696,55.54963 0.13102,-0.14383 0.2418,-1.29453 0.24181,-1.29453 h -0.37283 -0.37282 v 1.43837 1.43836 z m 0.89302,1.4096 h 0.31071 l 0.23715,-1.73024 0.23714,-1.73024 0.20363,-0.51361 0.20363,-0.5136 h -0.36762 -0.36761 l -0.3415,1.81233 -0.3415,1.81235 -0.0423,0.4315 -0.0423,0.43151 z m 1.21282,-61.10171 1.15144,0.51781 0.81046,-1.14862 0.81046,-1.14861 0.88369,-1.68788 0.8837,-1.68786 -0.005,-1.13341 -0.005,-1.13339 -0.26561,-0.40414 -0.26561,-0.40414 -1.00472,-0.24407 -1.00474,-0.244072 -0.82479,0.427232 -0.82477,0.42723 -0.45316,0.91139 -0.45315,0.9114 -0.24575,2.58906 -0.24574,2.58905 -0.0461,0.17261 -0.0461,0.17259 1.15144,0.51782 z m 0.0357,4.45893 0.13263,-0.14384 0.25739,-1.72604 0.2574,-1.72603 -0.22189,0.21123 -0.22188,0.21124 -0.28402,1.5148 -0.28402,1.5148 0.11588,0.14384 0.11588,0.14384 z m 0.25389,3.43722 0.36236,1.56499 1.07754,1.95673 1.07754,1.95674 0.88311,0.38944 0.88311,0.38945 h 0.6293 0.62929 l 0.78058,-0.70386 0.78058,-0.70386 -9.1e-4,-1.28108 -9e-4,-1.28108 -0.66317,-1.03563 -0.66318,-1.03561 -0.85131,-0.86934 -0.85131,-0.86933 -1.38022,-1.01552 -1.38022,-1.01553 0.35795,-0.11547 0.35794,-0.11549 1.55727,0.99195 1.55724,0.99196 1.84943,0.74948 1.84944,0.74947 h 1.02579 1.02578 l 0.78065,-0.70386 0.78059,-0.70386 v -0.7894 -0.7894 l -0.8025,-0.70745 -0.80249,-0.70745 -0.84166,-0.42078 -0.84165,-0.42077 -2.72498,-0.0458 -2.72498,-0.0458 -0.98083,0.25744 -0.98082,0.25744 v 0.40268 0.40269 l -0.7755,0.79896 -0.7755,0.79897 h -0.51098 -0.51098 l 0.22857,0.57652 0.22858,0.57652 z m 0.3268,34.56436 0.71333,0.69042 h 0.86249 0.86249 l 0.57935,-0.21518 0.57937,-0.21518 0.70479,-1.33715 0.70481,-1.33715 0.19054,-1.46824 0.19055,-1.46824 -0.69391,-1.72603 -0.69391,-1.72604 -0.87678,-0.10426 -0.87678,-0.10427 -0.63973,0.94499 -0.63973,0.94501 -0.82503,1.92092 -0.82503,1.92094 -0.0151,1.29452 -0.0151,1.29452 z m -0.58069,18.95765 0.13263,-0.14384 0.20596,-1.72604 0.20597,-1.72603 -0.30305,0.86301 -0.30304,0.86302 -0.0356,1.00686 -0.0356,1.00685 z m 1.47174,6.44479 0.90866,1.79757 0.49223,0.3954 0.49224,0.3954 1.09251,0.30326 1.09249,0.30326 0.90372,-0.68803 0.90371,-0.68803 v -0.65591 -0.65593 l -0.89248,-1.82177 -0.89248,-1.82178 -1.35211,-1.51745 -1.35212,-1.51744 -1.3667,0.43656 -1.36669,0.43656 0.21418,1.75038 0.21418,1.75039 z m -0.29175,-11.79063 0.59929,0.22258 1.89159,-1.80807 1.89157,-1.80808 0.75091,-1.5462 0.75093,-1.5462 -0.21439,-1.03751 -0.21439,-1.03752 -0.58604,-0.62676 -0.58603,-0.62676 h -1.1749 -1.17489 l -0.95585,1.21293 -0.95585,1.21293 -0.27412,1.11722 -0.27411,1.11722 -0.0366,2.46581 -0.0365,2.46582 z m -0.24263,1.23211 h 0.35666 v -0.15223 -0.15223 l -0.35666,-0.21335 -0.35667,-0.21335 v 0.36558 0.36558 z m 0.21549,3.7038 0.21547,-0.20857 -0.18732,-0.45309 -0.18732,-0.45308 -0.0281,0.66165 -0.0281,0.66164 z m 0.49784,-2.66818 h 0.35665 v -0.53818 -0.53818 l -0.35665,0.21335 -0.35667,0.21335 v 0.32483 0.32483 z m 0.2786,-56.4881 0.27861,0.16666 2.31347,-0.46937 2.31345,-0.46936 1.66281,-0.68987 1.6628,-0.68987 0.38175,-0.6904 0.38175,-0.69039 v -0.83221 -0.83221 l -0.70532,-0.61781 -0.70532,-0.6178 -1.52383,0.19221 -1.52382,0.1922 -2.40748,2.47572 -2.40747,2.47573 v 0.46505 0.46506 z m -0.0327,29.47562 0.16311,-0.60411 -0.16311,-0.60412 -0.16312,-0.6041 v 1.20822 1.20823 z m 0.34475,-2.23728 0.17764,-0.42493 -0.16442,-0.61068 -0.16442,-0.61069 -0.0132,1.03562 -0.0132,1.03563 0.17764,-0.42495 z m 0.71635,28.77013 0.59363,0.87689 2.15828,-0.20537 2.15828,-0.20537 1.34007,-0.34926 1.34007,-0.34926 0.90131,-1.14371 0.9013,-1.14372 v -0.7492 -0.74921 l -1.15915,-0.68405 -1.15916,-0.68405 -0.9576,-9.2e-4 -0.95761,-0.002 -1.00404,0.36672 -1.00405,0.3667 -1.86745,1.79084 -1.86745,1.79084 -0.005,0.0985 -0.005,0.0984 0.59363,0.87689 z m -0.0214,-26.88525 0.21549,-0.20856 -0.18733,-0.45308 -0.18733,-0.45308 -0.0281,0.66164 -0.0281,0.66165 0.21549,-0.20857 z m 0.37514,-2.23009 0.17763,-0.42493 -0.16442,-0.61068 -0.16442,-0.61069 -0.0132,1.03562 -0.0132,1.03563 0.17764,-0.42495 z m 0.56853,32.94789 0.8025,0.7116 1.9871,1.07276 1.98711,1.07276 1.67522,0.22224 1.67522,0.22224 0.7068,-0.61911 0.70681,-0.61909 v -0.79607 -0.79607 l -0.76263,-0.68767 -0.76262,-0.68766 -1.64485,-0.55238 -1.64486,-0.55238 -2.44185,-0.20709 -2.44184,-0.20708 -0.31684,0.48436 -0.31683,0.48437 -0.005,0.37133 -0.005,0.37134 0.8025,0.7116 z m -0.13936,-29.24348 h 0.30647 l 0.33796,-2.41645 0.33796,-2.41644 h -0.24728 -0.24728 l -0.35136,1.98494 -0.35137,1.98494 -0.0458,0.43151 -0.0458,0.4315 z m 1.33567,-1.12911 0.21549,-0.20857 -0.18733,-0.45308 -0.18733,-0.45308 -0.0281,0.66165 -0.0281,0.66164 z m 0.49785,-2.15035 0.35666,-0.21335 v -0.32484 -0.32483 h -0.35666 -0.35666 v 0.53818 0.53819 z m 0.67717,6.71498 1.03384,2.06568 0.78391,1.22765 0.78392,1.22767 1.01784,0.50944 1.01784,0.50944 h 1.07382 1.07381 l 0.72722,-0.75551 0.72722,-0.75551 v -1.09133 -1.09134 l -1.06814,-1.42716 -1.06815,-1.42717 -1.33933,-0.80226 -1.33934,-0.80227 -1.38061,-0.62002 -1.38059,-0.62003 -0.84855,0.43954 -0.84854,0.43954 v 0.45398 0.45398 z m 0.15987,-7.72313 0.48038,0.17842 2.64042,-1.24302 2.64044,-1.24301 0.98082,-1.24568 0.98083,-1.24566 v -1.13307 -1.13306 l -0.79269,-0.53738 -0.79269,-0.53739 h -0.58045 -0.58045 l -1.40737,0.98675 -1.40737,0.98674 -1.31078,2.37903 -1.31078,2.37903 -0.0103,0.61494 -0.0103,0.61495 0.48037,0.17841 z m -0.26489,2.46808 0.21548,-0.20855 -0.18732,-0.45309 -0.18732,-0.45308 -0.0281,0.66164 -0.0281,0.66165 0.21547,-0.20857 z m 1.83533,1.079 0.98083,0.37884 1.60498,0.34502 1.60499,0.345 1.37275,0.008 1.37275,0.008 1.19617,-0.54939 1.19616,-0.54939 0.39546,-1.15974 0.39545,-1.15975 -0.38914,-0.70374 -0.38913,-0.70375 -1.0417,-0.52139 -1.04171,-0.52138 h -1.56947 -1.56947 l -1.21238,0.40296 -1.21238,0.40296 -1.33749,0.80959 -1.33749,0.8096 v 0.98941 0.98941 z M 40.954355,133.77431 h 0.421744 l 2.13218,2.15754 2.132189,2.15755 1.231444,1.78353 1.231444,1.78353 1.25079,2.38296 1.25078,2.38296 0.727551,3.22644 0.72755,3.22644 -0.0036,3.68017 -0.0036,3.68016 -0.228236,0.57567 -0.228236,0.57567 -0.282154,-0.16878 -0.282155,-0.16878 -1.081612,-2.0115 -1.081613,-2.01149 -1.394323,-2.04653 -1.394324,-2.04654 -0.947841,-1.58101 -0.947842,-1.58102 -0.735088,-2.04367 -0.735097,-2.04366 -0.839026,-3.96988 -0.839017,-3.96988 -0.251961,-1.98494 -0.25196,-1.98494 h 0.421744 z m 1.640267,7.3635 0.545335,3.39362 1.025304,2.71918 1.025314,2.71917 2.972898,4.52684 2.972908,4.52684 0.104915,-2.86526 0.104907,-2.86526 -0.559966,-2.67478 -0.559966,-2.67478 -0.726284,-1.64752 -0.726293,-1.64752 -1.582927,-2.61962 -1.582927,-2.61961 -1.966071,-2.04069 -1.966061,-2.04068 0.186794,1.20822 0.186794,1.20823 z m 2.892078,-26.46256 0.192567,-0.18638 0.945245,0.39754 0.945236,0.39755 2.785435,2.02701 2.785425,2.02702 1.888002,2.47156 1.888001,2.47155 0.740318,1.40525 0.740318,1.40524 0.737295,2.21943 0.737296,2.21944 0.526315,3.41451 0.526315,3.41452 -0.1893,0.29646 -0.189301,0.29646 h -0.311579 -0.31158 l -0.217966,-0.66469 -0.217966,-0.66469 -3.568017,-3.71 -3.568008,-3.71 -1.22388,-2.1182 -1.22388,-2.11821 -1.406385,-3.60442 -1.406384,-3.60442 -0.89804,-1.94807 -0.898058,-1.94807 z m 3.272254,6.32638 1.902524,4.6603 1.110549,2.02291 1.11054,2.02291 3.365271,3.42559 3.365271,3.42561 0.153171,-0.14826 0.153179,-0.14825 -0.395784,-2.19339 -0.395774,-2.19339 -0.892222,-2.64043 -0.89223,-2.64042 -1.320209,-2.10284 -1.320226,-2.10284 -1.783312,-1.77851 -1.783321,-1.77851 -1.783312,-1.26782 -1.783321,-1.26782 -0.492095,-0.28453 -0.492103,-0.28452 0.135436,0.30695 0.135435,0.30696 z m -1.88972,-26.8061 0.527229,-0.19582 3.08888,1.6776 3.08888,1.677608 3.087704,2.934262 3.087695,2.93427 2.010787,3.96988 2.010797,3.96988 0.430945,1.81091 0.430946,1.81093 -0.229547,0.22216 -0.22953,0.22217 -1.168866,-0.84727 -1.168865,-0.84726 -2.13998,-1.24505 -2.13998,-1.24504 -2.170708,-2.18463 -2.170699,-2.18461 -1.701524,-2.24385 -1.701514,-2.24385 -0.848138,-1.61788 -0.848129,-1.617875 -0.886811,-2.280353 -0.88681,-2.280363 z m 2.686536,5.657958 1.432553,2.843782 2.107007,2.56629 2.107017,2.56628 2.149888,1.66669 2.149896,1.66668 1.656174,1.14884 1.656174,1.14882 0.456389,0.16951 0.45639,0.16951 -0.880721,-2.34842 -0.880712,-2.34841 -1.24518,-2.29347 -1.24517,-2.29346 -1.940835,-2.27738 -1.940834,-2.277382 -2.585367,-1.765143 -2.585385,-1.765144 -1.383918,-0.689948 -1.383917,-0.689949 0.233999,0.979263 0.233999,0.979263 z m 7.198061,81.643212 2.942478,0.17035 2.956747,1.11666 2.956747,1.11665 2.214873,1.41523 2.214873,1.41521 2.58581,2.48021 2.58581,2.48019 v 0.38418 0.38419 l -0.802498,-0.012 -0.802489,-0.0121 -2.674982,-0.46478 -2.674972,-0.46478 -2.169034,-0.85619 -2.169043,-0.85618 -1.932592,-1.2026 -1.932591,-1.2026 -2.783924,-2.2973 -2.783933,-2.29729 h -0.336879 -0.33687 v -0.7337 -0.7337 l 2.942469,0.17034 z m 2.402563,4.11391 3.026727,2.35958 2.574671,1.23131 2.574672,1.2313 2.851243,0.57064 2.851253,0.57064 0.263361,-0.25491 0.26337,-0.25492 -1.582737,-1.5739 -1.582746,-1.57389 -2.666196,-1.70325 -2.666195,-1.70324 -2.69164,-1.00467 -2.691657,-1.00466 -2.310415,-0.25263 -2.310423,-0.25262 0.534992,0.62782 0.534993,0.62783 z m 6.039348,-50.5446 1.748955,-3.36859 1.782841,-2.32733 1.782833,-2.32734 2.446248,-2.24385 2.446257,-2.24384 1.063299,-0.86878 1.063308,-0.86879 2.398735,-1.46136 2.398735,-1.46137 h 0.3654 0.365408 l -0.0045,0.60411 -0.0045,0.60412 -1.172413,2.59879 -1.172403,2.59881 -1.101682,1.54368 -1.101682,1.54369 -2.222057,2.34136 -2.222048,2.34136 -2.707882,2.14161 -2.707881,2.14163 -2.076904,1.29924 -2.076903,1.29925 H 63.963947 63.44098 l 0.0027,-0.25891 0.0027,-0.25889 1.748964,-3.3686 z m -0.108282,2.50557 h 0.219531 l 2.366279,-1.52878 2.366279,-1.52877 3.272679,-2.96379 3.272688,-2.96378 1.681356,-2.15268 1.681355,-2.15268 1.019794,-2.07125 1.019785,-2.07125 2.8e-4,-0.4315 2.9e-4,-0.43151 h -0.339585 -0.339575 l -2.424559,1.62378 -2.424569,1.62378 -3.749192,3.64063 -3.749202,3.64063 -2.040981,3.62469 -2.040982,3.62467 -0.0054,0.25891 -0.0054,0.2589 h 0.21954 z m 1.046776,-40.960178 0.476333,-3.159968 0.893814,-2.577084 0.893804,-2.57709 1.241307,-2.547925 1.241307,-2.547924 1.544562,-2.216227 1.544572,-2.216218 0.399466,-0.128888 0.399476,-0.128878 0.236532,1.526665 0.236533,1.526656 -0.386418,3.062297 -0.38641,3.062289 -1.126927,2.909376 -1.126917,2.909379 -1.762193,2.613946 -1.762194,2.613936 -1.238121,1.463596 -1.238122,1.4636 -0.316692,-0.18944 -0.316693,-0.18945 0.03827,-0.75633 0.03836,-0.756349 z m 0.664746,3.303803 0.147733,-0.143834 1.825459,-2.416453 1.825459,-2.416452 1.090787,-2.224716 1.090788,-2.224729 0.656575,-2.484727 0.656576,-2.484727 0.05049,-2.539904 0.05049,-2.539913 -0.02615,-0.312419 -0.02615,-0.312428 -1.430942,2.142839 -1.430951,2.142847 -1.062439,2.037083 -1.062449,2.037083 -0.909956,3.036648 -0.909956,3.036646 -0.299926,1.726044 -0.299916,1.726034 -0.04171,1.17946 -0.04171,1.179453 0.147741,-0.143835 z m 2.483292,15.908305 0.805874,-2.24384 1.738522,-3.2542 1.738523,-3.25419 2.028938,-2.44173 2.028939,-2.44173 1.914847,-1.75196 1.914857,-1.751972 1.186528,-0.923387 1.186519,-0.923396 h 0.507631 0.50763 v 0.726896 0.726877 l -0.564019,2.121072 -0.56402,2.12108 -1.384398,2.86841 -1.384397,2.86842 -1.172395,1.43877 -1.172385,1.43878 -1.827948,1.98809 -1.827947,1.98809 -2.961687,2.4212 -2.961688,2.42121 h -0.292813 -0.292823 l 0.0209,-0.94931 0.0209,-0.94933 0.805873,-2.24385 z m 1.738098,1.43305 1.515815,-1.01656 2.867386,-2.8836 2.867377,-2.8836 1.098487,-1.38083 1.098488,-1.38083 0.993255,-1.89865 0.993256,-1.89863 0.830792,-2.91118 0.830783,-2.911181 -0.130984,-0.126772 -0.130984,-0.126781 -2.270629,1.865003 -2.270619,1.864991 -2.000536,2.20859 -2.000527,2.20857 -2.201961,3.75679 -2.20197,3.75679 -0.689674,1.93914 -0.689683,1.93913 -0.01194,0.44809 -0.01194,0.44809 z m 1.532311,58.97825 h 0.19482 l 2.569323,1.16798 2.569315,1.16797 2.167442,1.54901 2.167441,1.54901 1.278496,1.51181 1.278495,1.51181 1.814846,3.59407 1.814854,3.59407 v 0.63472 0.63472 h -0.213034 -0.213043 l -2.778938,-1.39933 -2.778938,-1.39932 -2.151119,-1.88412 -2.151127,-1.88414 -1.397038,-1.98096 -1.397038,-1.98096 -1.484789,-2.6185 -1.484788,-2.61851 v -0.57467 -0.57466 z m 3.076692,5.41597 1.54344,2.61161 2.116047,2.23546 2.116037,2.23548 1.272262,0.7697 1.272261,0.76971 1.663322,0.93612 1.663321,0.93613 0.194042,-0.30389 0.194042,-0.30388 -1.080735,-2.21419 -1.080744,-2.21418 -1.224142,-1.787 -1.224133,-1.78699 -1.8708,-1.60147 -1.8708,-1.60148 -1.426654,-0.82219 -1.426653,-0.82219 -1.385592,-0.56003 -1.3856,-0.56003 0.198819,0.73585 0.198819,0.73586 z m 3.78886,-11.98981 2.747866,-2.60397 1.426653,-1.06087 1.426653,-1.06087 1.961655,-1.05509 1.961646,-1.0551 2.853306,-0.90318 2.853307,-0.90318 2.890938,-0.20686 2.890931,-0.20688 0.19715,0.30874 0.19714,0.30874 -0.77346,0.86094 -0.773453,0.86094 -2.136291,1.77962 -2.136288,1.77961 -3.566632,1.72238 -3.566633,1.72239 -3.566642,1.03436 -3.566633,1.03437 -1.673755,0.38283 -1.673754,0.38285 h -0.377063 -0.377054 l 0.01629,-0.25891 0.01629,-0.2589 2.747866,-2.60396 z m -0.880622,2.08614 h 0.116471 l 3.895993,-1.05681 3.895983,-1.05683 3.280434,-1.50176 3.280416,-1.50176 1.891204,-1.2325 1.891195,-1.2325 1.159151,-1.00097 1.159157,-1.00099 v -0.35991 -0.35992 l -1.872486,0.17272 -1.872484,0.17272 -2.606965,0.66873 -2.606965,0.66873 -1.851328,0.90099 -1.851329,0.901 -1.783312,1.24045 -1.783321,1.24045 -2.229142,1.88518 -2.229151,1.88517 v 0.28391 0.2839 z m 12.23906,5.52333 h 0.328346 l 1.990293,1.98494 1.990293,1.98494 1.144245,1.65066 1.144245,1.65066 0.914411,1.93316 0.914399,1.93316 0.65957,2.45731 0.659575,2.45731 0.006,1.98494 0.006,1.98495 -0.44583,-0.0228 -0.445825,-0.0228 -2.048802,-2.30733 -2.048791,-2.30733 -1.567246,-2.93427 -1.567256,-2.93426 -0.779542,-3.09945 -0.779543,-3.09945 -0.201552,-1.64715 -0.201552,-1.64716 z m 1.195295,4.82254 0.710938,3.08921 0.895172,2.30184 0.895162,2.30184 1.574431,2.11357 1.574421,2.11356 1.084936,1.20822 1.084933,1.20823 0.01448,-1.70253 0.01448,-1.70253 -0.758197,-2.71965 -0.758188,-2.71965 -1.827625,-2.88496 -1.827613,-2.88495 -1.084381,-1.15045 -1.084381,-1.15045 -0.609768,-0.47377 -0.609769,-0.47378 v 0.21852 0.21853 l 0.710947,3.0892 z m 2.742085,-9.30094 1.718589,-1.05703 2.49665,-1.16572 2.496638,-1.16573 2.27476,-0.72264 2.27477,-0.72264 3.00856,-0.36185 3.00855,-0.36185 2.74161,0.22938 2.74161,0.22936 1.18482,0.46623 1.18482,0.46624 -0.22998,0.36016 -0.22998,0.36016 -2.02483,0.97036 -2.02484,0.97036 -1.96164,0.73503 -1.96165,0.73503 -2.85331,0.67462 -2.85331,0.67463 -3.20997,0.40012 -3.209969,0.40011 -3.002933,-0.11249 -3.00293,-0.1125 -0.142312,-0.41615 -0.142304,-0.41616 z m 3.591075,1.15509 3.834132,-0.13826 3.20997,-0.50193 3.20997,-0.50193 2.57433,-0.84982 2.57433,-0.8498 2.15146,-0.93451 2.15146,-0.9345 v -0.28242 -0.28242 l -1.33749,-0.26661 -1.33749,-0.26661 -3.3883,0.0654 -3.3883,0.0654 -2.85331,0.70522 -2.85331,0.70523 -3.388295,1.57379 -3.388311,1.5738 -0.802489,0.50355 -0.802489,0.50356 v 0.12555 0.12556 z m 8.520702,10.31376 0.178,-0.77672 h 0.32962 0.32962 l 1.10301,1.46713 1.103,1.46713 1.03504,2.13453 1.03505,2.13452 0.94805,2.69838 0.94806,2.69838 0.0369,3.85382 0.0369,3.85381 -0.30306,0.28867 -0.30305,0.28868 -1.34187,-1.45784 -1.34187,-1.45785 -1.31563,-2.42323 -1.31563,-2.42322 -0.50792,-2.33266 -0.5079,-2.33267 -0.16219,-3.45207 -0.1622,-3.45207 z m 1.57043,10.78773 0.77916,2.41645 0.82116,1.55344 0.82116,1.55343 1.27821,1.72493 1.27821,1.72494 0.0479,-1.55234 0.0479,-1.55232 -0.0745,-1.55343 -0.0745,-1.55344 -0.50584,-2.16824 -0.50584,-2.16824 -0.99996,-2.49206 -0.99995,-2.49206 -1.22605,-1.81234 -1.22604,-1.81234 h -0.32623 -0.32621 l 0.20612,3.88358 0.20611,3.88359 z m 2.03543,-13.79854 0.62415,-0.23672 4.26472,-0.79329 4.26472,-0.79328 2.04701,0.1216 2.04701,0.1216 2.60393,0.5255 2.60392,0.52549 2.14091,1.06555 2.14091,1.06555 1.05606,0.81858 1.05606,0.81858 -0.25014,0.24211 -0.25014,0.2421 -1.69758,0.26627 -1.69757,0.26627 -4.47376,0.24518 -4.47375,0.24517 -2.48119,-0.41575 -2.48117,-0.41574 -2.67498,-0.87861 -2.67497,-0.87862 -1.15916,-0.51887 -1.15916,-0.51887 v -0.44154 -0.44155 z m 4.01246,2.05278 2.67497,0.92709 2.85331,0.48965 2.8533,0.48966 1.89333,3.5e-4 1.89332,3.4e-4 3.3777,-0.40175 3.37772,-0.40177 -0.11436,-0.33206 -0.11436,-0.33206 -2.07824,-1.04946 -2.07823,-1.04946 -2.72177,-0.63048 -2.72178,-0.63047 -2.38125,-0.003 -2.38127,-0.003 -3.61906,0.69041 -3.61907,0.69042 h -0.22345 -0.22345 l 0.33884,0.30882 0.33882,0.30881 2.67498,0.92709 z"
       style="fill:#000000;stroke-width:0.350888" />
  </g>
</svg>
